%TF.GenerationSoftware,KiCad,Pcbnew,9.0.2*%
%TF.CreationDate,2025-12-06T23:29:51-05:00*%
%TF.ProjectId,taskmonitor,7461736b-6d6f-46e6-9974-6f722e6b6963,rev?*%
%TF.SameCoordinates,Original*%
%TF.FileFunction,Copper,L1,Top*%
%TF.FilePolarity,Positive*%
%FSLAX46Y46*%
G04 Gerber Fmt 4.6, Leading zero omitted, Abs format (unit mm)*
G04 Created by KiCad (PCBNEW 9.0.2) date 2025-12-06 23:29:51*
%MOMM*%
%LPD*%
G01*
G04 APERTURE LIST*
G04 Aperture macros list*
%AMRoundRect*
0 Rectangle with rounded corners*
0 $1 Rounding radius*
0 $2 $3 $4 $5 $6 $7 $8 $9 X,Y pos of 4 corners*
0 Add a 4 corners polygon primitive as box body*
4,1,4,$2,$3,$4,$5,$6,$7,$8,$9,$2,$3,0*
0 Add four circle primitives for the rounded corners*
1,1,$1+$1,$2,$3*
1,1,$1+$1,$4,$5*
1,1,$1+$1,$6,$7*
1,1,$1+$1,$8,$9*
0 Add four rect primitives between the rounded corners*
20,1,$1+$1,$2,$3,$4,$5,0*
20,1,$1+$1,$4,$5,$6,$7,0*
20,1,$1+$1,$6,$7,$8,$9,0*
20,1,$1+$1,$8,$9,$2,$3,0*%
G04 Aperture macros list end*
%TA.AperFunction,EtchedComponent*%
%ADD10C,0.000000*%
%TD*%
%TA.AperFunction,SMDPad,CuDef*%
%ADD11RoundRect,0.200000X0.200000X0.800000X-0.200000X0.800000X-0.200000X-0.800000X0.200000X-0.800000X0*%
%TD*%
%TA.AperFunction,SMDPad,CuDef*%
%ADD12R,1.800000X1.000000*%
%TD*%
%TA.AperFunction,SMDPad,CuDef*%
%ADD13R,0.540000X0.790100*%
%TD*%
%TA.AperFunction,SMDPad,CuDef*%
%ADD14R,0.540000X0.565700*%
%TD*%
%TA.AperFunction,SMDPad,CuDef*%
%ADD15R,0.790100X0.540000*%
%TD*%
%TA.AperFunction,SMDPad,CuDef*%
%ADD16RoundRect,0.200000X0.800000X-0.200000X0.800000X0.200000X-0.800000X0.200000X-0.800000X-0.200000X0*%
%TD*%
%TA.AperFunction,SMDPad,CuDef*%
%ADD17RoundRect,0.150000X-0.825000X-0.150000X0.825000X-0.150000X0.825000X0.150000X-0.825000X0.150000X0*%
%TD*%
%TA.AperFunction,HeatsinkPad*%
%ADD18C,0.500000*%
%TD*%
%TA.AperFunction,HeatsinkPad*%
%ADD19R,2.410000X3.300000*%
%TD*%
%TA.AperFunction,SMDPad,CuDef*%
%ADD20RoundRect,0.150000X0.150000X-0.512500X0.150000X0.512500X-0.150000X0.512500X-0.150000X-0.512500X0*%
%TD*%
%TA.AperFunction,SMDPad,CuDef*%
%ADD21RoundRect,0.062500X-0.337500X-0.062500X0.337500X-0.062500X0.337500X0.062500X-0.337500X0.062500X0*%
%TD*%
%TA.AperFunction,SMDPad,CuDef*%
%ADD22RoundRect,0.062500X-0.062500X-0.337500X0.062500X-0.337500X0.062500X0.337500X-0.062500X0.337500X0*%
%TD*%
%TA.AperFunction,HeatsinkPad*%
%ADD23R,3.700000X3.700000*%
%TD*%
%TA.AperFunction,SMDPad,CuDef*%
%ADD24RoundRect,0.075000X-0.387500X-0.075000X0.387500X-0.075000X0.387500X0.075000X-0.387500X0.075000X0*%
%TD*%
%TA.AperFunction,SMDPad,CuDef*%
%ADD25RoundRect,0.075000X-0.075000X-0.325000X0.075000X-0.325000X0.075000X0.325000X-0.075000X0.325000X0*%
%TD*%
%TA.AperFunction,SMDPad,CuDef*%
%ADD26RoundRect,0.075000X0.125000X0.075000X-0.125000X0.075000X-0.125000X-0.075000X0.125000X-0.075000X0*%
%TD*%
%TA.AperFunction,SMDPad,CuDef*%
%ADD27RoundRect,0.162500X-0.162500X0.650000X-0.162500X-0.650000X0.162500X-0.650000X0.162500X0.650000X0*%
%TD*%
%TA.AperFunction,SMDPad,CuDef*%
%ADD28R,1.300000X0.300000*%
%TD*%
%TA.AperFunction,SMDPad,CuDef*%
%ADD29R,2.200000X1.800000*%
%TD*%
%TA.AperFunction,SMDPad,CuDef*%
%ADD30R,0.565700X0.540000*%
%TD*%
%TA.AperFunction,SMDPad,CuDef*%
%ADD31R,0.600000X1.750000*%
%TD*%
%TA.AperFunction,SMDPad,CuDef*%
%ADD32R,1.450000X1.000000*%
%TD*%
%TA.AperFunction,SMDPad,CuDef*%
%ADD33R,1.000000X1.550000*%
%TD*%
%TA.AperFunction,SMDPad,CuDef*%
%ADD34R,0.800000X1.500000*%
%TD*%
%TA.AperFunction,SMDPad,CuDef*%
%ADD35R,0.800000X1.400000*%
%TD*%
%TA.AperFunction,SMDPad,CuDef*%
%ADD36R,1.500000X1.500000*%
%TD*%
%TA.AperFunction,SMDPad,CuDef*%
%ADD37R,1.300000X1.500000*%
%TD*%
%TA.AperFunction,SMDPad,CuDef*%
%ADD38R,2.500000X2.500000*%
%TD*%
%TA.AperFunction,SMDPad,CuDef*%
%ADD39RoundRect,0.150000X-0.512500X-0.150000X0.512500X-0.150000X0.512500X0.150000X-0.512500X0.150000X0*%
%TD*%
%TA.AperFunction,SMDPad,CuDef*%
%ADD40RoundRect,0.250000X-0.625000X0.375000X-0.625000X-0.375000X0.625000X-0.375000X0.625000X0.375000X0*%
%TD*%
%TA.AperFunction,ConnectorPad*%
%ADD41R,0.500000X0.500000*%
%TD*%
%TA.AperFunction,ComponentPad*%
%ADD42R,0.900000X0.500000*%
%TD*%
%TA.AperFunction,HeatsinkPad*%
%ADD43O,1.600000X1.000000*%
%TD*%
%TA.AperFunction,HeatsinkPad*%
%ADD44O,2.100000X1.000000*%
%TD*%
%TA.AperFunction,ViaPad*%
%ADD45C,0.600000*%
%TD*%
%TA.AperFunction,Conductor*%
%ADD46C,0.400000*%
%TD*%
%TA.AperFunction,Conductor*%
%ADD47C,0.200000*%
%TD*%
%TA.AperFunction,Conductor*%
%ADD48C,0.300000*%
%TD*%
%TA.AperFunction,Conductor*%
%ADD49C,0.600000*%
%TD*%
%TA.AperFunction,Conductor*%
%ADD50C,0.800000*%
%TD*%
G04 APERTURE END LIST*
D10*
%TA.AperFunction,EtchedComponent*%
%TO.C,AE1*%
G36*
X75650000Y-83190000D02*
G01*
X77650000Y-83190000D01*
X77650000Y-80550000D01*
X80350000Y-80550000D01*
X80350000Y-83190000D01*
X82350000Y-83190000D01*
X82350000Y-80550000D01*
X85050000Y-80550000D01*
X85050000Y-84990000D01*
X84550000Y-84990000D01*
X84550000Y-81050000D01*
X82850000Y-81050000D01*
X82850000Y-83690000D01*
X79850000Y-83690000D01*
X79850000Y-81050000D01*
X78150000Y-81050000D01*
X78150000Y-83690000D01*
X75150000Y-83690000D01*
X75150000Y-81050000D01*
X73450000Y-81050000D01*
X73450000Y-85950000D01*
X72950000Y-85950000D01*
X72950000Y-81050000D01*
X71550000Y-81050000D01*
X71550000Y-85950000D01*
X70650000Y-85950000D01*
X70650000Y-85706785D01*
X70952417Y-85706785D01*
X70962258Y-85754395D01*
X70986326Y-85796797D01*
X71024269Y-85829581D01*
X71032181Y-85833935D01*
X71074844Y-85846043D01*
X71123363Y-85845300D01*
X71168878Y-85832400D01*
X71187489Y-85821787D01*
X71221132Y-85786553D01*
X71241691Y-85741368D01*
X71248222Y-85691842D01*
X71239782Y-85643583D01*
X71222888Y-85611357D01*
X71187628Y-85578687D01*
X71142318Y-85558592D01*
X71092733Y-85552018D01*
X71044647Y-85559908D01*
X71011755Y-85576814D01*
X70976815Y-85613584D01*
X70957153Y-85658378D01*
X70952417Y-85706785D01*
X70650000Y-85706785D01*
X70650000Y-80550000D01*
X75650000Y-80550000D01*
X75650000Y-83190000D01*
G37*
%TD.AperFunction*%
%TD*%
D11*
%TO.P,BOOT1,1,1*%
%TO.N,/BOOT*%
X75625000Y-106850000D03*
%TO.P,BOOT1,2,2*%
%TO.N,GND*%
X71425000Y-106850000D03*
%TD*%
D12*
%TO.P,Y1,1,1*%
%TO.N,/XTAL_N*%
X95925000Y-91650000D03*
%TO.P,Y1,2,2*%
%TO.N,/XTAL_P*%
X95925000Y-89150000D03*
%TD*%
D13*
%TO.P,C2,1*%
%TO.N,+5V*%
X70975000Y-93300000D03*
%TO.P,C2,2*%
%TO.N,GND*%
X70975000Y-92209800D03*
%TD*%
D14*
%TO.P,R9,1*%
%TO.N,/XTAL_P*%
X94575000Y-93909400D03*
%TO.P,R9,2*%
%TO.N,Net-(U3-XTAL_P)*%
X94575000Y-94775000D03*
%TD*%
D13*
%TO.P,C18,1*%
%TO.N,GND*%
X110575000Y-96900000D03*
%TO.P,C18,2*%
%TO.N,+3.3V*%
X110575000Y-97990200D03*
%TD*%
D14*
%TO.P,R2,1*%
%TO.N,GND*%
X94875000Y-84665600D03*
%TO.P,R2,2*%
%TO.N,Net-(U2-PROG)*%
X94875000Y-83800000D03*
%TD*%
D15*
%TO.P,C20,1*%
%TO.N,GND*%
X115220100Y-110275000D03*
%TO.P,C20,2*%
%TO.N,+3.3V*%
X114129900Y-110275000D03*
%TD*%
D16*
%TO.P,SW1,1,1*%
%TO.N,/SEL1*%
X115700000Y-86200000D03*
%TO.P,SW1,2,2*%
%TO.N,GND*%
X115700000Y-82000000D03*
%TD*%
D14*
%TO.P,R5,1*%
%TO.N,+3.3V*%
X96650000Y-105315600D03*
%TO.P,R5,2*%
%TO.N,/BOOT*%
X96650000Y-104450000D03*
%TD*%
D13*
%TO.P,C6,1*%
%TO.N,+3.3V*%
X70975000Y-89434800D03*
%TO.P,C6,2*%
%TO.N,GND*%
X70975000Y-90525000D03*
%TD*%
D17*
%TO.P,U2,1,TEMP*%
%TO.N,GND*%
X96775000Y-82350000D03*
%TO.P,U2,2,PROG*%
%TO.N,Net-(U2-PROG)*%
X96775000Y-83620000D03*
%TO.P,U2,3,GND*%
%TO.N,GND*%
X96775000Y-84890000D03*
%TO.P,U2,4,V_{CC}*%
%TO.N,+5V*%
X96775000Y-86160000D03*
%TO.P,U2,5,BAT*%
%TO.N,/BAT*%
X101725000Y-86160000D03*
%TO.P,U2,6,~{STDBY}*%
%TO.N,GND*%
X101725000Y-84890000D03*
%TO.P,U2,7,~{CHRG}*%
X101725000Y-83620000D03*
%TO.P,U2,8,CE*%
%TO.N,+5V*%
X101725000Y-82350000D03*
D18*
%TO.P,U2,9,EPAD*%
%TO.N,GND*%
X98550000Y-83055000D03*
X98550000Y-84255000D03*
X98550000Y-85455000D03*
D19*
X99250000Y-84255000D03*
D18*
X99950000Y-83055000D03*
X99950000Y-84255000D03*
X99950000Y-85455000D03*
%TD*%
D13*
%TO.P,C4,1*%
%TO.N,GND*%
X103575000Y-83695100D03*
%TO.P,C4,2*%
%TO.N,+5V*%
X103575000Y-82604900D03*
%TD*%
D20*
%TO.P,U7,1,VIN*%
%TO.N,+5V*%
X74550000Y-92100000D03*
%TO.P,U7,2,GND*%
%TO.N,GND*%
X75500000Y-92100000D03*
%TO.P,U7,3,EN*%
%TO.N,+5V*%
X76450000Y-92100000D03*
%TO.P,U7,4,NC*%
%TO.N,unconnected-(U7-NC-Pad4)*%
X76450000Y-89825000D03*
%TO.P,U7,5,VOUT*%
%TO.N,+3.3V*%
X74550000Y-89825000D03*
%TD*%
D21*
%TO.P,U3,1,LNA_IN*%
%TO.N,Net-(U3-LNA_IN)*%
X92100000Y-97750000D03*
%TO.P,U3,2,VDD3P3*%
%TO.N,+3.3V*%
X92100000Y-98250000D03*
%TO.P,U3,3,VDD3P3*%
X92100000Y-98750000D03*
%TO.P,U3,4,XTAL_32K_P*%
%TO.N,/SPI7*%
X92100000Y-99250000D03*
%TO.P,U3,5,XTAL_32K_N*%
%TO.N,/CLK*%
X92100000Y-99750000D03*
%TO.P,U3,6,GPIO2*%
%TO.N,Net-(U3-GPIO2)*%
X92100000Y-100250000D03*
%TO.P,U3,7,CHIP_EN*%
%TO.N,EN*%
X92100000Y-100750000D03*
%TO.P,U3,8,GPIO3*%
%TO.N,/SPI1*%
X92100000Y-101250000D03*
D22*
%TO.P,U3,9,MTMS*%
%TO.N,/SD1*%
X92800000Y-101950000D03*
%TO.P,U3,10,MTDI*%
%TO.N,/MOSI*%
X93300000Y-101950000D03*
%TO.P,U3,11,VDD3P3_RTC*%
%TO.N,+3.3V*%
X93800000Y-101950000D03*
%TO.P,U3,12,MTCK*%
%TO.N,/SPI6*%
X94300000Y-101950000D03*
%TO.P,U3,13,MTDO*%
%TO.N,/MISO*%
X94800000Y-101950000D03*
%TO.P,U3,14,GPIO8*%
%TO.N,Net-(U3-GPIO8)*%
X95300000Y-101950000D03*
%TO.P,U3,15,GPIO9*%
%TO.N,/BOOT*%
X95800000Y-101950000D03*
%TO.P,U3,16,GPIO10*%
%TO.N,/SEL1*%
X96300000Y-101950000D03*
D21*
%TO.P,U3,17,VDD3P3_CPU*%
%TO.N,+3.3V*%
X97000000Y-101250000D03*
%TO.P,U3,18,VDD_SPI*%
%TO.N,unconnected-(U3-VDD_SPI-Pad18)*%
X97000000Y-100750000D03*
%TO.P,U3,19,SPIHD*%
%TO.N,/BUSY*%
X97000000Y-100250000D03*
%TO.P,U3,20,SPIWP*%
%TO.N,/RES#*%
X97000000Y-99750000D03*
%TO.P,U3,21,SPICS0*%
%TO.N,/D{slash}C#*%
X97000000Y-99250000D03*
%TO.P,U3,22,SPICLK*%
%TO.N,/CS*%
X97000000Y-98750000D03*
%TO.P,U3,23,SPID*%
%TO.N,/SDIO*%
X97000000Y-98250000D03*
%TO.P,U3,24,SPIQ*%
%TO.N,/SCK*%
X97000000Y-97750000D03*
D22*
%TO.P,U3,25,GPIO18*%
%TO.N,/D-*%
X96300000Y-97050000D03*
%TO.P,U3,26,GPIO19*%
%TO.N,/D+*%
X95800000Y-97050000D03*
%TO.P,U3,27,U0RXD*%
%TO.N,/INT1*%
X95300000Y-97050000D03*
%TO.P,U3,28,U0TXD*%
%TO.N,/CS2*%
X94800000Y-97050000D03*
%TO.P,U3,29,XTAL_N*%
%TO.N,/XTAL_N*%
X94300000Y-97050000D03*
%TO.P,U3,30,XTAL_P*%
%TO.N,Net-(U3-XTAL_P)*%
X93800000Y-97050000D03*
%TO.P,U3,31,VDDA*%
%TO.N,+3.3V*%
X93300000Y-97050000D03*
%TO.P,U3,32,VDDA*%
X92800000Y-97050000D03*
D23*
%TO.P,U3,33,GND*%
%TO.N,GND*%
X94550000Y-99500000D03*
%TD*%
D24*
%TO.P,U6,1,V_{DD_I/O}*%
%TO.N,+3.3V*%
X112850000Y-111825000D03*
%TO.P,U6,2*%
%TO.N,N/C*%
X112850000Y-112325000D03*
%TO.P,U6,3,RES*%
%TO.N,unconnected-(U6-RES-Pad3)*%
X112850000Y-112825000D03*
%TO.P,U6,4,SCLK*%
%TO.N,/CLK*%
X112850000Y-113325000D03*
%TO.P,U6,5,ADC_IN*%
%TO.N,unconnected-(U6-ADC_IN-Pad5)*%
X112850000Y-113825000D03*
D25*
%TO.P,U6,6,MOSI*%
%TO.N,/MOSI*%
X113637500Y-114100000D03*
%TO.P,U6,7,MISO*%
%TO.N,/MISO*%
X114137500Y-114100000D03*
%TO.P,U6,8,~{CS}*%
%TO.N,/CS2*%
X114637500Y-114100000D03*
D24*
%TO.P,U6,9,INT2*%
%TO.N,unconnected-(U6-INT2-Pad9)*%
X115425000Y-113825000D03*
%TO.P,U6,10,RES*%
%TO.N,unconnected-(U6-RES-Pad10)*%
X115425000Y-113325000D03*
%TO.P,U6,11,INT1*%
%TO.N,/INT1*%
X115425000Y-112825000D03*
%TO.P,U6,12,GND*%
%TO.N,GND*%
X115425000Y-112325000D03*
%TO.P,U6,13,GND*%
X115425000Y-111825000D03*
D25*
%TO.P,U6,14,V_{S}*%
%TO.N,+3.3V*%
X114637500Y-111550000D03*
%TO.P,U6,15*%
%TO.N,N/C*%
X114137500Y-111550000D03*
%TO.P,U6,16,GND*%
%TO.N,GND*%
X113637500Y-111550000D03*
%TD*%
D26*
%TO.P,L1,1,1*%
%TO.N,Net-(U3-LNA_IN)*%
X82700000Y-86950000D03*
%TO.P,L1,2,2*%
%TO.N,Net-(AE1-Pad1)*%
X82200000Y-86950000D03*
%TD*%
D13*
%TO.P,C13,1*%
%TO.N,GND*%
X81200000Y-88415200D03*
%TO.P,C13,2*%
%TO.N,Net-(AE1-Pad1)*%
X81200000Y-87325000D03*
%TD*%
D14*
%TO.P,R3,1*%
%TO.N,Net-(J1-CC2)*%
X79725000Y-95682800D03*
%TO.P,R3,2*%
%TO.N,GND*%
X79725000Y-94817200D03*
%TD*%
D26*
%TO.P,L2,1,1*%
%TO.N,Net-(U5-SW)*%
X105867500Y-81394400D03*
%TO.P,L2,2,2*%
%TO.N,/BAT*%
X105367500Y-81394400D03*
%TD*%
D13*
%TO.P,C14,1*%
%TO.N,+3.3V*%
X93025000Y-113375000D03*
%TO.P,C14,2*%
%TO.N,GND*%
X93025000Y-114465200D03*
%TD*%
D27*
%TO.P,U4,1,~{CS}*%
%TO.N,/SPI1*%
X91205000Y-83387500D03*
%TO.P,U4,2,DO/IO_{1}*%
%TO.N,/MISO*%
X89935000Y-83387500D03*
%TO.P,U4,3,~{WP}/IO_{2}*%
%TO.N,/SPI6*%
X88665000Y-83387500D03*
%TO.P,U4,4,GND*%
%TO.N,GND*%
X87395000Y-83387500D03*
%TO.P,U4,5,DI/IO_{0}*%
%TO.N,/MOSI*%
X87395000Y-90562500D03*
%TO.P,U4,6,CLK*%
%TO.N,/CLK*%
X88665000Y-90562500D03*
%TO.P,U4,7,~{HOLD}/~{RESET}/IO_{3}*%
%TO.N,/SPI7*%
X89935000Y-90562500D03*
%TO.P,U4,8,VCC*%
%TO.N,+3.3V*%
X91205000Y-90562500D03*
%TD*%
D28*
%TO.P,J4,1,1*%
%TO.N,unconnected-(J4-Pad1)*%
X112125000Y-105225000D03*
%TO.P,J4,2,2*%
%TO.N,unconnected-(J4-Pad2)*%
X112125000Y-104725000D03*
%TO.P,J4,3,3*%
%TO.N,unconnected-(J4-Pad3)*%
X112125000Y-104225000D03*
%TO.P,J4,4,4*%
%TO.N,Net-(C15-Pad2)*%
X112125000Y-103725000D03*
%TO.P,J4,5,5*%
X112125000Y-103225000D03*
%TO.P,J4,6,6*%
%TO.N,unconnected-(J4-Pad6)*%
X112125000Y-102725000D03*
%TO.P,J4,7,7*%
%TO.N,unconnected-(J4-Pad7)*%
X112125000Y-102225000D03*
%TO.P,J4,8,8*%
%TO.N,Net-(C15-Pad2)*%
X112125000Y-101725000D03*
%TO.P,J4,9,9*%
%TO.N,/BUSY*%
X112125000Y-101225000D03*
%TO.P,J4,10,10*%
%TO.N,/RES#*%
X112125000Y-100725000D03*
%TO.P,J4,11,11*%
%TO.N,/D{slash}C#*%
X112125000Y-100225000D03*
%TO.P,J4,12,12*%
%TO.N,/CS*%
X112125000Y-99725000D03*
%TO.P,J4,13,13*%
%TO.N,/SDIO*%
X112125000Y-99225000D03*
%TO.P,J4,14,14*%
%TO.N,/SCK*%
X112125000Y-98725000D03*
%TO.P,J4,15,15*%
%TO.N,+3.3V*%
X112125000Y-98225000D03*
%TO.P,J4,16,16*%
X112125000Y-97725000D03*
%TO.P,J4,17,17*%
%TO.N,GND*%
X112125000Y-97225000D03*
%TO.P,J4,18,18*%
X112125000Y-96725000D03*
%TO.P,J4,19,19*%
%TO.N,unconnected-(J4-Pad19)*%
X112125000Y-96225000D03*
%TO.P,J4,20,20*%
%TO.N,Net-(C19-Pad1)*%
X112125000Y-95725000D03*
%TO.P,J4,21,21*%
%TO.N,+3.3V*%
X112125000Y-95225000D03*
%TO.P,J4,22,22*%
%TO.N,GND*%
X112125000Y-94725000D03*
%TO.P,J4,23,23*%
X112125000Y-94225000D03*
%TO.P,J4,24,24*%
X112125000Y-93725000D03*
D29*
%TO.P,J4,P1,SHIELD*%
X115375000Y-91825000D03*
%TO.P,J4,P2,SHIELD*%
X115375000Y-107125000D03*
%TD*%
D11*
%TO.P,EN1,1,1*%
%TO.N,EN*%
X75625000Y-110600000D03*
%TO.P,EN1,2,2*%
%TO.N,GND*%
X71425000Y-110600000D03*
%TD*%
D15*
%TO.P,C7,1*%
%TO.N,+3.3V*%
X89625000Y-98250000D03*
%TO.P,C7,2*%
%TO.N,GND*%
X88534800Y-98250000D03*
%TD*%
D14*
%TO.P,R12,1*%
%TO.N,GND*%
X105592500Y-85519400D03*
%TO.P,R12,2*%
%TO.N,Net-(U5-FB)*%
X105592500Y-84653800D03*
%TD*%
D13*
%TO.P,C19,1*%
%TO.N,Net-(C19-Pad1)*%
X110575000Y-94309800D03*
%TO.P,C19,2*%
%TO.N,GND*%
X110575000Y-95400000D03*
%TD*%
D30*
%TO.P,R6,1*%
%TO.N,+3.3V*%
X88867200Y-101525000D03*
%TO.P,R6,2*%
%TO.N,EN*%
X89732800Y-101525000D03*
%TD*%
D13*
%TO.P,C16,1*%
%TO.N,GND*%
X111092500Y-83634600D03*
%TO.P,C16,2*%
%TO.N,Net-(J2-Pin_1)*%
X111092500Y-82544400D03*
%TD*%
D31*
%TO.P,Card1,1,DAT2*%
%TO.N,unconnected-(Card1-DAT2-Pad1)*%
X89150000Y-116525000D03*
%TO.P,Card1,2,CD/DAT3*%
%TO.N,/SD1*%
X88049900Y-116525000D03*
%TO.P,Card1,3,CMD*%
%TO.N,/MOSI*%
X86950100Y-116525000D03*
%TO.P,Card1,4,VDD*%
%TO.N,+3.3V*%
X85850000Y-116525000D03*
%TO.P,Card1,5,CLK*%
%TO.N,/CLK*%
X84750000Y-116525000D03*
%TO.P,Card1,6,VSS*%
%TO.N,GND*%
X83649900Y-116525000D03*
%TO.P,Card1,7,DAT0*%
%TO.N,/MISO*%
X82550100Y-116525000D03*
%TO.P,Card1,8,DAT1*%
%TO.N,unconnected-(Card1-DAT1-Pad8)*%
X81450000Y-116525000D03*
D32*
%TO.P,Card1,9,B*%
%TO.N,unconnected-(Card1-B-Pad9)*%
X80325000Y-107300000D03*
D33*
%TO.P,Card1,10,A*%
%TO.N,unconnected-(Card1-A-Pad10)*%
X91150000Y-105725000D03*
D34*
%TO.P,Card1,11,GND*%
%TO.N,GND*%
X79999900Y-108799900D03*
D35*
%TO.P,Card1,12,GND*%
X91950100Y-108149900D03*
D36*
%TO.P,Card1,13,GND*%
X91600100Y-116399800D03*
D37*
%TO.P,Card1,14,GND*%
X80250100Y-116399800D03*
%TD*%
D30*
%TO.P,R8,1*%
%TO.N,Net-(U3-GPIO2)*%
X89725000Y-100250000D03*
%TO.P,R8,2*%
%TO.N,+3.3V*%
X88859400Y-100250000D03*
%TD*%
D38*
%TO.P,J2,1,Pin_1*%
%TO.N,Net-(J2-Pin_1)*%
X99750000Y-115575000D03*
%TD*%
D13*
%TO.P,C3,1*%
%TO.N,GND*%
X94100000Y-90984800D03*
%TO.P,C3,2*%
%TO.N,/XTAL_N*%
X94100000Y-92075000D03*
%TD*%
D38*
%TO.P,J3,1,Pin_1*%
%TO.N,GND*%
X105750000Y-115575000D03*
%TD*%
D13*
%TO.P,C15,1*%
%TO.N,GND*%
X110575000Y-104220100D03*
%TO.P,C15,2*%
%TO.N,Net-(C15-Pad2)*%
X110575000Y-103129900D03*
%TD*%
%TO.P,C12,1*%
%TO.N,GND*%
X92875000Y-89809800D03*
%TO.P,C12,2*%
%TO.N,+3.3V*%
X92875000Y-90900000D03*
%TD*%
%TO.P,C10,1*%
%TO.N,+3.3V*%
X93300000Y-94675000D03*
%TO.P,C10,2*%
%TO.N,GND*%
X93300000Y-93584800D03*
%TD*%
D30*
%TO.P,R1,1*%
%TO.N,+5V*%
X82325000Y-96750000D03*
%TO.P,R1,2*%
%TO.N,Net-(D1-A)*%
X81459400Y-96750000D03*
%TD*%
%TO.P,R10,1*%
%TO.N,+3.3V*%
X114009400Y-87750000D03*
%TO.P,R10,2*%
%TO.N,/SEL1*%
X114875000Y-87750000D03*
%TD*%
D39*
%TO.P,U5,1,SW*%
%TO.N,Net-(U5-SW)*%
X107200000Y-82450000D03*
%TO.P,U5,2,GND*%
%TO.N,GND*%
X107200000Y-83400000D03*
%TO.P,U5,3,FB*%
%TO.N,Net-(U5-FB)*%
X107200000Y-84350000D03*
%TO.P,U5,4,~{SHDN}*%
%TO.N,Net-(J2-Pin_1)*%
X109475000Y-84350000D03*
%TO.P,U5,5,IN*%
X109475000Y-82450000D03*
%TD*%
D14*
%TO.P,R4,1*%
%TO.N,Net-(J1-CC1)*%
X78500000Y-105667200D03*
%TO.P,R4,2*%
%TO.N,GND*%
X78500000Y-106532800D03*
%TD*%
D15*
%TO.P,C11,1*%
%TO.N,GND*%
X84950000Y-87175000D03*
%TO.P,C11,2*%
%TO.N,Net-(U3-LNA_IN)*%
X83859800Y-87175000D03*
%TD*%
%TO.P,C17,1*%
%TO.N,GND*%
X109257700Y-81044400D03*
%TO.P,C17,2*%
%TO.N,/BAT*%
X108167500Y-81044400D03*
%TD*%
D14*
%TO.P,R13,1*%
%TO.N,/BAT*%
X105592500Y-82419400D03*
%TO.P,R13,2*%
%TO.N,Net-(U5-FB)*%
X105592500Y-83285000D03*
%TD*%
D13*
%TO.P,C5,1*%
%TO.N,/XTAL_P*%
X94125000Y-89504900D03*
%TO.P,C5,2*%
%TO.N,GND*%
X94125000Y-88414700D03*
%TD*%
%TO.P,C9,1*%
%TO.N,+3.3V*%
X96675000Y-106734800D03*
%TO.P,C9,2*%
%TO.N,GND*%
X96675000Y-107825000D03*
%TD*%
D40*
%TO.P,D1,1,K*%
%TO.N,GND*%
X81892200Y-92250000D03*
%TO.P,D1,2,A*%
%TO.N,Net-(D1-A)*%
X81892200Y-95050000D03*
%TD*%
D13*
%TO.P,C8,1*%
%TO.N,GND*%
X93800000Y-105590200D03*
%TO.P,C8,2*%
%TO.N,+3.3V*%
X93800000Y-104500000D03*
%TD*%
%TO.P,C1,1*%
%TO.N,+5V*%
X93425000Y-83900000D03*
%TO.P,C1,2*%
%TO.N,GND*%
X93425000Y-84990200D03*
%TD*%
D41*
%TO.P,AE1,1*%
%TO.N,Net-(AE1-Pad1)*%
X73200000Y-85700000D03*
D42*
%TO.P,AE1,2*%
%TO.N,GND*%
X71100000Y-85700000D03*
%TD*%
D14*
%TO.P,R7,1*%
%TO.N,Net-(U3-GPIO8)*%
X95275000Y-104450000D03*
%TO.P,R7,2*%
%TO.N,+3.3V*%
X95275000Y-105315600D03*
%TD*%
D43*
%TO.P,J1,S1,SHIELD*%
%TO.N,GND*%
X73045000Y-103880000D03*
D44*
X77225000Y-103880000D03*
D43*
X73045000Y-95240000D03*
D44*
X77225000Y-95240000D03*
%TD*%
D45*
%TO.N,GND*%
X72950000Y-87950000D03*
X94600000Y-99450000D03*
X102600000Y-81150000D03*
X117775000Y-84800000D03*
%TO.N,/XTAL_P*%
X95075000Y-92950000D03*
X96525000Y-92950000D03*
%TO.N,/SD1*%
X89500000Y-104850000D03*
X91535360Y-102814640D03*
%TO.N,/SCK*%
X106419900Y-97775000D03*
X101625000Y-97775000D03*
%TO.N,/BUSY*%
X100500000Y-101550000D03*
X106401456Y-101871589D03*
%TO.N,/D{slash}C#*%
X100095364Y-99600196D03*
X106419900Y-100272058D03*
%TO.N,/SDIO*%
X106419900Y-98575003D03*
X101226739Y-98468822D03*
%TO.N,/CS*%
X100661051Y-99034509D03*
X106419900Y-99423530D03*
%TO.N,/RES#*%
X99687680Y-100288526D03*
X106393510Y-101071626D03*
%TO.N,+5V*%
X76745978Y-101575251D03*
X76745978Y-97544749D03*
X92275000Y-82500000D03*
%TO.N,/D+*%
X98424479Y-96925521D03*
%TO.N,/D-*%
X97287714Y-96637286D03*
%TO.N,/BOOT*%
X97269695Y-103830305D03*
X75650000Y-106900000D03*
X95234838Y-106275001D03*
X93742420Y-107925000D03*
%TO.N,EN*%
X85479136Y-103820864D03*
X89732800Y-101525000D03*
X78675000Y-108975000D03*
X88000000Y-101801405D03*
X75625000Y-110600000D03*
X79025000Y-107475000D03*
%TO.N,/SPI1*%
X90876020Y-101400000D03*
X89375000Y-87650000D03*
%TO.N,/SPI7*%
X89900000Y-96150000D03*
X91200000Y-98900000D03*
%TO.N,/SPI6*%
X88800000Y-85025000D03*
X93875000Y-103384620D03*
%TO.N,/MOSI*%
X88775000Y-103900000D03*
X86950100Y-109075000D03*
X86300000Y-92582209D03*
X90273595Y-102401405D03*
X106236116Y-107957512D03*
%TO.N,/MISO*%
X94650000Y-103600000D03*
X92500000Y-106050000D03*
X105670429Y-108523199D03*
X89900000Y-84875000D03*
X84150000Y-114425000D03*
X88775000Y-109800000D03*
%TO.N,/CLK*%
X86975000Y-98150000D03*
X84750000Y-109050000D03*
X89300000Y-95582209D03*
X106801803Y-107391825D03*
X90800000Y-99600000D03*
X87533896Y-93816104D03*
%TO.N,/SEL1*%
X97350000Y-102625000D03*
X99275000Y-103625000D03*
X112504520Y-89029520D03*
X110625000Y-89025000D03*
%TO.N,Net-(U3-LNA_IN)*%
X90575000Y-88900000D03*
X92084620Y-95859620D03*
%TO.N,Net-(J1-CC2)*%
X79650000Y-97075000D03*
%TO.N,Net-(J1-CC1)*%
X79075000Y-103875000D03*
%TO.N,Net-(J2-Pin_1)*%
X109450000Y-87000000D03*
X99750000Y-115575000D03*
%TO.N,+3.3V*%
X90375000Y-113375000D03*
X86350100Y-114825000D03*
%TO.N,/INT1*%
X101675000Y-95750000D03*
X104321476Y-96464380D03*
%TO.N,/CS2*%
X101675000Y-94949997D03*
X105119900Y-96414138D03*
%TD*%
D46*
%TO.N,/SEL1*%
X115700000Y-86200000D02*
X115700000Y-86925000D01*
X115700000Y-86925000D02*
X114875000Y-87750000D01*
D47*
%TO.N,/SD1*%
X91535360Y-102814640D02*
X91935360Y-102814640D01*
X91935360Y-102814640D02*
X92800000Y-101950000D01*
D48*
%TO.N,/BOOT*%
X93742420Y-107925000D02*
X93742420Y-107767419D01*
X93742420Y-107767419D02*
X95234838Y-106275001D01*
D47*
%TO.N,/BUSY*%
X106401456Y-101871589D02*
X110328411Y-101871589D01*
X110328411Y-101871589D02*
X110975000Y-101225000D01*
X110975000Y-101225000D02*
X112125000Y-101225000D01*
%TO.N,/RES#*%
X106393510Y-101071626D02*
X110229374Y-101071626D01*
X110229374Y-101071626D02*
X110550000Y-100751000D01*
X110550000Y-100751000D02*
X112099000Y-100751000D01*
X112099000Y-100751000D02*
X112125000Y-100725000D01*
%TO.N,/D{slash}C#*%
X106419900Y-100272058D02*
X106497842Y-100350000D01*
X106497842Y-100350000D02*
X110806200Y-100350000D01*
X110806200Y-100350000D02*
X110931200Y-100225000D01*
X110931200Y-100225000D02*
X112125000Y-100225000D01*
%TO.N,/SCK*%
X106419900Y-97775000D02*
X106469840Y-97775000D01*
X106469840Y-97775000D02*
X107841840Y-99147000D01*
X107841840Y-99147000D02*
X110199000Y-99147000D01*
X110199000Y-99147000D02*
X110600000Y-98746000D01*
X110600000Y-98746000D02*
X112104000Y-98746000D01*
X112104000Y-98746000D02*
X112125000Y-98725000D01*
%TO.N,/CS*%
X106419900Y-99423530D02*
X106945370Y-99949000D01*
X106945370Y-99949000D02*
X110640100Y-99949000D01*
X110864100Y-99725000D02*
X112125000Y-99725000D01*
X110640100Y-99949000D02*
X110864100Y-99725000D01*
%TO.N,/SDIO*%
X106419900Y-98575003D02*
X107392897Y-99548000D01*
X107392897Y-99548000D02*
X110474000Y-99548000D01*
D48*
%TO.N,+3.3V*%
X105794900Y-94775754D02*
X109009346Y-97990200D01*
X109009346Y-97990200D02*
X110575000Y-97990200D01*
D49*
%TO.N,Net-(J2-Pin_1)*%
X109450000Y-84375000D02*
X109475000Y-84350000D01*
X109450000Y-87000000D02*
X109450000Y-84375000D01*
D46*
%TO.N,GND*%
X110600000Y-96900000D02*
X110600000Y-95425000D01*
D47*
X112125000Y-97225000D02*
X111029900Y-97225000D01*
X97845000Y-82350000D02*
X98550000Y-83055000D01*
X96775000Y-82350000D02*
X97845000Y-82350000D01*
D48*
X110298150Y-95400000D02*
X110575000Y-95400000D01*
D47*
X76654468Y-91000000D02*
X71450000Y-91000000D01*
X94050000Y-90984800D02*
X92875000Y-89809800D01*
D48*
X112125000Y-94725000D02*
X112125000Y-93725000D01*
X99885000Y-83620000D02*
X99250000Y-84255000D01*
D47*
X96775000Y-84890000D02*
X98615000Y-84890000D01*
X91950100Y-107565150D02*
X91950100Y-108149900D01*
X111029900Y-97225000D02*
X110600000Y-96795100D01*
X93800000Y-105715250D02*
X91950100Y-107565150D01*
D48*
X101725000Y-83620000D02*
X99885000Y-83620000D01*
X110242750Y-93275000D02*
X109954000Y-93563750D01*
D46*
X110600000Y-95425000D02*
X110625000Y-95400000D01*
D48*
X112125000Y-96725000D02*
X112125000Y-97225000D01*
D47*
X79725000Y-94070532D02*
X76654468Y-91000000D01*
X98615000Y-84890000D02*
X99250000Y-84255000D01*
X94100000Y-90984800D02*
X93300000Y-91784800D01*
X94100000Y-90984800D02*
X94050000Y-90984800D01*
X93300000Y-91784800D02*
X93300000Y-93584800D01*
D48*
X109954000Y-93563750D02*
X109954000Y-95055850D01*
D47*
X93425000Y-84990200D02*
X94550400Y-84990200D01*
D48*
X112125000Y-93725000D02*
X111675000Y-93275000D01*
D47*
X79725000Y-94817200D02*
X79725000Y-94070532D01*
D48*
X109954000Y-95055850D02*
X110298150Y-95400000D01*
D47*
X71450000Y-91000000D02*
X70975000Y-90525000D01*
X94550400Y-84990200D02*
X94875000Y-84665600D01*
X93800000Y-105590200D02*
X93800000Y-105715250D01*
D48*
X111675000Y-93275000D02*
X110242750Y-93275000D01*
D47*
%TO.N,/XTAL_P*%
X94575000Y-93450000D02*
X94575000Y-93909400D01*
X96525000Y-92950000D02*
X97126000Y-92349000D01*
X97126000Y-90849000D02*
X95781900Y-89504900D01*
X94125000Y-89504900D02*
X95570100Y-89504900D01*
X95075000Y-92950000D02*
X94575000Y-93450000D01*
X97126000Y-92349000D02*
X97126000Y-90849000D01*
X95781900Y-89504900D02*
X94125000Y-89504900D01*
X95570100Y-89504900D02*
X95925000Y-89150000D01*
%TO.N,/XTAL_N*%
X95925000Y-94600000D02*
X94300000Y-96225000D01*
X95925000Y-91650000D02*
X95925000Y-94600000D01*
X94300000Y-96225000D02*
X94300000Y-97050000D01*
X95925000Y-91650000D02*
X94525000Y-91650000D01*
X94525000Y-91650000D02*
X94100000Y-92075000D01*
%TO.N,/SD1*%
X88049900Y-106300100D02*
X88049900Y-116525000D01*
X89500000Y-104850000D02*
X88049900Y-106300100D01*
%TO.N,/SCK*%
X97000000Y-97750000D02*
X101600000Y-97750000D01*
X101600000Y-97750000D02*
X101625000Y-97775000D01*
%TO.N,/BUSY*%
X97000000Y-100250000D02*
X98799211Y-100250000D01*
X98799211Y-100250000D02*
X100099211Y-101550000D01*
X100099211Y-101550000D02*
X100500000Y-101550000D01*
%TO.N,/D{slash}C#*%
X97000000Y-99250000D02*
X99745168Y-99250000D01*
X99745168Y-99250000D02*
X100095364Y-99600196D01*
%TO.N,/SDIO*%
X97000000Y-98250000D02*
X101007917Y-98250000D01*
X101007917Y-98250000D02*
X101226739Y-98468822D01*
%TO.N,/CS*%
X100376542Y-98750000D02*
X100661051Y-99034509D01*
X97000000Y-98750000D02*
X100376542Y-98750000D01*
%TO.N,/RES#*%
X97000000Y-99750000D02*
X99149154Y-99750000D01*
X99149154Y-99750000D02*
X99687680Y-100288526D01*
%TO.N,+5V*%
X93425000Y-83900000D02*
X95576000Y-81749000D01*
X101725000Y-82350000D02*
X103320100Y-82350000D01*
D49*
X74050000Y-92600000D02*
X74550000Y-92100000D01*
X93425000Y-83325000D02*
X93425000Y-83900000D01*
X70975000Y-93300000D02*
X72275000Y-93300000D01*
D46*
X78118272Y-101445978D02*
X82325000Y-97239250D01*
D49*
X75076190Y-93263500D02*
X75923810Y-93263500D01*
D46*
X76745978Y-101445978D02*
X78118272Y-101445978D01*
D47*
X92800000Y-84525000D02*
X93425000Y-83900000D01*
D49*
X74550000Y-92737310D02*
X75076190Y-93263500D01*
X76745978Y-97544749D02*
X76745978Y-101575251D01*
X76450000Y-92737310D02*
X76450000Y-92100000D01*
D47*
X96775000Y-86160000D02*
X93485000Y-86160000D01*
D49*
X70975000Y-95675000D02*
X70975000Y-93300000D01*
X92275000Y-82500000D02*
X92600000Y-82500000D01*
X74437500Y-99137500D02*
X70975000Y-95675000D01*
X72975000Y-92600000D02*
X74050000Y-92600000D01*
X72275000Y-93300000D02*
X72975000Y-92600000D01*
D47*
X103320100Y-82350000D02*
X103575000Y-82604900D01*
D49*
X75923810Y-93263500D02*
X76450000Y-92737310D01*
D47*
X93485000Y-86160000D02*
X92800000Y-85475000D01*
D49*
X76745978Y-101575251D02*
X76745978Y-101445978D01*
X76745978Y-101445978D02*
X74437500Y-99137500D01*
X92600000Y-82500000D02*
X93425000Y-83325000D01*
D47*
X101124000Y-81749000D02*
X101725000Y-82350000D01*
X95576000Y-81749000D02*
X101124000Y-81749000D01*
X92800000Y-85475000D02*
X92800000Y-84525000D01*
D46*
X76631592Y-101445978D02*
X76745978Y-101445978D01*
D49*
X74550000Y-92100000D02*
X74550000Y-92737310D01*
D46*
X82325000Y-97239250D02*
X82325000Y-96750000D01*
D47*
%TO.N,/D+*%
X97501958Y-96003000D02*
X96231200Y-96003000D01*
X95800000Y-96434200D02*
X95800000Y-97050000D01*
X96231200Y-96003000D02*
X95800000Y-96434200D01*
X98424479Y-96925521D02*
X97501958Y-96003000D01*
%TO.N,/D-*%
X96712714Y-96637286D02*
X96300000Y-97050000D01*
X97287714Y-96637286D02*
X96712714Y-96637286D01*
%TO.N,Net-(AE1-Pad1)*%
X74825000Y-87325000D02*
X73200000Y-85700000D01*
X81575000Y-86950000D02*
X81200000Y-87325000D01*
X82200000Y-86950000D02*
X81575000Y-86950000D01*
X81200000Y-87325000D02*
X74825000Y-87325000D01*
%TO.N,Net-(U2-PROG)*%
X95055000Y-83620000D02*
X94875000Y-83800000D01*
X96775000Y-83620000D02*
X95055000Y-83620000D01*
D48*
%TO.N,/BOOT*%
X97269695Y-103830305D02*
X96650000Y-104450000D01*
X93742420Y-107925000D02*
X93675000Y-107992420D01*
X75625000Y-106875000D02*
X75650000Y-106900000D01*
X93675000Y-107992420D02*
X93675000Y-108000000D01*
X75625000Y-106850000D02*
X75625000Y-106875000D01*
D47*
X95800000Y-101950000D02*
X95800000Y-103600000D01*
X95800000Y-103600000D02*
X96650000Y-104450000D01*
D48*
%TO.N,EN*%
X90507800Y-100750000D02*
X89732800Y-101525000D01*
X88000000Y-101801405D02*
X85980541Y-103820864D01*
X92100000Y-100750000D02*
X90507800Y-100750000D01*
X78675000Y-108975000D02*
X78675000Y-107825000D01*
X75625000Y-110600000D02*
X75625000Y-110625000D01*
X78675000Y-107825000D02*
X79025000Y-107475000D01*
X85980541Y-103820864D02*
X85479136Y-103820864D01*
D47*
%TO.N,/SPI1*%
X89375000Y-87650000D02*
X91205000Y-85820000D01*
X91026020Y-101250000D02*
X90876020Y-101400000D01*
X91205000Y-85820000D02*
X91205000Y-83387500D01*
X92100000Y-101250000D02*
X91026020Y-101250000D01*
%TO.N,/SPI7*%
X89935000Y-96115000D02*
X89935000Y-90562500D01*
X91550000Y-99250000D02*
X91200000Y-98900000D01*
X92100000Y-99250000D02*
X91550000Y-99250000D01*
X89900000Y-96150000D02*
X89935000Y-96115000D01*
%TO.N,/SPI6*%
X93875000Y-103384620D02*
X94300000Y-102959620D01*
X88800000Y-83522500D02*
X88665000Y-83387500D01*
X88800000Y-85025000D02*
X88800000Y-83522500D01*
X94300000Y-102959620D02*
X94300000Y-101950000D01*
%TO.N,/MOSI*%
X109712115Y-112279215D02*
X110725000Y-113292100D01*
X86300000Y-92582209D02*
X87395000Y-91487209D01*
X111708900Y-114276000D02*
X110725000Y-113292100D01*
X106236116Y-107957512D02*
X109712115Y-111433511D01*
X110725000Y-113292100D02*
X110716450Y-113283550D01*
X88775000Y-103900000D02*
X86950100Y-105724900D01*
X92250158Y-103415640D02*
X91287830Y-103415640D01*
X87395000Y-91487209D02*
X87395000Y-90562500D01*
X93300000Y-101950000D02*
X93300000Y-102365798D01*
X109712115Y-111433511D02*
X109712115Y-112279215D01*
X86950100Y-109075000D02*
X86950100Y-116525000D01*
X86950100Y-105724900D02*
X86950100Y-109075000D01*
X93300000Y-102365798D02*
X92250158Y-103415640D01*
X113637500Y-114100000D02*
X113461500Y-114276000D01*
X113461500Y-114276000D02*
X111708900Y-114276000D01*
X91287830Y-103415640D02*
X90273595Y-102401405D01*
%TO.N,/MISO*%
X109111115Y-112245315D02*
X111666800Y-114801000D01*
X84150000Y-114425000D02*
X82550100Y-116024900D01*
X94800000Y-103450000D02*
X94800000Y-101950000D01*
X92500000Y-106075000D02*
X92500000Y-106050000D01*
X105670429Y-108523199D02*
X109111115Y-111963885D01*
X113870324Y-114801000D02*
X114137500Y-114533824D01*
X89900000Y-84875000D02*
X89900000Y-84700000D01*
X82550100Y-116024900D02*
X82550100Y-116525000D01*
X109111115Y-111963885D02*
X109111115Y-112245315D01*
X89925000Y-84675000D02*
X89925000Y-83397500D01*
X88775000Y-109800000D02*
X92500000Y-106075000D01*
X114137500Y-114533824D02*
X114137500Y-114100000D01*
X89925000Y-83397500D02*
X89935000Y-83387500D01*
X111666800Y-114801000D02*
X113870324Y-114801000D01*
X94650000Y-103600000D02*
X94800000Y-103450000D01*
X89900000Y-84700000D02*
X89925000Y-84675000D01*
%TO.N,/CLK*%
X110342797Y-112342797D02*
X111325000Y-113325000D01*
X90950000Y-99750000D02*
X90800000Y-99600000D01*
X92100000Y-99750000D02*
X90950000Y-99750000D01*
X88665000Y-91385000D02*
X88665000Y-90562500D01*
X86975000Y-98150000D02*
X84750000Y-100375000D01*
X84750000Y-100375000D02*
X84750000Y-109050000D01*
X84750000Y-109050000D02*
X84750000Y-116525000D01*
X89300000Y-95582209D02*
X87533896Y-93816104D01*
X111325000Y-113325000D02*
X112850000Y-113325000D01*
X110342797Y-110932818D02*
X110342797Y-112342797D01*
X87533896Y-93816104D02*
X87533896Y-92516104D01*
X87533896Y-92516104D02*
X88665000Y-91385000D01*
X106801803Y-107391825D02*
X110342797Y-110932818D01*
%TO.N,/SEL1*%
X97350000Y-102625000D02*
X96675000Y-101950000D01*
X102900000Y-100900000D02*
X102900000Y-94700000D01*
X108575000Y-89025000D02*
X110625000Y-89025000D01*
X114900000Y-88375000D02*
X114875000Y-88350000D01*
X99275000Y-103625000D02*
X100175000Y-103625000D01*
X102900000Y-94700000D02*
X108575000Y-89025000D01*
X100175000Y-103625000D02*
X102900000Y-100900000D01*
X114875000Y-88350000D02*
X114875000Y-87750000D01*
X112504520Y-89029520D02*
X112509040Y-89025000D01*
X96675000Y-101950000D02*
X96300000Y-101950000D01*
X112509040Y-89025000D02*
X114250000Y-89025000D01*
X114250000Y-89025000D02*
X114900000Y-88375000D01*
%TO.N,Net-(U3-LNA_IN)*%
X82700000Y-86950000D02*
X83634800Y-86950000D01*
X92100000Y-97750000D02*
X92100000Y-95875000D01*
X85284800Y-88600000D02*
X83859800Y-87175000D01*
X83634800Y-86950000D02*
X83859800Y-87175000D01*
X92100000Y-95875000D02*
X92084620Y-95859620D01*
X90575000Y-88900000D02*
X90275000Y-88600000D01*
X90275000Y-88600000D02*
X85284800Y-88600000D01*
D46*
%TO.N,Net-(D1-A)*%
X81459400Y-96750000D02*
X81459400Y-95482800D01*
X81459400Y-95482800D02*
X81892200Y-95050000D01*
D47*
%TO.N,Net-(J1-CC2)*%
X79650000Y-95757800D02*
X79725000Y-95682800D01*
X79650000Y-97075000D02*
X79650000Y-95757800D01*
%TO.N,Net-(J1-CC1)*%
X79075000Y-105092200D02*
X78500000Y-105667200D01*
X79075000Y-103875000D02*
X79075000Y-105092200D01*
D48*
%TO.N,Net-(J2-Pin_1)*%
X109475000Y-84350000D02*
X109475000Y-82450000D01*
X110998100Y-82450000D02*
X111092500Y-82544400D01*
X109475000Y-82450000D02*
X110998100Y-82450000D01*
%TO.N,Net-(U3-GPIO8)*%
X95300000Y-101950000D02*
X95300000Y-104425000D01*
X95300000Y-104425000D02*
X95275000Y-104450000D01*
%TO.N,Net-(U3-GPIO2)*%
X92100000Y-100250000D02*
X89725000Y-100250000D01*
D47*
%TO.N,Net-(U3-XTAL_P)*%
X93800000Y-95550000D02*
X93800000Y-97050000D01*
X94575000Y-94775000D02*
X93800000Y-95550000D01*
%TO.N,/BAT*%
X105600000Y-80900000D02*
X108023100Y-80900000D01*
D48*
X104550000Y-82160900D02*
X105316500Y-81394400D01*
X105592500Y-82419400D02*
X105316500Y-82143400D01*
D49*
X102735000Y-86160000D02*
X101725000Y-86160000D01*
D48*
X102699999Y-86160000D02*
X104550000Y-84309999D01*
D47*
X105367500Y-81394400D02*
X105367500Y-81132500D01*
D48*
X101725000Y-86160000D02*
X102699999Y-86160000D01*
X105316500Y-82143400D02*
X105316500Y-81394400D01*
D47*
X105367500Y-81132500D02*
X105600000Y-80900000D01*
X108023100Y-80900000D02*
X108167500Y-81044400D01*
D48*
X104550000Y-84309999D02*
X104550000Y-82160900D01*
D47*
%TO.N,Net-(U5-FB)*%
X105896300Y-84350000D02*
X105592500Y-84653800D01*
X107200000Y-84350000D02*
X105896300Y-84350000D01*
X106657500Y-84350000D02*
X105592500Y-83285000D01*
X107200000Y-84350000D02*
X106657500Y-84350000D01*
%TO.N,Net-(U5-SW)*%
X107200000Y-82450000D02*
X106923100Y-82450000D01*
X106923100Y-82450000D02*
X105867500Y-81394400D01*
D48*
%TO.N,Net-(C15-Pad2)*%
X111150000Y-101725000D02*
X110575000Y-102300000D01*
X110575000Y-102300000D02*
X110575000Y-103129900D01*
X112125000Y-103225000D02*
X110670100Y-103225000D01*
X112125000Y-101725000D02*
X111150000Y-101725000D01*
X112125000Y-103725000D02*
X112125000Y-103225000D01*
X110670100Y-103225000D02*
X110575000Y-103129900D01*
D47*
%TO.N,Net-(C19-Pad1)*%
X111223000Y-95725000D02*
X111146000Y-95648000D01*
X112125000Y-95725000D02*
X111223000Y-95725000D01*
X111146000Y-95648000D02*
X111146000Y-94880800D01*
X111146000Y-94880800D02*
X110575000Y-94309800D01*
D48*
%TO.N,+3.3V*%
X89238975Y-102286025D02*
X91452950Y-104500000D01*
X96650000Y-105315600D02*
X97039250Y-105315600D01*
X102325000Y-100837190D02*
X102325000Y-98289800D01*
X112850000Y-111825000D02*
X112850000Y-111332966D01*
X100418595Y-102743595D02*
X102325000Y-100837190D01*
D50*
X82745000Y-90300000D02*
X80325000Y-90300000D01*
D48*
X112864800Y-87750000D02*
X114009400Y-87750000D01*
X88867200Y-101914250D02*
X89238975Y-102286025D01*
D47*
X113027000Y-97725000D02*
X113076000Y-97676000D01*
D48*
X92350000Y-91425000D02*
X92875000Y-90900000D01*
X99235751Y-102743595D02*
X100418595Y-102743595D01*
X98094200Y-105315600D02*
X98500000Y-104909800D01*
X112850000Y-111332966D02*
X113907966Y-110275000D01*
X94885750Y-105315600D02*
X95275000Y-105315600D01*
X85850000Y-115325100D02*
X85850000Y-116525000D01*
D47*
X113076000Y-97676000D02*
X113076000Y-95274000D01*
D50*
X89625000Y-98250000D02*
X89625000Y-97180000D01*
D47*
X93800000Y-101950000D02*
X93800000Y-102538966D01*
D48*
X108900000Y-87750000D02*
X112864800Y-87750000D01*
X95275000Y-105315600D02*
X96650000Y-105315600D01*
X114129900Y-110275000D02*
X111850947Y-110275000D01*
X86350100Y-114825000D02*
X85850000Y-115325100D01*
X104853546Y-103277599D02*
X104853546Y-101746454D01*
X97000000Y-101250000D02*
X98500000Y-102750000D01*
X99229346Y-102750000D02*
X99235751Y-102743595D01*
X105794900Y-94775754D02*
X112820654Y-87750000D01*
X98500000Y-102750000D02*
X98500000Y-104454900D01*
X92350000Y-94550000D02*
X92350000Y-91425000D01*
X88859400Y-99165600D02*
X88859400Y-100250000D01*
X88867200Y-101525000D02*
X88867200Y-101914250D01*
X94070150Y-104500000D02*
X94885750Y-105315600D01*
X88859400Y-100250000D02*
X88859400Y-101517200D01*
X89625000Y-97400000D02*
X92350000Y-94675000D01*
X92800000Y-97050000D02*
X93300000Y-97050000D01*
X98500000Y-104909800D02*
X96675000Y-106734800D01*
X93300000Y-97050000D02*
X93300000Y-94675000D01*
D47*
X93224000Y-103924000D02*
X93800000Y-104500000D01*
D48*
X105769900Y-100830100D02*
X105769900Y-94844900D01*
X114637500Y-111037500D02*
X114129900Y-110529900D01*
X92100000Y-98250000D02*
X89625000Y-98250000D01*
X89625000Y-98400000D02*
X88859400Y-99165600D01*
X98500000Y-104454900D02*
X98500000Y-103479346D01*
X89625000Y-98250000D02*
X89625000Y-98400000D01*
X96650000Y-105315600D02*
X98094200Y-105315600D01*
X98500000Y-104454900D02*
X98500000Y-104909800D01*
X92100000Y-98750000D02*
X92100000Y-98250000D01*
X90375000Y-113375000D02*
X93025000Y-113375000D01*
X92350000Y-94675000D02*
X92350000Y-94550000D01*
X104853546Y-101746454D02*
X105769900Y-100830100D01*
X93025000Y-113375000D02*
X93025000Y-107565600D01*
D47*
X112125000Y-98225000D02*
X110525000Y-98225000D01*
X112125000Y-97725000D02*
X112125000Y-98225000D01*
X93800000Y-102538966D02*
X93224000Y-103114966D01*
D48*
X89625000Y-98250000D02*
X89625000Y-97400000D01*
D50*
X89625000Y-97180000D02*
X82745000Y-90300000D01*
D48*
X98500000Y-102750000D02*
X99229346Y-102750000D01*
D49*
X74159800Y-89434800D02*
X74550000Y-89825000D01*
D48*
X112820654Y-87750000D02*
X112864800Y-87750000D01*
X91452950Y-104500000D02*
X93800000Y-104500000D01*
D50*
X75813500Y-88561500D02*
X74550000Y-89825000D01*
D48*
X92875000Y-90900000D02*
X91542500Y-90900000D01*
X93025000Y-107565600D02*
X95275000Y-105315600D01*
X114129900Y-110529900D02*
X114129900Y-110275000D01*
D50*
X80325000Y-90300000D02*
X78586500Y-88561500D01*
D48*
X91542500Y-90900000D02*
X91205000Y-90562500D01*
D47*
X93800000Y-104459800D02*
X93725000Y-104534800D01*
X112125000Y-97725000D02*
X113027000Y-97725000D01*
X93224000Y-103114966D02*
X93224000Y-103924000D01*
X110525000Y-98225000D02*
X110475000Y-98175000D01*
D49*
X70975000Y-89434800D02*
X74159800Y-89434800D01*
D48*
X93800000Y-104500000D02*
X94070150Y-104500000D01*
X92350000Y-94675000D02*
X93300000Y-94675000D01*
X102325000Y-94325000D02*
X108900000Y-87750000D01*
X102325000Y-98289800D02*
X102325000Y-94325000D01*
X88859400Y-101517200D02*
X88867200Y-101525000D01*
X114637500Y-111550000D02*
X114637500Y-111037500D01*
D47*
X113076000Y-95274000D02*
X113027000Y-95225000D01*
D48*
X111850947Y-110275000D02*
X104853546Y-103277599D01*
D47*
X113027000Y-95225000D02*
X112125000Y-95225000D01*
D48*
X113907966Y-110275000D02*
X114129900Y-110275000D01*
D50*
X78586500Y-88561500D02*
X75813500Y-88561500D01*
D47*
%TO.N,/INT1*%
X104001546Y-107200000D02*
X104001546Y-104025000D01*
X104001546Y-108269946D02*
X104001546Y-107200000D01*
X104001546Y-101393544D02*
X104750000Y-100645090D01*
X104750000Y-100645090D02*
X104750000Y-99275000D01*
X104750000Y-96892904D02*
X104321476Y-96464380D01*
X101527000Y-95602000D02*
X96065100Y-95602000D01*
X104001546Y-104025000D02*
X104001546Y-101393544D01*
X115921324Y-112825000D02*
X116188500Y-113092176D01*
X115425000Y-112825000D02*
X115921324Y-112825000D01*
X110878300Y-115146700D02*
X108653300Y-112921700D01*
X96065100Y-95602000D02*
X95300000Y-96367100D01*
X111334600Y-115603000D02*
X110878300Y-115146700D01*
X95300000Y-96367100D02*
X95300000Y-97050000D01*
X116188500Y-114686500D02*
X115850000Y-115025000D01*
X108653300Y-112921700D02*
X104001546Y-108269946D01*
X116188500Y-113092176D02*
X116188500Y-114686500D01*
X115850000Y-115025000D02*
X115272000Y-115603000D01*
X101675000Y-95750000D02*
X101527000Y-95602000D01*
X104750000Y-99275000D02*
X104750000Y-96892904D01*
X115272000Y-115603000D02*
X111334600Y-115603000D01*
%TO.N,/CS2*%
X94800000Y-96300000D02*
X94800000Y-97050000D01*
X105151000Y-96445238D02*
X105119900Y-96414138D01*
X114036424Y-115202000D02*
X111500700Y-115202000D01*
X114637500Y-114600924D02*
X114036424Y-115202000D01*
X101675000Y-94949997D02*
X96150003Y-94949997D01*
X114637500Y-114100000D02*
X114637500Y-114600924D01*
X111500700Y-115202000D02*
X110911850Y-114613150D01*
X110911850Y-114613150D02*
X104402546Y-108103846D01*
X104402546Y-108103846D02*
X104402546Y-101559644D01*
X105151000Y-100811190D02*
X105151000Y-96445238D01*
X104402546Y-101559644D02*
X105151000Y-100811190D01*
X96150003Y-94949997D02*
X94800000Y-96300000D01*
%TO.N,/SDIO*%
X110474000Y-99548000D02*
X110797000Y-99225000D01*
X110797000Y-99225000D02*
X112125000Y-99225000D01*
%TD*%
%TA.AperFunction,Conductor*%
%TO.N,GND*%
G36*
X118267539Y-80570185D02*
G01*
X118313294Y-80622989D01*
X118324500Y-80674500D01*
X118324500Y-119050500D01*
X118304815Y-119117539D01*
X118252011Y-119163294D01*
X118200500Y-119174500D01*
X70474500Y-119174500D01*
X70407461Y-119154815D01*
X70361706Y-119102011D01*
X70350500Y-119050500D01*
X70350500Y-115627486D01*
X71574500Y-115627486D01*
X71574500Y-115922513D01*
X71604424Y-116149800D01*
X71613007Y-116214993D01*
X71613008Y-116214995D01*
X71689361Y-116499951D01*
X71689364Y-116499961D01*
X71802254Y-116772500D01*
X71802258Y-116772510D01*
X71949761Y-117027993D01*
X72129352Y-117262040D01*
X72129358Y-117262047D01*
X72337952Y-117470641D01*
X72337959Y-117470647D01*
X72572006Y-117650238D01*
X72827489Y-117797741D01*
X72827490Y-117797741D01*
X72827493Y-117797743D01*
X72937608Y-117843354D01*
X73058902Y-117893596D01*
X73100048Y-117910639D01*
X73385007Y-117986993D01*
X73677494Y-118025500D01*
X73677501Y-118025500D01*
X73972499Y-118025500D01*
X73972506Y-118025500D01*
X74264993Y-117986993D01*
X74549952Y-117910639D01*
X74822507Y-117797743D01*
X75077994Y-117650238D01*
X75312042Y-117470646D01*
X75520646Y-117262042D01*
X75570061Y-117197644D01*
X79100100Y-117197644D01*
X79106501Y-117257172D01*
X79106503Y-117257179D01*
X79156745Y-117391886D01*
X79156749Y-117391893D01*
X79242909Y-117506987D01*
X79242912Y-117506990D01*
X79358006Y-117593150D01*
X79358013Y-117593154D01*
X79492720Y-117643396D01*
X79492727Y-117643398D01*
X79552255Y-117649799D01*
X79552272Y-117649800D01*
X80000100Y-117649800D01*
X80000100Y-116649800D01*
X79100100Y-116649800D01*
X79100100Y-117197644D01*
X75570061Y-117197644D01*
X75700238Y-117027994D01*
X75847743Y-116772507D01*
X75898570Y-116649800D01*
X75939501Y-116550985D01*
X75939501Y-116550983D01*
X75960633Y-116499967D01*
X75960635Y-116499961D01*
X75960639Y-116499952D01*
X76036993Y-116214993D01*
X76075500Y-115922506D01*
X76075500Y-115627494D01*
X76074887Y-115622838D01*
X76073834Y-115614835D01*
X76072138Y-115601955D01*
X79100100Y-115601955D01*
X79100100Y-116149800D01*
X80000100Y-116149800D01*
X80000100Y-115149800D01*
X79552255Y-115149800D01*
X79492727Y-115156201D01*
X79492720Y-115156203D01*
X79358013Y-115206445D01*
X79358006Y-115206449D01*
X79242912Y-115292609D01*
X79242909Y-115292612D01*
X79156749Y-115407706D01*
X79156745Y-115407713D01*
X79106503Y-115542420D01*
X79106501Y-115542427D01*
X79100100Y-115601955D01*
X76072138Y-115601955D01*
X76053598Y-115461132D01*
X76036993Y-115335007D01*
X75960639Y-115050048D01*
X75847743Y-114777493D01*
X75844729Y-114772273D01*
X75700238Y-114522006D01*
X75520647Y-114287959D01*
X75520641Y-114287952D01*
X75312047Y-114079358D01*
X75312040Y-114079352D01*
X75077993Y-113899761D01*
X74822510Y-113752258D01*
X74822500Y-113752254D01*
X74549961Y-113639364D01*
X74549954Y-113639362D01*
X74549952Y-113639361D01*
X74264993Y-113563007D01*
X74216113Y-113556571D01*
X73972513Y-113524500D01*
X73972506Y-113524500D01*
X73677494Y-113524500D01*
X73677486Y-113524500D01*
X73403366Y-113560590D01*
X73385007Y-113563007D01*
X73151778Y-113625500D01*
X73100048Y-113639361D01*
X73100038Y-113639364D01*
X72827499Y-113752254D01*
X72827489Y-113752258D01*
X72572006Y-113899761D01*
X72337959Y-114079352D01*
X72337952Y-114079358D01*
X72129358Y-114287952D01*
X72129352Y-114287959D01*
X71949761Y-114522006D01*
X71802258Y-114777489D01*
X71802254Y-114777499D01*
X71689364Y-115050038D01*
X71689361Y-115050048D01*
X71615555Y-115325500D01*
X71613008Y-115335004D01*
X71613006Y-115335015D01*
X71574500Y-115627486D01*
X70350500Y-115627486D01*
X70350500Y-111751290D01*
X70370185Y-111684251D01*
X70422989Y-111638496D01*
X70492147Y-111628552D01*
X70555703Y-111657577D01*
X70580617Y-111687140D01*
X70669927Y-111834877D01*
X70790122Y-111955072D01*
X70935604Y-112043019D01*
X70935603Y-112043019D01*
X71097894Y-112093590D01*
X71097893Y-112093590D01*
X71168408Y-112099998D01*
X71168426Y-112099999D01*
X71675000Y-112099999D01*
X71681581Y-112099999D01*
X71752102Y-112093591D01*
X71752107Y-112093590D01*
X71914396Y-112043018D01*
X72059877Y-111955072D01*
X72180072Y-111834877D01*
X72268019Y-111689395D01*
X72318590Y-111527106D01*
X72325000Y-111456572D01*
X72325000Y-110850000D01*
X71675000Y-110850000D01*
X71675000Y-112099999D01*
X71168426Y-112099999D01*
X71174999Y-112099998D01*
X71175000Y-112099998D01*
X71175000Y-110350000D01*
X71675000Y-110350000D01*
X72324999Y-110350000D01*
X72324999Y-109768475D01*
X75024500Y-109768475D01*
X75024500Y-111431517D01*
X75031308Y-111474500D01*
X75039354Y-111525304D01*
X75096950Y-111638342D01*
X75096952Y-111638344D01*
X75096954Y-111638347D01*
X75186652Y-111728045D01*
X75186654Y-111728046D01*
X75186658Y-111728050D01*
X75287387Y-111779374D01*
X75299698Y-111785647D01*
X75393475Y-111800499D01*
X75393481Y-111800500D01*
X75856518Y-111800499D01*
X75950304Y-111785646D01*
X76063342Y-111728050D01*
X76153050Y-111638342D01*
X76210646Y-111525304D01*
X76210646Y-111525302D01*
X76210647Y-111525301D01*
X76225499Y-111431524D01*
X76225500Y-111431519D01*
X76225499Y-109768482D01*
X76210646Y-109674696D01*
X76153050Y-109561658D01*
X76153046Y-109561654D01*
X76153045Y-109561652D01*
X76063347Y-109471954D01*
X76063344Y-109471952D01*
X76063342Y-109471950D01*
X75986517Y-109432805D01*
X75950301Y-109414352D01*
X75856524Y-109399500D01*
X75393482Y-109399500D01*
X75312519Y-109412323D01*
X75299696Y-109414354D01*
X75186658Y-109471950D01*
X75186657Y-109471951D01*
X75186652Y-109471954D01*
X75096954Y-109561652D01*
X75096951Y-109561657D01*
X75039352Y-109674698D01*
X75024500Y-109768475D01*
X72324999Y-109768475D01*
X72324999Y-109743417D01*
X72318591Y-109672897D01*
X72318590Y-109672892D01*
X72268018Y-109510603D01*
X72180072Y-109365122D01*
X72059877Y-109244927D01*
X71914395Y-109156980D01*
X71914396Y-109156980D01*
X71752105Y-109106409D01*
X71752106Y-109106409D01*
X71681572Y-109100000D01*
X71675000Y-109100000D01*
X71675000Y-110350000D01*
X71175000Y-110350000D01*
X71175000Y-109100000D01*
X71174999Y-109099999D01*
X71168436Y-109100000D01*
X71168417Y-109100001D01*
X71097897Y-109106408D01*
X71097892Y-109106409D01*
X70935603Y-109156981D01*
X70790122Y-109244927D01*
X70669927Y-109365122D01*
X70580617Y-109512859D01*
X70529089Y-109560047D01*
X70460229Y-109571885D01*
X70395901Y-109544616D01*
X70356527Y-109486897D01*
X70350500Y-109448709D01*
X70350500Y-108909108D01*
X78174500Y-108909108D01*
X78174500Y-109040892D01*
X78188192Y-109091993D01*
X78208608Y-109168187D01*
X78231069Y-109207090D01*
X78274500Y-109282314D01*
X78367686Y-109375500D01*
X78481814Y-109441392D01*
X78609108Y-109475500D01*
X78609110Y-109475500D01*
X78740890Y-109475500D01*
X78740892Y-109475500D01*
X78868186Y-109441392D01*
X78913900Y-109414998D01*
X78981799Y-109398526D01*
X79047826Y-109421378D01*
X79091017Y-109476299D01*
X79099900Y-109522386D01*
X79099900Y-109597744D01*
X79106301Y-109657272D01*
X79106303Y-109657279D01*
X79156545Y-109791986D01*
X79156549Y-109791993D01*
X79242709Y-109907087D01*
X79242712Y-109907090D01*
X79357806Y-109993250D01*
X79357813Y-109993254D01*
X79492520Y-110043496D01*
X79492527Y-110043498D01*
X79552055Y-110049899D01*
X79552072Y-110049900D01*
X79749900Y-110049900D01*
X80249900Y-110049900D01*
X80447728Y-110049900D01*
X80447744Y-110049899D01*
X80507272Y-110043498D01*
X80507279Y-110043496D01*
X80641986Y-109993254D01*
X80641993Y-109993250D01*
X80757087Y-109907090D01*
X80757090Y-109907087D01*
X80843250Y-109791993D01*
X80843254Y-109791986D01*
X80893496Y-109657279D01*
X80893498Y-109657272D01*
X80899899Y-109597744D01*
X80899900Y-109597727D01*
X80899900Y-109049900D01*
X80249900Y-109049900D01*
X80249900Y-110049900D01*
X79749900Y-110049900D01*
X79749900Y-108923900D01*
X79769585Y-108856861D01*
X79822389Y-108811106D01*
X79873900Y-108799900D01*
X79999900Y-108799900D01*
X79999900Y-108673900D01*
X80019585Y-108606861D01*
X80072389Y-108561106D01*
X80123900Y-108549900D01*
X80899900Y-108549900D01*
X80899900Y-108124500D01*
X80919585Y-108057461D01*
X80972389Y-108011706D01*
X81023900Y-108000500D01*
X81069750Y-108000500D01*
X81069751Y-108000499D01*
X81084568Y-107997552D01*
X81128229Y-107988868D01*
X81128229Y-107988867D01*
X81128231Y-107988867D01*
X81194552Y-107944552D01*
X81238867Y-107878231D01*
X81238867Y-107878229D01*
X81238868Y-107878229D01*
X81247552Y-107834568D01*
X81250500Y-107819748D01*
X81250500Y-106780252D01*
X81250500Y-106780249D01*
X81250499Y-106780247D01*
X81238868Y-106721770D01*
X81238867Y-106721769D01*
X81194552Y-106655447D01*
X81128230Y-106611132D01*
X81128229Y-106611131D01*
X81069752Y-106599500D01*
X81069748Y-106599500D01*
X79580252Y-106599500D01*
X79580247Y-106599500D01*
X79521770Y-106611131D01*
X79521769Y-106611132D01*
X79455447Y-106655447D01*
X79407176Y-106727691D01*
X79353564Y-106772496D01*
X79304074Y-106782800D01*
X78750000Y-106782800D01*
X78750000Y-106990823D01*
X78730315Y-107057862D01*
X78713682Y-107078504D01*
X78624500Y-107167686D01*
X78558608Y-107281812D01*
X78524500Y-107409108D01*
X78524500Y-107428456D01*
X78504815Y-107495495D01*
X78488181Y-107516137D01*
X78394532Y-107609785D01*
X78394528Y-107609791D01*
X78362188Y-107665806D01*
X78348387Y-107689709D01*
X78348386Y-107689712D01*
X78324500Y-107778856D01*
X78324500Y-108566324D01*
X78304815Y-108633363D01*
X78288181Y-108654005D01*
X78274502Y-108667683D01*
X78274500Y-108667686D01*
X78208608Y-108781812D01*
X78188512Y-108856814D01*
X78174500Y-108909108D01*
X70350500Y-108909108D01*
X70350500Y-108001290D01*
X70370185Y-107934251D01*
X70422989Y-107888496D01*
X70492147Y-107878552D01*
X70555703Y-107907577D01*
X70580617Y-107937140D01*
X70669927Y-108084877D01*
X70790122Y-108205072D01*
X70935604Y-108293019D01*
X70935603Y-108293019D01*
X71097894Y-108343590D01*
X71097893Y-108343590D01*
X71168408Y-108349998D01*
X71168426Y-108349999D01*
X71675000Y-108349999D01*
X71681581Y-108349999D01*
X71752102Y-108343591D01*
X71752107Y-108343590D01*
X71914396Y-108293018D01*
X72059877Y-108205072D01*
X72180072Y-108084877D01*
X72268019Y-107939395D01*
X72318590Y-107777106D01*
X72325000Y-107706572D01*
X72325000Y-107100000D01*
X71675000Y-107100000D01*
X71675000Y-108349999D01*
X71168426Y-108349999D01*
X71174999Y-108349998D01*
X71175000Y-108349998D01*
X71175000Y-106600000D01*
X71675000Y-106600000D01*
X72324999Y-106600000D01*
X72324999Y-106018475D01*
X75024500Y-106018475D01*
X75024500Y-107681517D01*
X75034732Y-107746120D01*
X75039354Y-107775304D01*
X75096950Y-107888342D01*
X75096952Y-107888344D01*
X75096954Y-107888347D01*
X75186652Y-107978045D01*
X75186654Y-107978046D01*
X75186658Y-107978050D01*
X75290586Y-108031004D01*
X75299698Y-108035647D01*
X75393475Y-108050499D01*
X75393481Y-108050500D01*
X75856518Y-108050499D01*
X75950304Y-108035646D01*
X76063342Y-107978050D01*
X76153050Y-107888342D01*
X76210646Y-107775304D01*
X76210646Y-107775302D01*
X76210647Y-107775301D01*
X76225499Y-107681524D01*
X76225500Y-107681519D01*
X76225500Y-106863494D01*
X77730000Y-106863494D01*
X77736401Y-106923022D01*
X77736403Y-106923029D01*
X77786645Y-107057736D01*
X77786649Y-107057743D01*
X77872809Y-107172837D01*
X77872812Y-107172840D01*
X77987906Y-107259000D01*
X77987913Y-107259004D01*
X78122620Y-107309246D01*
X78122627Y-107309248D01*
X78182155Y-107315649D01*
X78182172Y-107315650D01*
X78250000Y-107315650D01*
X78250000Y-106782800D01*
X77730000Y-106782800D01*
X77730000Y-106863494D01*
X76225500Y-106863494D01*
X76225499Y-106018482D01*
X76210646Y-105924696D01*
X76153050Y-105811658D01*
X76153046Y-105811654D01*
X76153045Y-105811652D01*
X76063347Y-105721954D01*
X76063344Y-105721952D01*
X76063342Y-105721950D01*
X75974497Y-105676681D01*
X75950301Y-105664352D01*
X75856524Y-105649500D01*
X75393482Y-105649500D01*
X75312519Y-105662323D01*
X75299696Y-105664354D01*
X75186658Y-105721950D01*
X75186657Y-105721951D01*
X75186652Y-105721954D01*
X75096954Y-105811652D01*
X75096951Y-105811657D01*
X75096950Y-105811658D01*
X75095329Y-105814840D01*
X75039352Y-105924698D01*
X75024500Y-106018475D01*
X72324999Y-106018475D01*
X72324999Y-105993417D01*
X72318591Y-105922897D01*
X72318590Y-105922892D01*
X72268018Y-105760603D01*
X72180072Y-105615122D01*
X72059877Y-105494927D01*
X71914395Y-105406980D01*
X71914396Y-105406980D01*
X71752105Y-105356409D01*
X71752106Y-105356409D01*
X71681572Y-105350000D01*
X71675000Y-105350000D01*
X71675000Y-106600000D01*
X71175000Y-106600000D01*
X71175000Y-105350000D01*
X71174999Y-105349999D01*
X71168436Y-105350000D01*
X71168417Y-105350001D01*
X71097897Y-105356408D01*
X71097892Y-105356409D01*
X70935603Y-105406981D01*
X70790122Y-105494927D01*
X70669927Y-105615122D01*
X70580617Y-105762859D01*
X70529089Y-105810047D01*
X70460229Y-105821885D01*
X70395901Y-105794616D01*
X70356527Y-105736897D01*
X70350500Y-105698709D01*
X70350500Y-103630000D01*
X71775138Y-103630000D01*
X72578012Y-103630000D01*
X72560795Y-103639940D01*
X72504940Y-103695795D01*
X72465444Y-103764204D01*
X72445000Y-103840504D01*
X72445000Y-103919496D01*
X72465444Y-103995796D01*
X72504940Y-104064205D01*
X72560795Y-104120060D01*
X72578012Y-104130000D01*
X71775138Y-104130000D01*
X71783430Y-104171690D01*
X71783430Y-104171692D01*
X71858807Y-104353671D01*
X71858814Y-104353684D01*
X71968248Y-104517462D01*
X71968251Y-104517466D01*
X72107533Y-104656748D01*
X72107537Y-104656751D01*
X72271315Y-104766185D01*
X72271328Y-104766192D01*
X72453306Y-104841569D01*
X72453318Y-104841572D01*
X72646504Y-104879999D01*
X72646508Y-104880000D01*
X72795000Y-104880000D01*
X72795000Y-104180000D01*
X73295000Y-104180000D01*
X73295000Y-104880000D01*
X73443492Y-104880000D01*
X73443495Y-104879999D01*
X73636681Y-104841572D01*
X73636693Y-104841569D01*
X73818671Y-104766192D01*
X73818684Y-104766185D01*
X73982462Y-104656751D01*
X73982466Y-104656748D01*
X74121748Y-104517466D01*
X74121751Y-104517462D01*
X74231185Y-104353684D01*
X74231192Y-104353671D01*
X74306569Y-104171692D01*
X74306569Y-104171690D01*
X74314862Y-104130000D01*
X73511988Y-104130000D01*
X73529205Y-104120060D01*
X73585060Y-104064205D01*
X73624556Y-103995796D01*
X73645000Y-103919496D01*
X73645000Y-103840504D01*
X73624556Y-103764204D01*
X73585060Y-103695795D01*
X73529205Y-103639940D01*
X73511988Y-103630000D01*
X74314862Y-103630000D01*
X74306569Y-103588309D01*
X74306569Y-103588307D01*
X74231192Y-103406328D01*
X74231185Y-103406315D01*
X74121751Y-103242537D01*
X74121748Y-103242533D01*
X73982466Y-103103251D01*
X73982462Y-103103248D01*
X73818684Y-102993814D01*
X73818671Y-102993807D01*
X73636693Y-102918430D01*
X73636681Y-102918427D01*
X73443495Y-102880000D01*
X73295000Y-102880000D01*
X73295000Y-103580000D01*
X72795000Y-103580000D01*
X72795000Y-102880000D01*
X72646504Y-102880000D01*
X72453318Y-102918427D01*
X72453306Y-102918430D01*
X72271328Y-102993807D01*
X72271315Y-102993814D01*
X72107537Y-103103248D01*
X72107533Y-103103251D01*
X71968251Y-103242533D01*
X71968248Y-103242537D01*
X71858814Y-103406315D01*
X71858807Y-103406328D01*
X71783430Y-103588307D01*
X71783430Y-103588309D01*
X71775138Y-103630000D01*
X70350500Y-103630000D01*
X70350500Y-96055683D01*
X70370185Y-95988644D01*
X70422989Y-95942889D01*
X70492147Y-95932945D01*
X70555703Y-95961970D01*
X70572877Y-95980198D01*
X70574502Y-95982316D01*
X76226429Y-101634243D01*
X76251938Y-101671288D01*
X76255969Y-101680300D01*
X76279586Y-101768437D01*
X76345478Y-101882565D01*
X76347241Y-101884328D01*
X76352416Y-101895895D01*
X76356293Y-101924433D01*
X76363086Y-101952431D01*
X76360940Y-101958631D01*
X76361823Y-101965129D01*
X76349656Y-101991233D01*
X76340234Y-102018458D01*
X76332959Y-102027057D01*
X76332307Y-102028458D01*
X76331164Y-102029179D01*
X76326908Y-102034212D01*
X76264485Y-102096635D01*
X76188719Y-102227863D01*
X76154178Y-102356776D01*
X76149500Y-102374234D01*
X76149500Y-102525766D01*
X76156397Y-102551507D01*
X76188719Y-102672136D01*
X76199548Y-102690892D01*
X76264485Y-102803365D01*
X76264486Y-102803366D01*
X76268549Y-102810403D01*
X76266346Y-102811674D01*
X76286959Y-102864983D01*
X76272923Y-102933428D01*
X76224112Y-102983420D01*
X76210845Y-102989866D01*
X76201324Y-102993809D01*
X76201315Y-102993814D01*
X76037537Y-103103248D01*
X76037533Y-103103251D01*
X75898251Y-103242533D01*
X75898248Y-103242537D01*
X75788814Y-103406315D01*
X75788807Y-103406328D01*
X75713430Y-103588307D01*
X75713430Y-103588309D01*
X75705138Y-103630000D01*
X76508012Y-103630000D01*
X76490795Y-103639940D01*
X76434940Y-103695795D01*
X76395444Y-103764204D01*
X76375000Y-103840504D01*
X76375000Y-103919496D01*
X76395444Y-103995796D01*
X76434940Y-104064205D01*
X76490795Y-104120060D01*
X76508012Y-104130000D01*
X75705138Y-104130000D01*
X75713430Y-104171690D01*
X75713430Y-104171692D01*
X75788807Y-104353671D01*
X75788814Y-104353684D01*
X75898248Y-104517462D01*
X75898251Y-104517466D01*
X76037533Y-104656748D01*
X76037537Y-104656751D01*
X76201315Y-104766185D01*
X76201328Y-104766192D01*
X76383306Y-104841569D01*
X76383318Y-104841572D01*
X76576504Y-104879999D01*
X76576508Y-104880000D01*
X76975000Y-104880000D01*
X76975000Y-104180000D01*
X77475000Y-104180000D01*
X77475000Y-104880000D01*
X77873492Y-104880000D01*
X77873495Y-104879999D01*
X78066681Y-104841572D01*
X78066693Y-104841569D01*
X78248671Y-104766192D01*
X78248684Y-104766185D01*
X78412462Y-104656751D01*
X78412466Y-104656748D01*
X78551742Y-104517472D01*
X78554642Y-104513939D01*
X78612386Y-104474602D01*
X78682231Y-104472728D01*
X78742001Y-104508912D01*
X78772720Y-104571666D01*
X78774500Y-104592599D01*
X78774500Y-104916367D01*
X78765855Y-104945807D01*
X78759332Y-104975794D01*
X78755577Y-104980809D01*
X78754815Y-104983406D01*
X78738181Y-105004048D01*
X78594698Y-105147531D01*
X78533375Y-105181016D01*
X78507017Y-105183850D01*
X78210247Y-105183850D01*
X78151770Y-105195481D01*
X78151769Y-105195482D01*
X78085447Y-105239797D01*
X78041132Y-105306119D01*
X78041131Y-105306120D01*
X78029500Y-105364597D01*
X78029500Y-105713393D01*
X78009815Y-105780432D01*
X77979812Y-105812659D01*
X77872809Y-105892762D01*
X77786649Y-106007856D01*
X77786645Y-106007863D01*
X77736403Y-106142570D01*
X77736401Y-106142577D01*
X77730000Y-106202105D01*
X77730000Y-106282800D01*
X79270000Y-106282800D01*
X79270000Y-106202122D01*
X79269999Y-106202105D01*
X79263598Y-106142577D01*
X79263596Y-106142570D01*
X79213354Y-106007863D01*
X79213350Y-106007856D01*
X79127190Y-105892762D01*
X79020188Y-105812659D01*
X79017451Y-105809003D01*
X79013297Y-105807106D01*
X78996705Y-105781288D01*
X78978318Y-105756725D01*
X78977302Y-105751097D01*
X78975523Y-105748328D01*
X78970500Y-105713393D01*
X78970500Y-105673033D01*
X78990185Y-105605994D01*
X79006819Y-105585352D01*
X79138942Y-105453229D01*
X79315460Y-105276711D01*
X79330593Y-105250500D01*
X79355021Y-105208189D01*
X79375500Y-105131762D01*
X79375500Y-104333676D01*
X79395185Y-104266637D01*
X79411819Y-104245995D01*
X79438284Y-104219530D01*
X79475500Y-104182314D01*
X79541392Y-104068186D01*
X79575500Y-103940892D01*
X79575500Y-103809108D01*
X79541392Y-103681814D01*
X79475500Y-103567686D01*
X79382314Y-103474500D01*
X79304904Y-103429807D01*
X79268187Y-103408608D01*
X79204539Y-103391554D01*
X79140892Y-103374500D01*
X79009108Y-103374500D01*
X78881811Y-103408608D01*
X78824287Y-103441820D01*
X78756386Y-103458291D01*
X78690360Y-103435439D01*
X78659186Y-103403323D01*
X78551751Y-103242537D01*
X78551748Y-103242533D01*
X78412466Y-103103251D01*
X78412462Y-103103248D01*
X78248684Y-102993814D01*
X78248671Y-102993807D01*
X78066693Y-102918430D01*
X78066681Y-102918427D01*
X77873495Y-102880000D01*
X77475000Y-102880000D01*
X77475000Y-103580000D01*
X76975000Y-103580000D01*
X76975000Y-103041784D01*
X76994685Y-102974745D01*
X77037000Y-102934397D01*
X77078365Y-102910515D01*
X77185515Y-102803365D01*
X77186372Y-102801879D01*
X77206721Y-102766637D01*
X77261279Y-102672138D01*
X77261281Y-102672135D01*
X77300500Y-102525766D01*
X77300500Y-102374234D01*
X77261281Y-102227865D01*
X77185515Y-102096635D01*
X77147039Y-102058159D01*
X77113554Y-101996836D01*
X77118538Y-101927144D01*
X77160410Y-101871211D01*
X77225874Y-101846794D01*
X77234720Y-101846478D01*
X78170997Y-101846478D01*
X78170999Y-101846478D01*
X78272860Y-101819185D01*
X78364185Y-101766458D01*
X82570910Y-97559731D01*
X82570913Y-97559730D01*
X82645480Y-97485163D01*
X82686912Y-97413401D01*
X82698207Y-97393838D01*
X82725500Y-97291977D01*
X82725500Y-97242427D01*
X82745185Y-97175388D01*
X82746399Y-97173535D01*
X82752400Y-97164552D01*
X82752402Y-97164552D01*
X82796717Y-97098231D01*
X82796717Y-97098230D01*
X82796718Y-97098229D01*
X82808349Y-97039752D01*
X82808350Y-97039750D01*
X82808350Y-96460249D01*
X82808349Y-96460247D01*
X82796718Y-96401770D01*
X82796717Y-96401769D01*
X82752402Y-96335447D01*
X82686080Y-96291132D01*
X82686079Y-96291131D01*
X82627602Y-96279500D01*
X82627598Y-96279500D01*
X82022402Y-96279500D01*
X82022394Y-96279500D01*
X82008086Y-96282346D01*
X81987105Y-96280467D01*
X81966253Y-96283466D01*
X81953002Y-96277414D01*
X81938494Y-96276116D01*
X81921858Y-96263191D01*
X81902697Y-96254441D01*
X81894821Y-96242186D01*
X81883319Y-96233250D01*
X81876311Y-96213383D01*
X81864923Y-96195663D01*
X81861387Y-96171076D01*
X81860077Y-96167360D01*
X81859900Y-96160728D01*
X81859900Y-95999500D01*
X81879585Y-95932461D01*
X81932389Y-95886706D01*
X81983900Y-95875500D01*
X82571470Y-95875500D01*
X82601899Y-95872646D01*
X82601901Y-95872646D01*
X82667621Y-95849649D01*
X82730082Y-95827793D01*
X82839350Y-95747150D01*
X82919993Y-95637882D01*
X82949937Y-95552306D01*
X82964846Y-95509701D01*
X82964846Y-95509699D01*
X82967700Y-95479269D01*
X82967700Y-94620730D01*
X82964846Y-94590300D01*
X82964846Y-94590298D01*
X82928526Y-94486505D01*
X82919993Y-94462118D01*
X82839350Y-94352850D01*
X82730082Y-94272207D01*
X82730080Y-94272206D01*
X82601900Y-94227353D01*
X82571470Y-94224500D01*
X82571466Y-94224500D01*
X81212934Y-94224500D01*
X81212930Y-94224500D01*
X81182500Y-94227353D01*
X81182498Y-94227353D01*
X81054319Y-94272206D01*
X81054317Y-94272207D01*
X80945050Y-94352850D01*
X80864407Y-94462117D01*
X80864406Y-94462119D01*
X80819553Y-94590298D01*
X80819553Y-94590300D01*
X80816700Y-94620730D01*
X80816700Y-95479269D01*
X80819553Y-95509699D01*
X80819553Y-95509701D01*
X80864406Y-95637880D01*
X80864407Y-95637882D01*
X80945050Y-95747150D01*
X81008535Y-95794004D01*
X81050784Y-95849649D01*
X81058900Y-95893772D01*
X81058900Y-96257571D01*
X81039215Y-96324610D01*
X81038002Y-96326462D01*
X80987682Y-96401769D01*
X80987681Y-96401770D01*
X80976050Y-96460247D01*
X80976050Y-97039752D01*
X80987681Y-97098229D01*
X80987682Y-97098230D01*
X81031997Y-97164552D01*
X81098319Y-97208867D01*
X81098320Y-97208868D01*
X81156797Y-97220499D01*
X81156800Y-97220500D01*
X81477995Y-97220500D01*
X81545034Y-97240185D01*
X81590789Y-97292989D01*
X81600733Y-97362147D01*
X81571708Y-97425703D01*
X81565676Y-97432181D01*
X77988698Y-101009159D01*
X77927375Y-101042644D01*
X77901017Y-101045478D01*
X77370478Y-101045478D01*
X77303439Y-101025793D01*
X77257684Y-100972989D01*
X77246478Y-100921478D01*
X77246478Y-97478859D01*
X77246478Y-97478857D01*
X77212370Y-97351563D01*
X77146478Y-97237435D01*
X77146473Y-97237430D01*
X77141531Y-97230989D01*
X77142589Y-97230176D01*
X77113157Y-97176276D01*
X77118141Y-97106584D01*
X77146641Y-97062238D01*
X77185515Y-97023365D01*
X77261281Y-96892135D01*
X77300500Y-96745766D01*
X77300500Y-96594234D01*
X77261281Y-96447865D01*
X77185515Y-96316635D01*
X77078365Y-96209485D01*
X77054425Y-96195663D01*
X77036998Y-96185601D01*
X76988784Y-96135033D01*
X76975000Y-96078215D01*
X76975000Y-95540000D01*
X77475000Y-95540000D01*
X77475000Y-96240000D01*
X77873492Y-96240000D01*
X77873495Y-96239999D01*
X78066681Y-96201572D01*
X78066693Y-96201569D01*
X78248671Y-96126192D01*
X78248684Y-96126185D01*
X78412462Y-96016751D01*
X78412466Y-96016748D01*
X78551748Y-95877466D01*
X78551751Y-95877462D01*
X78661185Y-95713684D01*
X78661192Y-95713671D01*
X78736569Y-95531693D01*
X78736572Y-95531681D01*
X78771643Y-95355370D01*
X78804027Y-95293459D01*
X78864743Y-95258885D01*
X78934513Y-95262624D01*
X78991185Y-95303490D01*
X79009442Y-95336229D01*
X79011644Y-95342134D01*
X79011649Y-95342143D01*
X79097809Y-95457237D01*
X79097812Y-95457240D01*
X79204811Y-95537340D01*
X79246682Y-95593273D01*
X79254500Y-95636606D01*
X79254500Y-95985402D01*
X79266131Y-96043879D01*
X79266132Y-96043880D01*
X79310448Y-96110203D01*
X79313181Y-96112936D01*
X79346666Y-96174259D01*
X79349500Y-96200617D01*
X79349500Y-96616323D01*
X79329815Y-96683362D01*
X79313182Y-96704004D01*
X79249500Y-96767686D01*
X79183608Y-96881812D01*
X79158543Y-96975358D01*
X79149500Y-97009108D01*
X79149500Y-97140892D01*
X79162716Y-97190216D01*
X79183608Y-97268187D01*
X79202949Y-97301686D01*
X79249500Y-97382314D01*
X79342686Y-97475500D01*
X79456814Y-97541392D01*
X79584108Y-97575500D01*
X79584110Y-97575500D01*
X79715890Y-97575500D01*
X79715892Y-97575500D01*
X79843186Y-97541392D01*
X79957314Y-97475500D01*
X80050500Y-97382314D01*
X80116392Y-97268186D01*
X80150500Y-97140892D01*
X80150500Y-97009108D01*
X80116392Y-96881814D01*
X80050500Y-96767686D01*
X79986818Y-96704004D01*
X79953334Y-96642680D01*
X79950500Y-96616323D01*
X79950500Y-96280694D01*
X79970185Y-96213655D01*
X80022989Y-96167900D01*
X80050307Y-96159076D01*
X80073231Y-96154517D01*
X80139552Y-96110202D01*
X80183867Y-96043881D01*
X80183867Y-96043879D01*
X80183868Y-96043879D01*
X80195499Y-95985402D01*
X80195500Y-95985400D01*
X80195500Y-95636606D01*
X80215185Y-95569567D01*
X80245189Y-95537340D01*
X80352187Y-95457240D01*
X80352190Y-95457237D01*
X80438350Y-95342143D01*
X80438354Y-95342136D01*
X80488596Y-95207429D01*
X80488598Y-95207422D01*
X80494999Y-95147894D01*
X80495000Y-95147877D01*
X80495000Y-95067200D01*
X78953691Y-95067200D01*
X78895250Y-95099110D01*
X78825559Y-95094124D01*
X78769626Y-95052252D01*
X78747276Y-95002133D01*
X78736570Y-94948310D01*
X78736569Y-94948306D01*
X78661192Y-94766328D01*
X78661185Y-94766315D01*
X78551751Y-94602537D01*
X78551748Y-94602533D01*
X78435720Y-94486505D01*
X78955000Y-94486505D01*
X78955000Y-94567200D01*
X79475000Y-94567200D01*
X79975000Y-94567200D01*
X80495000Y-94567200D01*
X80495000Y-94486522D01*
X80494999Y-94486505D01*
X80488598Y-94426977D01*
X80488596Y-94426970D01*
X80438354Y-94292263D01*
X80438350Y-94292256D01*
X80352190Y-94177162D01*
X80352187Y-94177159D01*
X80237093Y-94090999D01*
X80237086Y-94090995D01*
X80102379Y-94040753D01*
X80102372Y-94040751D01*
X80042844Y-94034350D01*
X79975000Y-94034350D01*
X79975000Y-94567200D01*
X79475000Y-94567200D01*
X79475000Y-94034350D01*
X79407155Y-94034350D01*
X79347627Y-94040751D01*
X79347620Y-94040753D01*
X79212913Y-94090995D01*
X79212906Y-94090999D01*
X79097812Y-94177159D01*
X79097809Y-94177162D01*
X79011649Y-94292256D01*
X79011645Y-94292263D01*
X78961403Y-94426970D01*
X78961401Y-94426977D01*
X78955000Y-94486505D01*
X78435720Y-94486505D01*
X78412466Y-94463251D01*
X78412462Y-94463248D01*
X78248684Y-94353814D01*
X78248671Y-94353807D01*
X78066693Y-94278430D01*
X78066681Y-94278427D01*
X77873495Y-94240000D01*
X77475000Y-94240000D01*
X77475000Y-94940000D01*
X76975000Y-94940000D01*
X76975000Y-94240000D01*
X76576504Y-94240000D01*
X76383318Y-94278427D01*
X76383306Y-94278430D01*
X76201328Y-94353807D01*
X76201315Y-94353814D01*
X76037537Y-94463248D01*
X76037533Y-94463251D01*
X75898251Y-94602533D01*
X75898248Y-94602537D01*
X75788814Y-94766315D01*
X75788807Y-94766328D01*
X75713430Y-94948307D01*
X75713430Y-94948309D01*
X75705138Y-94990000D01*
X76508012Y-94990000D01*
X76490795Y-94999940D01*
X76434940Y-95055795D01*
X76395444Y-95124204D01*
X76375000Y-95200504D01*
X76375000Y-95279496D01*
X76395444Y-95355796D01*
X76434940Y-95424205D01*
X76490795Y-95480060D01*
X76508012Y-95490000D01*
X75705138Y-95490000D01*
X75713430Y-95531690D01*
X75713430Y-95531692D01*
X75788807Y-95713671D01*
X75788814Y-95713684D01*
X75898248Y-95877462D01*
X75898251Y-95877466D01*
X76037533Y-96016748D01*
X76037537Y-96016751D01*
X76201315Y-96126185D01*
X76201328Y-96126192D01*
X76210838Y-96130131D01*
X76265243Y-96173970D01*
X76287310Y-96240264D01*
X76270033Y-96307963D01*
X76266350Y-96313405D01*
X76188719Y-96447863D01*
X76166638Y-96530272D01*
X76149500Y-96594234D01*
X76149500Y-96745766D01*
X76156447Y-96771693D01*
X76188719Y-96892136D01*
X76219010Y-96944600D01*
X76264485Y-97023365D01*
X76264487Y-97023367D01*
X76326907Y-97085787D01*
X76360392Y-97147110D01*
X76355408Y-97216802D01*
X76346613Y-97235468D01*
X76279587Y-97351559D01*
X76279587Y-97351560D01*
X76279587Y-97351561D01*
X76279586Y-97351563D01*
X76245478Y-97478857D01*
X76245478Y-99938302D01*
X76225793Y-100005341D01*
X76172989Y-100051096D01*
X76103831Y-100061040D01*
X76040275Y-100032015D01*
X76033797Y-100025983D01*
X72437863Y-96430049D01*
X72404378Y-96368726D01*
X72409362Y-96299034D01*
X72451234Y-96243101D01*
X72516698Y-96218684D01*
X72549735Y-96220751D01*
X72646504Y-96239999D01*
X72646508Y-96240000D01*
X72795000Y-96240000D01*
X72795000Y-95540000D01*
X73295000Y-95540000D01*
X73295000Y-96240000D01*
X73443492Y-96240000D01*
X73443495Y-96239999D01*
X73636681Y-96201572D01*
X73636693Y-96201569D01*
X73818671Y-96126192D01*
X73818684Y-96126185D01*
X73982462Y-96016751D01*
X73982466Y-96016748D01*
X74121748Y-95877466D01*
X74121751Y-95877462D01*
X74231185Y-95713684D01*
X74231192Y-95713671D01*
X74306569Y-95531692D01*
X74306569Y-95531690D01*
X74314862Y-95490000D01*
X73511988Y-95490000D01*
X73529205Y-95480060D01*
X73585060Y-95424205D01*
X73624556Y-95355796D01*
X73645000Y-95279496D01*
X73645000Y-95200504D01*
X73624556Y-95124204D01*
X73585060Y-95055795D01*
X73529205Y-94999940D01*
X73511988Y-94990000D01*
X74314862Y-94990000D01*
X74306569Y-94948309D01*
X74306569Y-94948307D01*
X74231192Y-94766328D01*
X74231185Y-94766315D01*
X74121751Y-94602537D01*
X74121748Y-94602533D01*
X73982466Y-94463251D01*
X73982462Y-94463248D01*
X73818684Y-94353814D01*
X73818671Y-94353807D01*
X73636693Y-94278430D01*
X73636681Y-94278427D01*
X73443495Y-94240000D01*
X73295000Y-94240000D01*
X73295000Y-94940000D01*
X72795000Y-94940000D01*
X72795000Y-94240000D01*
X72646504Y-94240000D01*
X72453318Y-94278427D01*
X72453306Y-94278430D01*
X72271328Y-94353807D01*
X72271315Y-94353814D01*
X72107537Y-94463248D01*
X72107533Y-94463251D01*
X71968251Y-94602533D01*
X71968248Y-94602537D01*
X71858814Y-94766315D01*
X71858807Y-94766328D01*
X71783430Y-94948307D01*
X71783430Y-94948309D01*
X71775138Y-94990000D01*
X72578012Y-94990000D01*
X72560795Y-94999940D01*
X72504940Y-95055795D01*
X72465444Y-95124204D01*
X72445000Y-95200504D01*
X72445000Y-95279496D01*
X72465444Y-95355796D01*
X72504940Y-95424205D01*
X72560795Y-95480060D01*
X72578012Y-95490000D01*
X71775136Y-95490000D01*
X71737930Y-95535335D01*
X71735740Y-95533538D01*
X71715146Y-95560043D01*
X71649253Y-95583279D01*
X71581258Y-95567202D01*
X71554951Y-95547137D01*
X71511819Y-95504005D01*
X71478334Y-95442682D01*
X71475500Y-95416324D01*
X71475500Y-93924500D01*
X71495185Y-93857461D01*
X71547989Y-93811706D01*
X71599500Y-93800500D01*
X72340890Y-93800500D01*
X72340892Y-93800500D01*
X72468186Y-93766392D01*
X72582314Y-93700500D01*
X73145995Y-93136819D01*
X73207318Y-93103334D01*
X73233676Y-93100500D01*
X74115889Y-93100500D01*
X74115892Y-93100500D01*
X74117306Y-93100121D01*
X74118545Y-93100150D01*
X74123949Y-93099439D01*
X74124059Y-93100281D01*
X74187153Y-93101778D01*
X74237088Y-93132212D01*
X74768876Y-93664000D01*
X74883004Y-93729892D01*
X75010298Y-93764000D01*
X75010300Y-93764000D01*
X75989700Y-93764000D01*
X75989702Y-93764000D01*
X76116996Y-93729892D01*
X76231124Y-93664000D01*
X76850500Y-93044624D01*
X76916392Y-92930496D01*
X76950500Y-92803202D01*
X76950500Y-92674986D01*
X80517201Y-92674986D01*
X80527694Y-92777697D01*
X80582841Y-92944119D01*
X80582843Y-92944124D01*
X80674884Y-93093345D01*
X80798854Y-93217315D01*
X80948075Y-93309356D01*
X80948080Y-93309358D01*
X81114502Y-93364505D01*
X81114509Y-93364506D01*
X81217219Y-93374999D01*
X81642199Y-93374999D01*
X82142200Y-93374999D01*
X82567172Y-93374999D01*
X82567186Y-93374998D01*
X82669897Y-93364505D01*
X82836319Y-93309358D01*
X82836324Y-93309356D01*
X82985545Y-93217315D01*
X83109515Y-93093345D01*
X83201556Y-92944124D01*
X83201558Y-92944119D01*
X83256705Y-92777697D01*
X83256706Y-92777690D01*
X83267199Y-92674986D01*
X83267200Y-92674973D01*
X83267200Y-92500000D01*
X82142200Y-92500000D01*
X82142200Y-93374999D01*
X81642199Y-93374999D01*
X81642200Y-93374998D01*
X81642200Y-92500000D01*
X80517201Y-92500000D01*
X80517201Y-92674986D01*
X76950500Y-92674986D01*
X76950500Y-92671418D01*
X76950500Y-92034108D01*
X76950500Y-92034107D01*
X76950500Y-91554240D01*
X76940573Y-91486107D01*
X76889198Y-91381017D01*
X76889196Y-91381015D01*
X76889196Y-91381014D01*
X76806485Y-91298303D01*
X76701391Y-91246926D01*
X76633261Y-91237000D01*
X76633260Y-91237000D01*
X76268033Y-91237000D01*
X76200994Y-91217315D01*
X76170051Y-91188997D01*
X76167679Y-91185939D01*
X76051561Y-91069821D01*
X76051552Y-91069814D01*
X75910196Y-90986217D01*
X75910193Y-90986216D01*
X75752494Y-90940400D01*
X75752497Y-90940400D01*
X75750000Y-90940203D01*
X75750000Y-91976000D01*
X75730315Y-92043039D01*
X75677511Y-92088794D01*
X75626000Y-92100000D01*
X75374000Y-92100000D01*
X75306961Y-92080315D01*
X75261206Y-92027511D01*
X75250000Y-91976000D01*
X75250000Y-90940203D01*
X75247503Y-90940400D01*
X75089806Y-90986216D01*
X75089803Y-90986217D01*
X74948447Y-91069814D01*
X74948442Y-91069818D01*
X74832316Y-91185945D01*
X74829944Y-91189004D01*
X74827475Y-91190786D01*
X74826802Y-91191460D01*
X74826693Y-91191351D01*
X74773300Y-91229909D01*
X74731967Y-91237000D01*
X74366739Y-91237000D01*
X74298608Y-91246926D01*
X74193514Y-91298303D01*
X74110803Y-91381014D01*
X74059426Y-91486108D01*
X74049500Y-91554239D01*
X74049500Y-91841324D01*
X74040855Y-91870764D01*
X74034332Y-91900751D01*
X74030577Y-91905766D01*
X74029815Y-91908363D01*
X74013181Y-91929005D01*
X73879005Y-92063181D01*
X73817682Y-92096666D01*
X73791324Y-92099500D01*
X72909107Y-92099500D01*
X72781812Y-92133608D01*
X72667686Y-92199500D01*
X72667683Y-92199502D01*
X72104005Y-92763181D01*
X72077077Y-92777884D01*
X72051259Y-92794477D01*
X72045058Y-92795368D01*
X72042682Y-92796666D01*
X72016324Y-92799500D01*
X71867261Y-92799500D01*
X71800222Y-92779815D01*
X71754467Y-92727011D01*
X71743972Y-92662241D01*
X71744999Y-92652686D01*
X71745000Y-92652677D01*
X71745000Y-92459800D01*
X71099000Y-92459800D01*
X71031961Y-92440115D01*
X70986206Y-92387311D01*
X70975000Y-92335800D01*
X70975000Y-92209800D01*
X70849000Y-92209800D01*
X70781961Y-92190115D01*
X70736206Y-92137311D01*
X70725000Y-92085800D01*
X70725000Y-91959800D01*
X71225000Y-91959800D01*
X71745000Y-91959800D01*
X71745000Y-91766922D01*
X71744999Y-91766905D01*
X71738598Y-91707377D01*
X71738596Y-91707370D01*
X71688354Y-91572663D01*
X71688350Y-91572656D01*
X71602190Y-91457562D01*
X71599709Y-91455081D01*
X71598027Y-91452001D01*
X71596875Y-91450462D01*
X71597096Y-91450296D01*
X71566224Y-91393758D01*
X71571208Y-91324066D01*
X71599709Y-91279719D01*
X71602190Y-91277237D01*
X71688350Y-91162143D01*
X71688354Y-91162136D01*
X71738596Y-91027429D01*
X71738598Y-91027422D01*
X71744999Y-90967894D01*
X71745000Y-90967877D01*
X71745000Y-90775000D01*
X71225000Y-90775000D01*
X71225000Y-91959800D01*
X70725000Y-91959800D01*
X70725000Y-90649000D01*
X70744685Y-90581961D01*
X70797489Y-90536206D01*
X70849000Y-90525000D01*
X70975000Y-90525000D01*
X70975000Y-90399000D01*
X70994685Y-90331961D01*
X71047489Y-90286206D01*
X71099000Y-90275000D01*
X71745000Y-90275000D01*
X71745000Y-90082122D01*
X71744999Y-90082113D01*
X71743972Y-90072559D01*
X71756375Y-90003799D01*
X71803984Y-89952660D01*
X71867261Y-89935300D01*
X73862722Y-89935300D01*
X73929761Y-89954985D01*
X73974863Y-90006381D01*
X73979615Y-90016452D01*
X73990423Y-90056785D01*
X74035452Y-90134777D01*
X74037641Y-90139415D01*
X74040903Y-90160251D01*
X74049500Y-90192334D01*
X74049500Y-90370760D01*
X74059426Y-90438891D01*
X74110803Y-90543985D01*
X74193514Y-90626696D01*
X74193515Y-90626696D01*
X74193517Y-90626698D01*
X74298607Y-90678073D01*
X74331778Y-90682906D01*
X74366739Y-90688000D01*
X74366740Y-90688000D01*
X74733261Y-90688000D01*
X74768222Y-90682906D01*
X74801393Y-90678073D01*
X74906483Y-90626698D01*
X74989198Y-90543983D01*
X75040573Y-90438893D01*
X75050500Y-90370760D01*
X75050500Y-90225096D01*
X75070185Y-90158057D01*
X75086815Y-90137419D01*
X75737819Y-89486414D01*
X75799142Y-89452930D01*
X75868834Y-89457914D01*
X75924767Y-89499786D01*
X75949184Y-89565250D01*
X75949500Y-89574096D01*
X75949500Y-90370760D01*
X75959426Y-90438891D01*
X76010803Y-90543985D01*
X76093514Y-90626696D01*
X76093515Y-90626696D01*
X76093517Y-90626698D01*
X76198607Y-90678073D01*
X76231778Y-90682906D01*
X76266739Y-90688000D01*
X76266740Y-90688000D01*
X76633261Y-90688000D01*
X76668222Y-90682906D01*
X76701393Y-90678073D01*
X76806483Y-90626698D01*
X76889198Y-90543983D01*
X76940573Y-90438893D01*
X76950500Y-90370760D01*
X76950500Y-89286000D01*
X76970185Y-89218961D01*
X77022989Y-89173206D01*
X77074500Y-89162000D01*
X78286403Y-89162000D01*
X78353442Y-89181685D01*
X78374084Y-89198319D01*
X79840139Y-90664374D01*
X79840149Y-90664385D01*
X79844479Y-90668715D01*
X79844480Y-90668716D01*
X79956284Y-90780520D01*
X80006373Y-90809438D01*
X80043095Y-90830639D01*
X80043097Y-90830641D01*
X80093213Y-90859576D01*
X80093215Y-90859577D01*
X80245942Y-90900500D01*
X80245943Y-90900500D01*
X81055244Y-90900500D01*
X81122283Y-90920185D01*
X81168038Y-90972989D01*
X81177982Y-91042147D01*
X81148957Y-91105703D01*
X81094248Y-91142206D01*
X80948080Y-91190641D01*
X80948075Y-91190643D01*
X80798854Y-91282684D01*
X80674884Y-91406654D01*
X80582843Y-91555875D01*
X80582841Y-91555880D01*
X80527694Y-91722302D01*
X80527693Y-91722309D01*
X80517200Y-91825013D01*
X80517200Y-92000000D01*
X83267199Y-92000000D01*
X83267199Y-91970796D01*
X83286884Y-91903757D01*
X83339688Y-91858002D01*
X83408846Y-91848058D01*
X83472402Y-91877083D01*
X83478880Y-91883115D01*
X88864084Y-97268319D01*
X88897569Y-97329642D01*
X88892585Y-97399334D01*
X88850713Y-97455267D01*
X88785249Y-97479684D01*
X88785111Y-97479688D01*
X88784800Y-97480000D01*
X88784800Y-98126000D01*
X88765115Y-98193039D01*
X88712311Y-98238794D01*
X88660800Y-98250000D01*
X88408800Y-98250000D01*
X88341761Y-98230315D01*
X88296006Y-98177511D01*
X88284800Y-98126000D01*
X88284800Y-97480000D01*
X88091905Y-97480000D01*
X88032377Y-97486401D01*
X88032370Y-97486403D01*
X87897663Y-97536645D01*
X87897656Y-97536649D01*
X87782562Y-97622809D01*
X87782559Y-97622812D01*
X87696399Y-97737906D01*
X87696395Y-97737913D01*
X87646152Y-97872621D01*
X87644418Y-97879963D01*
X87609844Y-97940679D01*
X87547933Y-97973064D01*
X87478342Y-97966837D01*
X87423164Y-97923975D01*
X87416354Y-97913447D01*
X87385791Y-97860511D01*
X87375500Y-97842686D01*
X87282314Y-97749500D01*
X87175177Y-97687644D01*
X87168187Y-97683608D01*
X87086050Y-97661600D01*
X87040892Y-97649500D01*
X86909108Y-97649500D01*
X86781812Y-97683608D01*
X86667686Y-97749500D01*
X86667683Y-97749502D01*
X86574502Y-97842683D01*
X86574500Y-97842686D01*
X86508608Y-97956812D01*
X86474500Y-98084108D01*
X86474500Y-98174166D01*
X86454815Y-98241205D01*
X86438181Y-98261847D01*
X84565489Y-100134540D01*
X84509541Y-100190487D01*
X84509535Y-100190495D01*
X84469982Y-100259004D01*
X84469979Y-100259009D01*
X84449500Y-100335439D01*
X84449500Y-108591323D01*
X84429815Y-108658362D01*
X84413182Y-108679004D01*
X84349500Y-108742686D01*
X84283608Y-108856812D01*
X84256691Y-108957272D01*
X84249500Y-108984108D01*
X84249500Y-109115892D01*
X84256199Y-109140892D01*
X84283608Y-109243187D01*
X84312515Y-109293254D01*
X84349500Y-109357314D01*
X84349502Y-109357316D01*
X84413181Y-109420995D01*
X84446666Y-109482318D01*
X84449500Y-109508676D01*
X84449500Y-113825495D01*
X84429815Y-113892534D01*
X84377011Y-113938289D01*
X84307853Y-113948233D01*
X84293407Y-113945270D01*
X84215892Y-113924500D01*
X84084108Y-113924500D01*
X83956812Y-113958608D01*
X83842686Y-114024500D01*
X83842683Y-114024502D01*
X83749502Y-114117683D01*
X83749500Y-114117686D01*
X83683608Y-114231812D01*
X83649500Y-114359108D01*
X83649500Y-114449166D01*
X83629815Y-114516205D01*
X83613181Y-114536847D01*
X82736848Y-115413181D01*
X82675525Y-115446666D01*
X82649167Y-115449500D01*
X82230347Y-115449500D01*
X82171870Y-115461131D01*
X82171869Y-115461132D01*
X82105546Y-115505448D01*
X82103151Y-115509034D01*
X82049539Y-115553838D01*
X81980214Y-115562545D01*
X81917186Y-115532390D01*
X81896949Y-115509034D01*
X81894553Y-115505448D01*
X81828230Y-115461132D01*
X81828229Y-115461131D01*
X81769752Y-115449500D01*
X81769748Y-115449500D01*
X81436806Y-115449500D01*
X81369767Y-115429815D01*
X81337540Y-115399811D01*
X81257290Y-115292612D01*
X81257287Y-115292609D01*
X81142193Y-115206449D01*
X81142186Y-115206445D01*
X81007479Y-115156203D01*
X81007472Y-115156201D01*
X80947944Y-115149800D01*
X80500100Y-115149800D01*
X80500100Y-117649800D01*
X80947928Y-117649800D01*
X80947944Y-117649799D01*
X81007476Y-117643398D01*
X81101529Y-117608318D01*
X81144863Y-117600500D01*
X81769750Y-117600500D01*
X81769751Y-117600499D01*
X81784568Y-117597552D01*
X81828229Y-117588868D01*
X81828229Y-117588867D01*
X81828231Y-117588867D01*
X81894552Y-117544552D01*
X81896946Y-117540968D01*
X81950557Y-117496162D01*
X82019882Y-117487453D01*
X82082910Y-117517607D01*
X82103154Y-117540969D01*
X82105548Y-117544552D01*
X82171869Y-117588867D01*
X82171870Y-117588868D01*
X82230347Y-117600499D01*
X82230350Y-117600500D01*
X82813344Y-117600500D01*
X82880383Y-117620185D01*
X82912610Y-117650189D01*
X82992709Y-117757187D01*
X82992712Y-117757190D01*
X83107806Y-117843350D01*
X83107813Y-117843354D01*
X83242520Y-117893596D01*
X83242527Y-117893598D01*
X83302055Y-117899999D01*
X83302072Y-117900000D01*
X83399900Y-117900000D01*
X83399900Y-116649000D01*
X83419585Y-116581961D01*
X83472389Y-116536206D01*
X83523900Y-116525000D01*
X83775900Y-116525000D01*
X83842939Y-116544685D01*
X83888694Y-116597489D01*
X83899900Y-116649000D01*
X83899900Y-117900000D01*
X83997728Y-117900000D01*
X83997744Y-117899999D01*
X84057272Y-117893598D01*
X84057279Y-117893596D01*
X84191986Y-117843354D01*
X84191993Y-117843350D01*
X84307087Y-117757190D01*
X84307090Y-117757187D01*
X84387190Y-117650189D01*
X84443123Y-117608318D01*
X84486456Y-117600500D01*
X85069750Y-117600500D01*
X85069751Y-117600499D01*
X85084568Y-117597552D01*
X85128229Y-117588868D01*
X85128229Y-117588867D01*
X85128231Y-117588867D01*
X85194552Y-117544552D01*
X85196897Y-117541043D01*
X85250508Y-117496237D01*
X85319833Y-117487528D01*
X85382861Y-117517682D01*
X85403103Y-117541043D01*
X85405447Y-117544552D01*
X85471769Y-117588867D01*
X85471770Y-117588868D01*
X85530247Y-117600499D01*
X85530250Y-117600500D01*
X85530252Y-117600500D01*
X86169750Y-117600500D01*
X86169751Y-117600499D01*
X86184568Y-117597552D01*
X86228229Y-117588868D01*
X86228229Y-117588867D01*
X86228231Y-117588867D01*
X86294552Y-117544552D01*
X86296946Y-117540968D01*
X86350557Y-117496162D01*
X86419882Y-117487453D01*
X86482910Y-117517607D01*
X86503154Y-117540969D01*
X86505548Y-117544552D01*
X86571869Y-117588867D01*
X86571870Y-117588868D01*
X86630347Y-117600499D01*
X86630350Y-117600500D01*
X86630352Y-117600500D01*
X87269850Y-117600500D01*
X87269851Y-117600499D01*
X87284668Y-117597552D01*
X87328329Y-117588868D01*
X87328329Y-117588867D01*
X87328331Y-117588867D01*
X87394652Y-117544552D01*
X87396897Y-117541191D01*
X87450509Y-117496386D01*
X87519834Y-117487679D01*
X87582862Y-117517833D01*
X87603103Y-117541192D01*
X87605348Y-117544552D01*
X87671669Y-117588867D01*
X87671670Y-117588868D01*
X87730147Y-117600499D01*
X87730150Y-117600500D01*
X87730152Y-117600500D01*
X88369650Y-117600500D01*
X88369651Y-117600499D01*
X88384468Y-117597552D01*
X88428129Y-117588868D01*
X88428129Y-117588867D01*
X88428131Y-117588867D01*
X88494452Y-117544552D01*
X88496846Y-117540968D01*
X88550457Y-117496162D01*
X88619782Y-117487453D01*
X88682810Y-117517607D01*
X88703054Y-117540969D01*
X88705448Y-117544552D01*
X88771769Y-117588867D01*
X88771770Y-117588868D01*
X88830247Y-117600499D01*
X88830250Y-117600500D01*
X88830252Y-117600500D01*
X89469750Y-117600500D01*
X89469751Y-117600499D01*
X89484568Y-117597552D01*
X89528229Y-117588868D01*
X89528229Y-117588867D01*
X89528231Y-117588867D01*
X89594552Y-117544552D01*
X89638867Y-117478231D01*
X89638867Y-117478229D01*
X89638868Y-117478229D01*
X89650499Y-117419752D01*
X89650500Y-117419750D01*
X89650500Y-117197644D01*
X90350100Y-117197644D01*
X90356501Y-117257172D01*
X90356503Y-117257179D01*
X90406745Y-117391886D01*
X90406749Y-117391893D01*
X90492909Y-117506987D01*
X90492912Y-117506990D01*
X90608006Y-117593150D01*
X90608013Y-117593154D01*
X90742720Y-117643396D01*
X90742727Y-117643398D01*
X90802255Y-117649799D01*
X90802272Y-117649800D01*
X91350100Y-117649800D01*
X91850100Y-117649800D01*
X92397928Y-117649800D01*
X92397944Y-117649799D01*
X92457472Y-117643398D01*
X92457479Y-117643396D01*
X92592186Y-117593154D01*
X92592193Y-117593150D01*
X92707287Y-117506990D01*
X92707290Y-117506987D01*
X92793450Y-117391893D01*
X92793454Y-117391886D01*
X92843696Y-117257179D01*
X92843698Y-117257172D01*
X92850099Y-117197644D01*
X92850100Y-117197627D01*
X92850100Y-116649800D01*
X91850100Y-116649800D01*
X91850100Y-117649800D01*
X91350100Y-117649800D01*
X91350100Y-116649800D01*
X90350100Y-116649800D01*
X90350100Y-117197644D01*
X89650500Y-117197644D01*
X89650500Y-115630250D01*
X89649026Y-115622840D01*
X89649026Y-115622838D01*
X89644872Y-115601955D01*
X90350100Y-115601955D01*
X90350100Y-116149800D01*
X91350100Y-116149800D01*
X91350100Y-115149800D01*
X91850100Y-115149800D01*
X91850100Y-116149800D01*
X92850100Y-116149800D01*
X92850100Y-115601972D01*
X92850099Y-115601955D01*
X92843697Y-115542422D01*
X92843697Y-115542420D01*
X92822704Y-115486139D01*
X92784438Y-115438651D01*
X92775000Y-115391200D01*
X92775000Y-115360250D01*
X93275000Y-115360250D01*
X93342828Y-115360250D01*
X93342844Y-115360249D01*
X93402372Y-115353848D01*
X93402379Y-115353846D01*
X93537086Y-115303604D01*
X93537093Y-115303600D01*
X93652187Y-115217440D01*
X93652190Y-115217437D01*
X93738350Y-115102343D01*
X93738354Y-115102336D01*
X93788596Y-114967629D01*
X93788598Y-114967622D01*
X93794999Y-114908094D01*
X93795000Y-114908077D01*
X93795000Y-114715200D01*
X93275000Y-114715200D01*
X93275000Y-115360250D01*
X92775000Y-115360250D01*
X92775000Y-114715200D01*
X92255000Y-114715200D01*
X92255000Y-114908094D01*
X92261401Y-114967622D01*
X92261403Y-114967632D01*
X92266937Y-114982468D01*
X92271921Y-115052159D01*
X92238435Y-115113482D01*
X92177112Y-115146966D01*
X92150755Y-115149800D01*
X91850100Y-115149800D01*
X91350100Y-115149800D01*
X90802255Y-115149800D01*
X90742727Y-115156201D01*
X90742720Y-115156203D01*
X90608013Y-115206445D01*
X90608006Y-115206449D01*
X90492912Y-115292609D01*
X90492909Y-115292612D01*
X90406749Y-115407706D01*
X90406745Y-115407713D01*
X90356503Y-115542420D01*
X90356501Y-115542427D01*
X90350100Y-115601955D01*
X89644872Y-115601955D01*
X89638867Y-115571770D01*
X89638867Y-115571769D01*
X89594552Y-115505447D01*
X89528230Y-115461132D01*
X89528229Y-115461131D01*
X89469752Y-115449500D01*
X89469748Y-115449500D01*
X88830252Y-115449500D01*
X88830247Y-115449500D01*
X88771770Y-115461131D01*
X88771769Y-115461132D01*
X88705446Y-115505448D01*
X88703051Y-115509034D01*
X88649439Y-115553838D01*
X88580114Y-115562545D01*
X88525601Y-115539380D01*
X88508628Y-115526664D01*
X88494452Y-115505448D01*
X88428131Y-115461133D01*
X88418638Y-115459244D01*
X88400051Y-115445319D01*
X88388090Y-115429328D01*
X88372541Y-115416797D01*
X88367590Y-115401922D01*
X88358202Y-115389370D01*
X88356784Y-115369451D01*
X88350479Y-115350502D01*
X88350400Y-115346081D01*
X88350400Y-114305247D01*
X98299500Y-114305247D01*
X98299500Y-116844752D01*
X98311131Y-116903229D01*
X98311132Y-116903230D01*
X98355447Y-116969552D01*
X98421769Y-117013867D01*
X98421770Y-117013868D01*
X98480247Y-117025499D01*
X98480250Y-117025500D01*
X98480252Y-117025500D01*
X101019750Y-117025500D01*
X101019751Y-117025499D01*
X101034568Y-117022552D01*
X101078229Y-117013868D01*
X101078229Y-117013867D01*
X101078231Y-117013867D01*
X101144552Y-116969552D01*
X101188867Y-116903231D01*
X101188867Y-116903229D01*
X101188868Y-116903229D01*
X101194912Y-116872844D01*
X104000000Y-116872844D01*
X104006401Y-116932372D01*
X104006403Y-116932379D01*
X104056645Y-117067086D01*
X104056649Y-117067093D01*
X104142809Y-117182187D01*
X104142812Y-117182190D01*
X104257906Y-117268350D01*
X104257913Y-117268354D01*
X104392620Y-117318596D01*
X104392627Y-117318598D01*
X104452155Y-117324999D01*
X104452172Y-117325000D01*
X105500000Y-117325000D01*
X106000000Y-117325000D01*
X107047828Y-117325000D01*
X107047844Y-117324999D01*
X107107372Y-117318598D01*
X107107379Y-117318596D01*
X107242086Y-117268354D01*
X107242093Y-117268350D01*
X107357187Y-117182190D01*
X107357190Y-117182187D01*
X107443350Y-117067093D01*
X107443354Y-117067086D01*
X107493596Y-116932379D01*
X107493598Y-116932372D01*
X107499999Y-116872844D01*
X107500000Y-116872827D01*
X107500000Y-115825000D01*
X106000000Y-115825000D01*
X106000000Y-117325000D01*
X105500000Y-117325000D01*
X105500000Y-115825000D01*
X104000000Y-115825000D01*
X104000000Y-116872844D01*
X101194912Y-116872844D01*
X101200499Y-116844752D01*
X101200500Y-116844750D01*
X101200500Y-114305249D01*
X101200499Y-114305247D01*
X101199066Y-114298038D01*
X101199066Y-114298037D01*
X101194912Y-114277155D01*
X104000000Y-114277155D01*
X104000000Y-115325000D01*
X105500000Y-115325000D01*
X106000000Y-115325000D01*
X107500000Y-115325000D01*
X107500000Y-114277172D01*
X107499999Y-114277155D01*
X107493598Y-114217627D01*
X107493596Y-114217620D01*
X107443354Y-114082913D01*
X107443350Y-114082906D01*
X107357190Y-113967812D01*
X107357187Y-113967809D01*
X107242093Y-113881649D01*
X107242086Y-113881645D01*
X107107379Y-113831403D01*
X107107372Y-113831401D01*
X107047844Y-113825000D01*
X106000000Y-113825000D01*
X106000000Y-115325000D01*
X105500000Y-115325000D01*
X105500000Y-113825000D01*
X104452155Y-113825000D01*
X104392627Y-113831401D01*
X104392620Y-113831403D01*
X104257913Y-113881645D01*
X104257906Y-113881649D01*
X104142812Y-113967809D01*
X104142809Y-113967812D01*
X104056649Y-114082906D01*
X104056645Y-114082913D01*
X104006403Y-114217620D01*
X104006401Y-114217627D01*
X104000000Y-114277155D01*
X101194912Y-114277155D01*
X101188867Y-114246770D01*
X101188867Y-114246769D01*
X101144552Y-114180447D01*
X101078230Y-114136132D01*
X101078229Y-114136131D01*
X101019752Y-114124500D01*
X101019748Y-114124500D01*
X98480252Y-114124500D01*
X98480247Y-114124500D01*
X98421770Y-114136131D01*
X98421769Y-114136132D01*
X98355447Y-114180447D01*
X98311132Y-114246769D01*
X98311131Y-114246770D01*
X98299500Y-114305247D01*
X88350400Y-114305247D01*
X88350400Y-110347559D01*
X88370085Y-110280520D01*
X88422889Y-110234765D01*
X88492047Y-110224821D01*
X88536401Y-110240173D01*
X88581808Y-110266389D01*
X88581809Y-110266389D01*
X88581814Y-110266392D01*
X88709108Y-110300500D01*
X88709110Y-110300500D01*
X88840890Y-110300500D01*
X88840892Y-110300500D01*
X88968186Y-110266392D01*
X89082314Y-110200500D01*
X89175500Y-110107314D01*
X89241392Y-109993186D01*
X89275500Y-109865892D01*
X89275500Y-109775832D01*
X89295185Y-109708793D01*
X89311819Y-109688151D01*
X90102227Y-108897744D01*
X91050100Y-108897744D01*
X91056501Y-108957272D01*
X91056503Y-108957279D01*
X91106745Y-109091986D01*
X91106749Y-109091993D01*
X91192909Y-109207087D01*
X91192912Y-109207090D01*
X91308006Y-109293250D01*
X91308013Y-109293254D01*
X91442720Y-109343496D01*
X91442727Y-109343498D01*
X91502255Y-109349899D01*
X91502272Y-109349900D01*
X91700100Y-109349900D01*
X91700100Y-108399900D01*
X91050100Y-108399900D01*
X91050100Y-108897744D01*
X90102227Y-108897744D01*
X90739114Y-108260857D01*
X91063752Y-107936219D01*
X91125075Y-107902734D01*
X91151433Y-107899900D01*
X91826100Y-107899900D01*
X91893139Y-107919585D01*
X91938894Y-107972389D01*
X91950100Y-108023900D01*
X91950100Y-108149900D01*
X92076100Y-108149900D01*
X92143139Y-108169585D01*
X92188894Y-108222389D01*
X92200100Y-108273900D01*
X92200100Y-109349900D01*
X92397928Y-109349900D01*
X92397944Y-109349899D01*
X92457472Y-109343498D01*
X92457476Y-109343497D01*
X92507166Y-109324964D01*
X92576857Y-109319980D01*
X92638181Y-109353464D01*
X92671666Y-109414787D01*
X92674500Y-109441146D01*
X92674500Y-112726319D01*
X92655192Y-112792768D01*
X92641159Y-112814877D01*
X92610448Y-112835398D01*
X92566133Y-112901719D01*
X92557046Y-112947398D01*
X92544638Y-112966949D01*
X92535074Y-112975331D01*
X92529179Y-112986602D01*
X92509298Y-112997922D01*
X92492094Y-113013002D01*
X92479513Y-113014883D01*
X92468463Y-113021176D01*
X92439946Y-113024500D01*
X90783676Y-113024500D01*
X90716637Y-113004815D01*
X90695995Y-112988181D01*
X90682316Y-112974502D01*
X90682314Y-112974500D01*
X90608735Y-112932019D01*
X90568187Y-112908608D01*
X90504539Y-112891554D01*
X90440892Y-112874500D01*
X90309108Y-112874500D01*
X90181812Y-112908608D01*
X90067686Y-112974500D01*
X90067683Y-112974502D01*
X89974502Y-113067683D01*
X89974500Y-113067686D01*
X89908608Y-113181812D01*
X89897607Y-113222870D01*
X89874500Y-113309108D01*
X89874500Y-113440892D01*
X89884929Y-113479815D01*
X89908608Y-113568187D01*
X89913653Y-113576925D01*
X89974500Y-113682314D01*
X90067686Y-113775500D01*
X90181814Y-113841392D01*
X90309108Y-113875500D01*
X90309110Y-113875500D01*
X90440890Y-113875500D01*
X90440892Y-113875500D01*
X90568186Y-113841392D01*
X90682314Y-113775500D01*
X90695995Y-113761819D01*
X90757318Y-113728334D01*
X90783676Y-113725500D01*
X92171306Y-113725500D01*
X92238345Y-113745185D01*
X92284100Y-113797989D01*
X92294044Y-113867147D01*
X92287488Y-113892833D01*
X92261403Y-113962770D01*
X92261401Y-113962777D01*
X92255000Y-114022305D01*
X92255000Y-114215200D01*
X93795000Y-114215200D01*
X93795000Y-114022322D01*
X93794999Y-114022305D01*
X93788598Y-113962777D01*
X93788596Y-113962770D01*
X93738354Y-113828063D01*
X93738350Y-113828056D01*
X93652190Y-113712962D01*
X93545188Y-113632859D01*
X93503318Y-113576925D01*
X93495500Y-113533593D01*
X93495500Y-112960199D01*
X93495499Y-112960197D01*
X93483868Y-112901720D01*
X93483867Y-112901719D01*
X93439551Y-112835396D01*
X93430605Y-112829418D01*
X93385802Y-112775804D01*
X93375500Y-112726319D01*
X93375500Y-108505008D01*
X93395185Y-108437969D01*
X93447989Y-108392214D01*
X93517147Y-108382270D01*
X93546951Y-108390446D01*
X93549227Y-108391388D01*
X93549234Y-108391392D01*
X93676528Y-108425500D01*
X93676530Y-108425500D01*
X93808310Y-108425500D01*
X93808312Y-108425500D01*
X93935606Y-108391392D01*
X94049734Y-108325500D01*
X94107340Y-108267894D01*
X95905000Y-108267894D01*
X95911401Y-108327422D01*
X95911403Y-108327429D01*
X95961645Y-108462136D01*
X95961649Y-108462143D01*
X96047809Y-108577237D01*
X96047812Y-108577240D01*
X96162906Y-108663400D01*
X96162913Y-108663404D01*
X96297620Y-108713646D01*
X96297627Y-108713648D01*
X96357155Y-108720049D01*
X96357172Y-108720050D01*
X96425000Y-108720050D01*
X96925000Y-108720050D01*
X96992828Y-108720050D01*
X96992844Y-108720049D01*
X97052372Y-108713648D01*
X97052379Y-108713646D01*
X97187086Y-108663404D01*
X97187093Y-108663400D01*
X97302187Y-108577240D01*
X97302190Y-108577237D01*
X97388350Y-108462143D01*
X97388354Y-108462136D01*
X97438596Y-108327429D01*
X97438598Y-108327422D01*
X97444999Y-108267894D01*
X97445000Y-108267877D01*
X97445000Y-108075000D01*
X96925000Y-108075000D01*
X96925000Y-108720050D01*
X96425000Y-108720050D01*
X96425000Y-108075000D01*
X95905000Y-108075000D01*
X95905000Y-108267894D01*
X94107340Y-108267894D01*
X94142920Y-108232314D01*
X94208812Y-108118186D01*
X94242920Y-107990892D01*
X94242920Y-107859108D01*
X94236964Y-107836881D01*
X94236833Y-107821082D01*
X94242246Y-107802062D01*
X94242717Y-107782297D01*
X94252388Y-107766430D01*
X94255960Y-107753881D01*
X94264767Y-107746120D01*
X94273146Y-107732373D01*
X95193701Y-106811820D01*
X95255024Y-106778335D01*
X95281382Y-106775501D01*
X95300728Y-106775501D01*
X95300730Y-106775501D01*
X95428024Y-106741393D01*
X95542152Y-106675501D01*
X95635338Y-106582315D01*
X95701230Y-106468187D01*
X95735338Y-106340893D01*
X95735338Y-106209109D01*
X95701230Y-106081815D01*
X95635338Y-105967687D01*
X95629204Y-105961553D01*
X95595719Y-105900230D01*
X95600703Y-105830538D01*
X95632567Y-105782952D01*
X95639793Y-105776249D01*
X95689552Y-105743002D01*
X95712210Y-105709091D01*
X95722898Y-105699180D01*
X95741650Y-105689838D01*
X95757726Y-105676404D01*
X95776445Y-105672506D01*
X95785438Y-105668027D01*
X95793644Y-105668925D01*
X95807216Y-105666100D01*
X96117784Y-105666100D01*
X96184823Y-105685785D01*
X96220886Y-105721209D01*
X96235447Y-105743002D01*
X96301769Y-105787317D01*
X96301770Y-105787318D01*
X96360247Y-105798949D01*
X96360250Y-105798950D01*
X96815806Y-105798950D01*
X96837051Y-105805188D01*
X96859140Y-105806768D01*
X96869923Y-105814840D01*
X96882845Y-105818635D01*
X96897344Y-105835368D01*
X96915073Y-105848640D01*
X96919780Y-105861260D01*
X96928600Y-105871439D01*
X96931751Y-105893356D01*
X96939490Y-105914104D01*
X96936627Y-105927264D01*
X96938544Y-105940597D01*
X96929344Y-105960740D01*
X96924638Y-105982377D01*
X96911369Y-106000102D01*
X96909519Y-106004153D01*
X96903487Y-106010631D01*
X96811187Y-106102931D01*
X96749864Y-106136416D01*
X96723506Y-106139250D01*
X96385247Y-106139250D01*
X96326770Y-106150881D01*
X96326769Y-106150882D01*
X96260447Y-106195197D01*
X96216132Y-106261519D01*
X96216131Y-106261520D01*
X96204500Y-106319997D01*
X96204500Y-106893393D01*
X96184815Y-106960432D01*
X96154812Y-106992659D01*
X96047809Y-107072762D01*
X95961649Y-107187856D01*
X95961645Y-107187863D01*
X95911403Y-107322570D01*
X95911401Y-107322577D01*
X95905000Y-107382105D01*
X95905000Y-107575000D01*
X97445000Y-107575000D01*
X97445000Y-107382122D01*
X97444999Y-107382105D01*
X97438598Y-107322577D01*
X97438596Y-107322570D01*
X97388354Y-107187863D01*
X97388350Y-107187856D01*
X97302190Y-107072762D01*
X97195188Y-106992659D01*
X97192451Y-106989003D01*
X97188297Y-106987106D01*
X97171705Y-106961288D01*
X97153318Y-106936725D01*
X97152302Y-106931097D01*
X97150523Y-106928328D01*
X97145500Y-106893393D01*
X97145500Y-106811344D01*
X97165185Y-106744305D01*
X97181819Y-106723663D01*
X97980786Y-105924696D01*
X98780470Y-105125012D01*
X98826614Y-105045088D01*
X98845069Y-104976212D01*
X98850500Y-104955944D01*
X98850500Y-104408756D01*
X98850500Y-104172617D01*
X98870185Y-104105578D01*
X98922989Y-104059823D01*
X98992147Y-104049879D01*
X99036499Y-104065229D01*
X99081814Y-104091392D01*
X99209108Y-104125500D01*
X99209110Y-104125500D01*
X99340890Y-104125500D01*
X99340892Y-104125500D01*
X99468186Y-104091392D01*
X99582314Y-104025500D01*
X99645995Y-103961819D01*
X99707318Y-103928334D01*
X99733676Y-103925500D01*
X100214560Y-103925500D01*
X100214562Y-103925500D01*
X100290989Y-103905021D01*
X100359511Y-103865460D01*
X100415460Y-103809511D01*
X103140460Y-101084511D01*
X103140981Y-101083608D01*
X103140982Y-101083607D01*
X103140983Y-101083607D01*
X103140990Y-101083591D01*
X103180021Y-101015989D01*
X103200500Y-100939562D01*
X103200500Y-94875833D01*
X103220185Y-94808794D01*
X103236819Y-94788152D01*
X108663152Y-89361819D01*
X108724475Y-89328334D01*
X108750833Y-89325500D01*
X110166324Y-89325500D01*
X110188580Y-89332035D01*
X110211692Y-89334097D01*
X110224760Y-89342658D01*
X110233363Y-89345185D01*
X110242367Y-89351554D01*
X110248506Y-89356320D01*
X110317686Y-89425500D01*
X110395420Y-89470380D01*
X110402122Y-89475583D01*
X110417801Y-89497314D01*
X110436295Y-89516710D01*
X110437934Y-89525216D01*
X110443004Y-89532243D01*
X110444446Y-89559006D01*
X110449517Y-89585317D01*
X110446297Y-89593358D01*
X110446764Y-89602011D01*
X110433508Y-89625304D01*
X110423549Y-89650181D01*
X110413760Y-89661210D01*
X105579688Y-94495284D01*
X105514431Y-94560540D01*
X105514427Y-94560545D01*
X105468287Y-94640463D01*
X105468286Y-94640466D01*
X105459587Y-94672928D01*
X105447206Y-94702820D01*
X105443288Y-94709607D01*
X105443284Y-94709615D01*
X105419400Y-94798756D01*
X105419400Y-95814633D01*
X105399715Y-95881672D01*
X105346911Y-95927427D01*
X105277753Y-95937371D01*
X105263307Y-95934408D01*
X105256041Y-95932461D01*
X105185792Y-95913638D01*
X105054008Y-95913638D01*
X104926712Y-95947746D01*
X104812586Y-96013638D01*
X104812582Y-96013641D01*
X104780738Y-96045485D01*
X104719414Y-96078970D01*
X104649723Y-96073984D01*
X104631057Y-96065190D01*
X104628792Y-96063882D01*
X104628790Y-96063880D01*
X104514662Y-95997988D01*
X104387368Y-95963880D01*
X104255584Y-95963880D01*
X104128288Y-95997988D01*
X104014162Y-96063880D01*
X104014159Y-96063882D01*
X103920978Y-96157063D01*
X103920976Y-96157066D01*
X103855084Y-96271192D01*
X103820976Y-96398488D01*
X103820976Y-96530271D01*
X103855084Y-96657567D01*
X103869977Y-96683362D01*
X103920976Y-96771694D01*
X104014162Y-96864880D01*
X104128290Y-96930772D01*
X104255584Y-96964880D01*
X104255586Y-96964880D01*
X104325500Y-96964880D01*
X104392539Y-96984565D01*
X104438294Y-97037369D01*
X104449500Y-97088880D01*
X104449500Y-100469257D01*
X104429815Y-100536296D01*
X104413181Y-100556938D01*
X103761087Y-101209031D01*
X103761081Y-101209039D01*
X103721528Y-101277548D01*
X103721525Y-101277553D01*
X103714585Y-101303455D01*
X103701046Y-101353982D01*
X103701046Y-103985438D01*
X103701046Y-107160438D01*
X103701046Y-108309508D01*
X103711896Y-108349999D01*
X103721525Y-108385936D01*
X103744366Y-108425496D01*
X103744367Y-108425500D01*
X103744368Y-108425500D01*
X103761086Y-108454457D01*
X108412840Y-113106211D01*
X110637840Y-115331211D01*
X111150089Y-115843460D01*
X111209429Y-115877720D01*
X111218608Y-115883020D01*
X111218612Y-115883022D01*
X111295038Y-115903500D01*
X111295040Y-115903500D01*
X115311560Y-115903500D01*
X115311562Y-115903500D01*
X115387989Y-115883021D01*
X115456511Y-115843460D01*
X115512460Y-115787511D01*
X116090460Y-115209511D01*
X116428960Y-114871011D01*
X116439006Y-114853610D01*
X116443692Y-114845495D01*
X116468518Y-114802494D01*
X116468520Y-114802491D01*
X116473090Y-114785436D01*
X116489000Y-114726062D01*
X116489000Y-113052614D01*
X116468521Y-112976187D01*
X116463528Y-112967539D01*
X116428964Y-112907671D01*
X116428958Y-112907663D01*
X116343038Y-112821743D01*
X116309553Y-112760420D01*
X116314537Y-112690728D01*
X116316158Y-112686609D01*
X116372699Y-112550105D01*
X116372699Y-112550103D01*
X116382588Y-112475000D01*
X115850801Y-112475000D01*
X115840623Y-112474500D01*
X115009370Y-112474500D01*
X114999211Y-112475000D01*
X114467412Y-112475000D01*
X114477300Y-112550103D01*
X114477301Y-112550108D01*
X114535236Y-112689978D01*
X114627405Y-112810094D01*
X114721745Y-112882484D01*
X114734360Y-112899762D01*
X114750537Y-112913763D01*
X114757914Y-112932019D01*
X114762947Y-112938912D01*
X114765216Y-112945860D01*
X114766789Y-112951209D01*
X114777985Y-113007495D01*
X114787572Y-113021843D01*
X114792914Y-113039999D01*
X114792923Y-113056776D01*
X114797936Y-113072788D01*
X114792941Y-113090991D01*
X114792952Y-113109868D01*
X114783889Y-113123986D01*
X114781982Y-113130938D01*
X114782659Y-113131219D01*
X114780426Y-113136609D01*
X114779450Y-113140168D01*
X114778050Y-113142345D01*
X114777984Y-113142505D01*
X114762000Y-113222863D01*
X114762000Y-113375500D01*
X114742315Y-113442539D01*
X114689511Y-113488294D01*
X114638001Y-113499500D01*
X114535370Y-113499500D01*
X114475367Y-113511434D01*
X114455005Y-113515485D01*
X114455004Y-113515485D01*
X114455001Y-113515486D01*
X114443720Y-113520159D01*
X114443121Y-113518714D01*
X114389704Y-113535436D01*
X114331561Y-113519481D01*
X114331281Y-113520159D01*
X114325883Y-113517923D01*
X114322325Y-113516947D01*
X114320148Y-113515547D01*
X114319994Y-113515484D01*
X114239635Y-113499500D01*
X114035370Y-113499500D01*
X113975367Y-113511434D01*
X113955005Y-113515485D01*
X113955004Y-113515485D01*
X113955001Y-113515486D01*
X113943720Y-113520159D01*
X113943121Y-113518714D01*
X113889704Y-113535436D01*
X113831561Y-113519481D01*
X113831281Y-113520159D01*
X113825883Y-113517923D01*
X113822325Y-113516947D01*
X113820148Y-113515547D01*
X113819994Y-113515484D01*
X113739636Y-113499500D01*
X113636999Y-113499500D01*
X113569960Y-113479815D01*
X113524205Y-113427011D01*
X113512999Y-113375503D01*
X113512999Y-113222868D01*
X113497015Y-113142505D01*
X113497013Y-113142502D01*
X113492341Y-113131222D01*
X113493785Y-113130623D01*
X113477063Y-113077211D01*
X113493017Y-113019056D01*
X113492342Y-113018777D01*
X113494570Y-113013396D01*
X113495549Y-113009831D01*
X113496952Y-113007647D01*
X113497016Y-113007493D01*
X113512999Y-112927136D01*
X113513000Y-112927133D01*
X113512999Y-112722868D01*
X113497015Y-112642505D01*
X113497013Y-112642502D01*
X113492341Y-112631222D01*
X113493785Y-112630623D01*
X113477063Y-112577211D01*
X113493017Y-112519056D01*
X113492342Y-112518777D01*
X113494570Y-112513396D01*
X113495549Y-112509831D01*
X113496952Y-112507647D01*
X113497016Y-112507493D01*
X113512999Y-112427136D01*
X113513000Y-112427133D01*
X113512999Y-112222868D01*
X113497015Y-112142505D01*
X113497013Y-112142502D01*
X113497013Y-112142500D01*
X113496937Y-112142316D01*
X113495311Y-112134142D01*
X113492523Y-112129804D01*
X113487500Y-112094869D01*
X113487500Y-112055131D01*
X113496941Y-112007673D01*
X113497013Y-112007498D01*
X113497015Y-112007495D01*
X113513000Y-111927133D01*
X113512999Y-111722868D01*
X113507410Y-111694772D01*
X113506926Y-111691339D01*
X113511502Y-111660067D01*
X113514319Y-111628599D01*
X113516522Y-111625762D01*
X113517043Y-111622206D01*
X113537800Y-111598371D01*
X113557182Y-111573422D01*
X113560570Y-111572226D01*
X113562930Y-111569517D01*
X113593957Y-111560448D01*
X113623072Y-111550178D01*
X113626404Y-111550965D01*
X113629708Y-111550000D01*
X113663001Y-111550000D01*
X113730040Y-111569685D01*
X113775795Y-111622489D01*
X113787001Y-111674000D01*
X113787001Y-111903142D01*
X113787500Y-111913289D01*
X113787500Y-112445086D01*
X113787501Y-112445087D01*
X113862598Y-112435201D01*
X113862603Y-112435200D01*
X114002478Y-112377263D01*
X114122596Y-112285093D01*
X114194984Y-112190755D01*
X114215097Y-112176068D01*
X114232472Y-112158219D01*
X114246824Y-112152901D01*
X114251412Y-112149552D01*
X114265372Y-112145441D01*
X114267251Y-112145005D01*
X114319995Y-112134515D01*
X114323957Y-112131867D01*
X114339458Y-112128276D01*
X114364505Y-112129728D01*
X114389459Y-112127045D01*
X114398792Y-112131716D01*
X114409210Y-112132321D01*
X114429496Y-112147084D01*
X114451939Y-112158318D01*
X114460673Y-112167316D01*
X114467412Y-112175000D01*
X116382588Y-112175000D01*
X116382588Y-112174999D01*
X116371639Y-112091837D01*
X116374654Y-112091440D01*
X116374654Y-112058559D01*
X116371639Y-112058163D01*
X116382588Y-111975000D01*
X115549000Y-111975000D01*
X115540314Y-111972449D01*
X115531353Y-111973738D01*
X115507312Y-111962759D01*
X115481961Y-111955315D01*
X115476033Y-111948474D01*
X115467797Y-111944713D01*
X115453507Y-111922478D01*
X115436206Y-111902511D01*
X115433918Y-111891996D01*
X115430023Y-111885935D01*
X115425000Y-111851000D01*
X115425000Y-111799000D01*
X115444685Y-111731961D01*
X115497489Y-111686206D01*
X115549000Y-111675000D01*
X116382588Y-111675000D01*
X116382588Y-111674999D01*
X116372699Y-111599896D01*
X116372698Y-111599891D01*
X116314763Y-111460021D01*
X116222594Y-111339905D01*
X116102478Y-111247736D01*
X115962608Y-111189801D01*
X115962604Y-111189800D01*
X115946009Y-111187615D01*
X115882113Y-111159347D01*
X115843643Y-111101021D01*
X115842813Y-111031156D01*
X115879887Y-110971934D01*
X115887887Y-110965409D01*
X115972339Y-110902188D01*
X115972340Y-110902187D01*
X116058500Y-110787093D01*
X116058504Y-110787086D01*
X116108746Y-110652379D01*
X116108748Y-110652372D01*
X116115149Y-110592844D01*
X116115150Y-110592827D01*
X116115150Y-110525000D01*
X115344100Y-110525000D01*
X115277061Y-110505315D01*
X115231306Y-110452511D01*
X115220100Y-110401000D01*
X115220100Y-110275000D01*
X115094100Y-110275000D01*
X115027061Y-110255315D01*
X114981306Y-110202511D01*
X114970100Y-110151000D01*
X114970100Y-110025000D01*
X115470100Y-110025000D01*
X116115150Y-110025000D01*
X116115150Y-109957172D01*
X116115149Y-109957155D01*
X116108748Y-109897627D01*
X116108746Y-109897620D01*
X116058504Y-109762913D01*
X116058500Y-109762906D01*
X115972340Y-109647812D01*
X115972337Y-109647809D01*
X115857243Y-109561649D01*
X115857236Y-109561645D01*
X115722529Y-109511403D01*
X115722522Y-109511401D01*
X115662994Y-109505000D01*
X115470100Y-109505000D01*
X115470100Y-110025000D01*
X114970100Y-110025000D01*
X114970100Y-109505000D01*
X114777205Y-109505000D01*
X114717677Y-109511401D01*
X114717670Y-109511403D01*
X114582963Y-109561645D01*
X114582956Y-109561649D01*
X114467862Y-109647809D01*
X114467859Y-109647812D01*
X114387760Y-109754811D01*
X114331827Y-109796682D01*
X114288494Y-109804500D01*
X113715097Y-109804500D01*
X113656620Y-109816131D01*
X113656619Y-109816132D01*
X113590297Y-109860447D01*
X113584322Y-109869391D01*
X113530709Y-109914196D01*
X113481220Y-109924500D01*
X112047490Y-109924500D01*
X111980451Y-109904815D01*
X111959809Y-109888181D01*
X110144473Y-108072844D01*
X113775000Y-108072844D01*
X113781401Y-108132372D01*
X113781403Y-108132379D01*
X113831645Y-108267086D01*
X113831649Y-108267093D01*
X113917809Y-108382187D01*
X113917812Y-108382190D01*
X114032906Y-108468350D01*
X114032913Y-108468354D01*
X114167620Y-108518596D01*
X114167627Y-108518598D01*
X114227155Y-108524999D01*
X114227172Y-108525000D01*
X115125000Y-108525000D01*
X115625000Y-108525000D01*
X116522828Y-108525000D01*
X116522844Y-108524999D01*
X116582372Y-108518598D01*
X116582379Y-108518596D01*
X116717086Y-108468354D01*
X116717093Y-108468350D01*
X116832187Y-108382190D01*
X116832190Y-108382187D01*
X116918350Y-108267093D01*
X116918354Y-108267086D01*
X116968596Y-108132379D01*
X116968598Y-108132372D01*
X116974999Y-108072844D01*
X116975000Y-108072827D01*
X116975000Y-107375000D01*
X115625000Y-107375000D01*
X115625000Y-108525000D01*
X115125000Y-108525000D01*
X115125000Y-107375000D01*
X113775000Y-107375000D01*
X113775000Y-108072844D01*
X110144473Y-108072844D01*
X109482948Y-107411319D01*
X108248784Y-106177155D01*
X113775000Y-106177155D01*
X113775000Y-106875000D01*
X115125000Y-106875000D01*
X115625000Y-106875000D01*
X116975000Y-106875000D01*
X116975000Y-106177172D01*
X116974999Y-106177155D01*
X116968598Y-106117627D01*
X116968596Y-106117620D01*
X116918354Y-105982913D01*
X116918350Y-105982906D01*
X116832190Y-105867812D01*
X116832187Y-105867809D01*
X116717093Y-105781649D01*
X116717086Y-105781645D01*
X116582379Y-105731403D01*
X116582372Y-105731401D01*
X116522844Y-105725000D01*
X115625000Y-105725000D01*
X115625000Y-106875000D01*
X115125000Y-106875000D01*
X115125000Y-105725000D01*
X114227155Y-105725000D01*
X114167627Y-105731401D01*
X114167620Y-105731403D01*
X114032913Y-105781645D01*
X114032906Y-105781649D01*
X113917812Y-105867809D01*
X113917809Y-105867812D01*
X113831649Y-105982906D01*
X113831645Y-105982913D01*
X113781403Y-106117620D01*
X113781401Y-106117627D01*
X113775000Y-106177155D01*
X108248784Y-106177155D01*
X106734623Y-104662994D01*
X109805000Y-104662994D01*
X109811401Y-104722522D01*
X109811403Y-104722529D01*
X109861645Y-104857236D01*
X109861649Y-104857243D01*
X109947809Y-104972337D01*
X109947812Y-104972340D01*
X110062906Y-105058500D01*
X110062913Y-105058504D01*
X110197620Y-105108746D01*
X110197627Y-105108748D01*
X110257155Y-105115149D01*
X110257172Y-105115150D01*
X110325000Y-105115150D01*
X110325000Y-104470100D01*
X109805000Y-104470100D01*
X109805000Y-104662994D01*
X106734623Y-104662994D01*
X105240365Y-103168736D01*
X105206880Y-103107413D01*
X105204046Y-103081055D01*
X105204046Y-101942996D01*
X105223731Y-101875957D01*
X105240361Y-101855319D01*
X105777621Y-101318058D01*
X105794907Y-101308619D01*
X105809264Y-101295124D01*
X105824947Y-101292216D01*
X105838942Y-101284575D01*
X105858590Y-101285980D01*
X105877964Y-101282389D01*
X105892726Y-101288421D01*
X105908633Y-101289559D01*
X105924405Y-101301366D01*
X105942642Y-101308818D01*
X105957625Y-101326233D01*
X105964567Y-101331430D01*
X105966816Y-101334533D01*
X105969956Y-101339009D01*
X105993010Y-101378940D01*
X106009606Y-101395536D01*
X106015804Y-101404372D01*
X106023677Y-101427654D01*
X106035454Y-101449222D01*
X106034671Y-101460166D01*
X106038186Y-101470560D01*
X106032223Y-101494398D01*
X106030470Y-101518914D01*
X106023300Y-101530070D01*
X106021232Y-101538341D01*
X106013033Y-101546048D01*
X106005610Y-101557599D01*
X106005905Y-101557825D01*
X106003199Y-101561350D01*
X106001976Y-101563255D01*
X106000958Y-101564272D01*
X106000956Y-101564274D01*
X106000956Y-101564275D01*
X105988067Y-101586599D01*
X105935064Y-101678402D01*
X105905039Y-101790459D01*
X105900956Y-101805697D01*
X105900956Y-101937481D01*
X105904527Y-101950808D01*
X105935064Y-102064776D01*
X105953458Y-102096635D01*
X106000956Y-102178903D01*
X106094142Y-102272089D01*
X106208270Y-102337981D01*
X106335564Y-102372089D01*
X106335566Y-102372089D01*
X106467346Y-102372089D01*
X106467348Y-102372089D01*
X106594642Y-102337981D01*
X106708770Y-102272089D01*
X106772451Y-102208408D01*
X106833774Y-102174923D01*
X106860132Y-102172089D01*
X110100500Y-102172089D01*
X110109185Y-102174639D01*
X110118147Y-102173351D01*
X110142187Y-102184329D01*
X110167539Y-102191774D01*
X110173466Y-102198614D01*
X110181703Y-102202376D01*
X110195992Y-102224610D01*
X110213294Y-102244578D01*
X110215581Y-102255092D01*
X110219477Y-102261154D01*
X110224500Y-102296089D01*
X110224500Y-102481219D01*
X110204815Y-102548258D01*
X110169395Y-102584318D01*
X110160448Y-102590296D01*
X110116132Y-102656619D01*
X110116131Y-102656620D01*
X110104500Y-102715097D01*
X110104500Y-103288493D01*
X110084815Y-103355532D01*
X110054812Y-103387759D01*
X109947809Y-103467862D01*
X109861649Y-103582956D01*
X109861645Y-103582963D01*
X109811403Y-103717670D01*
X109811401Y-103717677D01*
X109805000Y-103777205D01*
X109805000Y-103970100D01*
X110451000Y-103970100D01*
X110518039Y-103989785D01*
X110563794Y-104042589D01*
X110575000Y-104094100D01*
X110575000Y-104220100D01*
X110701000Y-104220100D01*
X110768039Y-104239785D01*
X110813794Y-104292589D01*
X110825000Y-104344100D01*
X110825000Y-105115150D01*
X110892828Y-105115150D01*
X110892844Y-105115149D01*
X110952372Y-105108748D01*
X110952379Y-105108746D01*
X111087091Y-105058502D01*
X111091072Y-105056329D01*
X111159345Y-105041476D01*
X111224809Y-105065892D01*
X111266681Y-105121825D01*
X111274500Y-105165160D01*
X111274500Y-105394752D01*
X111286131Y-105453229D01*
X111286132Y-105453230D01*
X111330447Y-105519552D01*
X111396769Y-105563867D01*
X111396770Y-105563868D01*
X111455247Y-105575499D01*
X111455250Y-105575500D01*
X111455252Y-105575500D01*
X112794750Y-105575500D01*
X112794751Y-105575499D01*
X112809568Y-105572552D01*
X112853229Y-105563868D01*
X112853229Y-105563867D01*
X112853231Y-105563867D01*
X112919552Y-105519552D01*
X112963867Y-105453231D01*
X112963867Y-105453229D01*
X112963868Y-105453229D01*
X112975499Y-105394752D01*
X112975500Y-105394750D01*
X112975500Y-105055249D01*
X112964349Y-104999192D01*
X112964349Y-104950808D01*
X112975500Y-104894750D01*
X112975500Y-104555249D01*
X112964349Y-104499192D01*
X112964349Y-104450808D01*
X112975500Y-104394750D01*
X112975500Y-104055249D01*
X112964349Y-103999192D01*
X112964349Y-103950808D01*
X112975500Y-103894750D01*
X112975500Y-103555249D01*
X112964349Y-103499192D01*
X112964349Y-103450808D01*
X112975500Y-103394750D01*
X112975500Y-103055249D01*
X112964349Y-102999192D01*
X112964349Y-102950808D01*
X112975500Y-102894750D01*
X112975500Y-102555249D01*
X112964349Y-102499192D01*
X112964349Y-102450808D01*
X112975500Y-102394750D01*
X112975500Y-102055249D01*
X112964349Y-101999192D01*
X112964349Y-101950808D01*
X112975500Y-101894750D01*
X112975500Y-101555249D01*
X112964349Y-101499192D01*
X112964349Y-101450808D01*
X112975500Y-101394750D01*
X112975500Y-101055249D01*
X112964349Y-100999192D01*
X112964349Y-100950808D01*
X112975500Y-100894750D01*
X112975500Y-100555249D01*
X112964349Y-100499192D01*
X112964349Y-100450808D01*
X112975500Y-100394750D01*
X112975500Y-100055249D01*
X112964349Y-99999192D01*
X112964349Y-99950808D01*
X112975500Y-99894750D01*
X112975500Y-99555249D01*
X112964349Y-99499192D01*
X112964349Y-99450808D01*
X112975500Y-99394750D01*
X112975500Y-99055249D01*
X112964349Y-98999192D01*
X112964349Y-98950808D01*
X112975500Y-98894750D01*
X112975500Y-98555249D01*
X112964349Y-98499192D01*
X112964349Y-98450808D01*
X112975500Y-98394750D01*
X112975500Y-98145048D01*
X112995185Y-98078009D01*
X113047989Y-98032254D01*
X113067396Y-98025276D01*
X113142989Y-98005021D01*
X113211511Y-97965460D01*
X113267460Y-97909511D01*
X113316460Y-97860511D01*
X113327731Y-97840989D01*
X113356021Y-97791989D01*
X113376500Y-97715562D01*
X113376500Y-95234438D01*
X113356021Y-95158011D01*
X113351396Y-95150000D01*
X113316464Y-95089495D01*
X113316458Y-95089487D01*
X113304796Y-95077825D01*
X113271311Y-95016502D01*
X113269188Y-94976887D01*
X113274999Y-94922841D01*
X113275000Y-94922827D01*
X113275000Y-94875000D01*
X112805916Y-94875000D01*
X112795738Y-94874500D01*
X112794748Y-94874500D01*
X112249000Y-94874500D01*
X112240314Y-94871949D01*
X112231353Y-94873238D01*
X112207312Y-94862259D01*
X112181961Y-94854815D01*
X112176033Y-94847974D01*
X112167797Y-94844213D01*
X112153507Y-94821978D01*
X112136206Y-94802011D01*
X112133918Y-94791496D01*
X112130023Y-94785435D01*
X112125000Y-94750500D01*
X112125000Y-94725000D01*
X112099000Y-94725000D01*
X112031961Y-94705315D01*
X111986206Y-94652511D01*
X111975000Y-94601000D01*
X111975000Y-94575000D01*
X112275000Y-94575000D01*
X113275000Y-94575000D01*
X113275000Y-94527179D01*
X113274999Y-94527168D01*
X113270815Y-94488258D01*
X113270815Y-94461742D01*
X113274999Y-94422831D01*
X113275000Y-94422821D01*
X113275000Y-94375000D01*
X112275000Y-94375000D01*
X112275000Y-94575000D01*
X111975000Y-94575000D01*
X111975000Y-94075000D01*
X112275000Y-94075000D01*
X113275000Y-94075000D01*
X113275000Y-94027179D01*
X113274999Y-94027168D01*
X113270815Y-93988258D01*
X113270815Y-93961742D01*
X113274999Y-93922831D01*
X113275000Y-93922821D01*
X113275000Y-93875000D01*
X112275000Y-93875000D01*
X112275000Y-94075000D01*
X111975000Y-94075000D01*
X111975000Y-93575000D01*
X112275000Y-93575000D01*
X113275000Y-93575000D01*
X113275000Y-93527172D01*
X113274999Y-93527155D01*
X113268598Y-93467627D01*
X113268596Y-93467620D01*
X113218354Y-93332913D01*
X113218350Y-93332906D01*
X113132190Y-93217812D01*
X113132187Y-93217809D01*
X113017093Y-93131649D01*
X113017086Y-93131645D01*
X112882379Y-93081403D01*
X112882372Y-93081401D01*
X112822844Y-93075000D01*
X112275000Y-93075000D01*
X112275000Y-93575000D01*
X111975000Y-93575000D01*
X111975000Y-93075000D01*
X111427155Y-93075000D01*
X111367627Y-93081401D01*
X111367620Y-93081403D01*
X111232913Y-93131645D01*
X111232906Y-93131649D01*
X111117812Y-93217809D01*
X111117809Y-93217812D01*
X111031649Y-93332906D01*
X111031645Y-93332913D01*
X110981403Y-93467620D01*
X110981401Y-93467627D01*
X110975000Y-93527155D01*
X110975000Y-93590250D01*
X110955315Y-93657289D01*
X110902511Y-93703044D01*
X110851000Y-93714250D01*
X110285247Y-93714250D01*
X110226770Y-93725881D01*
X110226769Y-93725882D01*
X110160447Y-93770197D01*
X110116132Y-93836519D01*
X110116131Y-93836520D01*
X110104500Y-93894997D01*
X110104500Y-94468393D01*
X110084815Y-94535432D01*
X110054812Y-94567659D01*
X109947809Y-94647762D01*
X109861649Y-94762856D01*
X109861645Y-94762863D01*
X109811403Y-94897570D01*
X109811401Y-94897577D01*
X109805000Y-94957105D01*
X109805000Y-95150000D01*
X110451000Y-95150000D01*
X110518039Y-95169685D01*
X110563794Y-95222489D01*
X110575000Y-95274000D01*
X110575000Y-95400000D01*
X110701000Y-95400000D01*
X110768039Y-95419685D01*
X110813794Y-95472489D01*
X110825000Y-95524000D01*
X110825000Y-96776000D01*
X110805315Y-96843039D01*
X110752511Y-96888794D01*
X110701000Y-96900000D01*
X110575000Y-96900000D01*
X110575000Y-97026000D01*
X110555315Y-97093039D01*
X110502511Y-97138794D01*
X110451000Y-97150000D01*
X109805000Y-97150000D01*
X109805000Y-97342894D01*
X109811401Y-97402422D01*
X109811403Y-97402429D01*
X109837488Y-97472367D01*
X109842472Y-97542059D01*
X109808987Y-97603382D01*
X109747663Y-97636866D01*
X109721306Y-97639700D01*
X109205890Y-97639700D01*
X109138851Y-97620015D01*
X109118209Y-97603381D01*
X107357722Y-95842894D01*
X109805000Y-95842894D01*
X109811401Y-95902422D01*
X109811403Y-95902429D01*
X109861645Y-96037136D01*
X109861649Y-96037143D01*
X109890505Y-96075690D01*
X109914922Y-96141154D01*
X109900070Y-96209427D01*
X109890505Y-96224310D01*
X109861649Y-96262856D01*
X109861645Y-96262863D01*
X109811403Y-96397570D01*
X109811401Y-96397577D01*
X109805000Y-96457105D01*
X109805000Y-96650000D01*
X110325000Y-96650000D01*
X110325000Y-95650000D01*
X109805000Y-95650000D01*
X109805000Y-95842894D01*
X107357722Y-95842894D01*
X106378263Y-94863435D01*
X106344778Y-94802112D01*
X106349762Y-94732420D01*
X106378263Y-94688073D01*
X107746341Y-93319995D01*
X108293492Y-92772844D01*
X113775000Y-92772844D01*
X113781401Y-92832372D01*
X113781403Y-92832379D01*
X113831645Y-92967086D01*
X113831649Y-92967093D01*
X113917809Y-93082187D01*
X113917812Y-93082190D01*
X114032906Y-93168350D01*
X114032913Y-93168354D01*
X114167620Y-93218596D01*
X114167627Y-93218598D01*
X114227155Y-93224999D01*
X114227172Y-93225000D01*
X115125000Y-93225000D01*
X115625000Y-93225000D01*
X116522828Y-93225000D01*
X116522844Y-93224999D01*
X116582372Y-93218598D01*
X116582379Y-93218596D01*
X116717086Y-93168354D01*
X116717093Y-93168350D01*
X116832187Y-93082190D01*
X116832190Y-93082187D01*
X116918350Y-92967093D01*
X116918354Y-92967086D01*
X116968596Y-92832379D01*
X116968598Y-92832372D01*
X116974999Y-92772844D01*
X116975000Y-92772827D01*
X116975000Y-92075000D01*
X115625000Y-92075000D01*
X115625000Y-93225000D01*
X115125000Y-93225000D01*
X115125000Y-92075000D01*
X113775000Y-92075000D01*
X113775000Y-92772844D01*
X108293492Y-92772844D01*
X110189180Y-90877155D01*
X113775000Y-90877155D01*
X113775000Y-91575000D01*
X115125000Y-91575000D01*
X115625000Y-91575000D01*
X116975000Y-91575000D01*
X116975000Y-90877172D01*
X116974999Y-90877155D01*
X116968598Y-90817627D01*
X116968596Y-90817620D01*
X116918354Y-90682913D01*
X116918350Y-90682906D01*
X116832190Y-90567812D01*
X116832187Y-90567809D01*
X116717093Y-90481649D01*
X116717086Y-90481645D01*
X116582379Y-90431403D01*
X116582372Y-90431401D01*
X116522844Y-90425000D01*
X115625000Y-90425000D01*
X115625000Y-91575000D01*
X115125000Y-91575000D01*
X115125000Y-90425000D01*
X114227155Y-90425000D01*
X114167627Y-90431401D01*
X114167620Y-90431403D01*
X114032913Y-90481645D01*
X114032906Y-90481649D01*
X113917812Y-90567809D01*
X113917809Y-90567812D01*
X113831649Y-90682906D01*
X113831645Y-90682913D01*
X113781403Y-90817620D01*
X113781401Y-90817627D01*
X113775000Y-90877155D01*
X110189180Y-90877155D01*
X111852670Y-89213665D01*
X111913991Y-89180182D01*
X111983683Y-89185166D01*
X112039616Y-89227038D01*
X112047736Y-89239348D01*
X112104020Y-89336834D01*
X112197206Y-89430020D01*
X112311334Y-89495912D01*
X112438628Y-89530020D01*
X112438630Y-89530020D01*
X112570410Y-89530020D01*
X112570412Y-89530020D01*
X112697706Y-89495912D01*
X112811834Y-89430020D01*
X112880036Y-89361818D01*
X112941360Y-89328334D01*
X112967717Y-89325500D01*
X114289560Y-89325500D01*
X114289562Y-89325500D01*
X114365989Y-89305021D01*
X114434511Y-89265460D01*
X114490460Y-89209511D01*
X115140460Y-88559511D01*
X115180021Y-88490988D01*
X115200500Y-88414562D01*
X115200500Y-88335438D01*
X115200138Y-88334087D01*
X115200166Y-88332903D01*
X115199439Y-88327381D01*
X115200299Y-88327267D01*
X115201794Y-88264243D01*
X115240951Y-88206376D01*
X115251007Y-88198892D01*
X115302402Y-88164552D01*
X115346717Y-88098231D01*
X115346717Y-88098229D01*
X115346718Y-88098229D01*
X115358349Y-88039752D01*
X115358350Y-88039750D01*
X115358350Y-87884405D01*
X115378035Y-87817366D01*
X115394669Y-87796724D01*
X115698566Y-87492827D01*
X116020480Y-87170913D01*
X116073207Y-87079588D01*
X116100500Y-86977727D01*
X116100500Y-86924499D01*
X116120185Y-86857460D01*
X116172989Y-86811705D01*
X116224500Y-86800499D01*
X116531517Y-86800499D01*
X116531518Y-86800499D01*
X116625304Y-86785646D01*
X116738342Y-86728050D01*
X116828050Y-86638342D01*
X116885646Y-86525304D01*
X116885646Y-86525302D01*
X116885647Y-86525301D01*
X116899153Y-86440021D01*
X116900500Y-86431519D01*
X116900499Y-85968482D01*
X116885646Y-85874696D01*
X116828050Y-85761658D01*
X116828046Y-85761654D01*
X116828045Y-85761652D01*
X116738347Y-85671954D01*
X116738344Y-85671952D01*
X116738342Y-85671950D01*
X116656712Y-85630357D01*
X116625301Y-85614352D01*
X116531524Y-85599500D01*
X114868482Y-85599500D01*
X114787519Y-85612323D01*
X114774696Y-85614354D01*
X114661658Y-85671950D01*
X114661657Y-85671951D01*
X114661652Y-85671954D01*
X114571954Y-85761652D01*
X114571951Y-85761657D01*
X114571950Y-85761658D01*
X114562922Y-85779376D01*
X114514352Y-85874698D01*
X114499500Y-85968475D01*
X114499500Y-86431517D01*
X114505170Y-86467314D01*
X114514354Y-86525304D01*
X114571950Y-86638342D01*
X114571952Y-86638344D01*
X114571954Y-86638347D01*
X114661652Y-86728045D01*
X114661654Y-86728046D01*
X114661658Y-86728050D01*
X114757928Y-86777102D01*
X114774698Y-86785647D01*
X114868475Y-86800499D01*
X114868481Y-86800500D01*
X114958745Y-86800499D01*
X115025782Y-86820183D01*
X115071538Y-86872986D01*
X115081482Y-86942145D01*
X115052458Y-87005701D01*
X115046426Y-87012180D01*
X114979165Y-87079440D01*
X114815424Y-87243182D01*
X114754104Y-87276666D01*
X114727745Y-87279500D01*
X114572397Y-87279500D01*
X114513920Y-87291131D01*
X114513917Y-87291133D01*
X114511089Y-87293023D01*
X114503988Y-87295246D01*
X114502637Y-87295806D01*
X114502586Y-87295685D01*
X114444411Y-87313900D01*
X114377031Y-87295414D01*
X114373311Y-87293023D01*
X114370482Y-87291133D01*
X114370479Y-87291131D01*
X114312002Y-87279500D01*
X114311998Y-87279500D01*
X113706802Y-87279500D01*
X113706797Y-87279500D01*
X113648320Y-87291131D01*
X113648319Y-87291132D01*
X113581997Y-87335447D01*
X113576022Y-87344391D01*
X113522409Y-87389196D01*
X113472920Y-87399500D01*
X110012051Y-87399500D01*
X109945012Y-87379815D01*
X109899257Y-87327011D01*
X109889313Y-87257853D01*
X109904664Y-87213499D01*
X109916392Y-87193186D01*
X109950500Y-87065892D01*
X109950500Y-86934108D01*
X109950500Y-84967979D01*
X109970185Y-84900940D01*
X110022989Y-84855185D01*
X110056617Y-84845275D01*
X110088893Y-84840573D01*
X110193983Y-84789198D01*
X110276698Y-84706483D01*
X110328073Y-84601393D01*
X110338000Y-84533260D01*
X110338000Y-84533242D01*
X110338220Y-84530215D01*
X110338586Y-84529235D01*
X110338647Y-84528820D01*
X110338736Y-84528833D01*
X110362699Y-84464774D01*
X110418672Y-84422955D01*
X110488369Y-84418037D01*
X110536208Y-84439912D01*
X110580410Y-84473002D01*
X110580413Y-84473004D01*
X110715120Y-84523246D01*
X110715127Y-84523248D01*
X110774655Y-84529649D01*
X110774672Y-84529650D01*
X110842500Y-84529650D01*
X111342500Y-84529650D01*
X111410328Y-84529650D01*
X111410344Y-84529649D01*
X111469872Y-84523248D01*
X111469879Y-84523246D01*
X111604586Y-84473004D01*
X111604593Y-84473000D01*
X111719687Y-84386840D01*
X111719690Y-84386837D01*
X111805850Y-84271743D01*
X111805854Y-84271736D01*
X111856096Y-84137029D01*
X111856098Y-84137022D01*
X111862499Y-84077494D01*
X111862500Y-84077477D01*
X111862500Y-83884600D01*
X111342500Y-83884600D01*
X111342500Y-84529650D01*
X110842500Y-84529650D01*
X110842500Y-83884600D01*
X110320168Y-83884600D01*
X110263981Y-83915279D01*
X110194290Y-83910293D01*
X110183165Y-83905513D01*
X110088891Y-83859426D01*
X110020761Y-83849500D01*
X110020760Y-83849500D01*
X109949500Y-83849500D01*
X109882461Y-83829815D01*
X109836706Y-83777011D01*
X109825500Y-83725500D01*
X109825500Y-83074500D01*
X109845185Y-83007461D01*
X109897989Y-82961706D01*
X109949500Y-82950500D01*
X110020761Y-82950500D01*
X110054826Y-82945536D01*
X110088893Y-82940573D01*
X110168694Y-82901561D01*
X110190545Y-82890879D01*
X110259418Y-82879119D01*
X110323715Y-82906463D01*
X110363022Y-82964227D01*
X110364860Y-83034072D01*
X110361187Y-83045612D01*
X110328903Y-83132169D01*
X110328901Y-83132177D01*
X110322500Y-83191705D01*
X110322500Y-83384600D01*
X111862500Y-83384600D01*
X111862500Y-83191722D01*
X111862499Y-83191705D01*
X111856098Y-83132177D01*
X111856096Y-83132170D01*
X111805854Y-82997463D01*
X111805850Y-82997456D01*
X111719690Y-82882362D01*
X111612688Y-82802259D01*
X111570818Y-82746325D01*
X111563000Y-82702993D01*
X111563000Y-82256582D01*
X114200001Y-82256582D01*
X114206408Y-82327102D01*
X114206409Y-82327107D01*
X114256981Y-82489396D01*
X114344927Y-82634877D01*
X114465122Y-82755072D01*
X114610604Y-82843019D01*
X114610603Y-82843019D01*
X114772894Y-82893590D01*
X114772893Y-82893590D01*
X114843427Y-82899999D01*
X115449999Y-82899999D01*
X115950000Y-82899999D01*
X116556581Y-82899999D01*
X116627102Y-82893591D01*
X116627107Y-82893590D01*
X116789396Y-82843018D01*
X116934877Y-82755072D01*
X117055072Y-82634877D01*
X117143019Y-82489395D01*
X117193590Y-82327106D01*
X117200000Y-82256572D01*
X117200000Y-82250000D01*
X115950000Y-82250000D01*
X115950000Y-82899999D01*
X115449999Y-82899999D01*
X115450000Y-82899998D01*
X115450000Y-82250000D01*
X114200001Y-82250000D01*
X114200001Y-82256582D01*
X111563000Y-82256582D01*
X111563000Y-82129599D01*
X111562999Y-82129597D01*
X111551368Y-82071120D01*
X111551367Y-82071119D01*
X111507052Y-82004797D01*
X111440730Y-81960482D01*
X111440729Y-81960481D01*
X111382252Y-81948850D01*
X111382248Y-81948850D01*
X110802752Y-81948850D01*
X110802747Y-81948850D01*
X110744270Y-81960481D01*
X110744269Y-81960482D01*
X110677947Y-82004797D01*
X110651492Y-82044391D01*
X110645401Y-82049481D01*
X110642103Y-82056703D01*
X110618972Y-82071568D01*
X110597879Y-82089196D01*
X110588505Y-82091147D01*
X110583325Y-82094477D01*
X110548390Y-82099500D01*
X110334043Y-82099500D01*
X110267004Y-82079815D01*
X110246366Y-82063185D01*
X110193983Y-82010802D01*
X110088893Y-81959427D01*
X110088891Y-81959426D01*
X110020761Y-81949500D01*
X110020760Y-81949500D01*
X110011255Y-81949500D01*
X109984785Y-81941727D01*
X109957557Y-81937270D01*
X109951734Y-81932022D01*
X109944216Y-81929815D01*
X109926150Y-81908966D01*
X109905654Y-81890495D01*
X109903592Y-81882933D01*
X109898461Y-81877011D01*
X109894534Y-81849701D01*
X109887279Y-81823085D01*
X109889632Y-81815611D01*
X109888517Y-81807853D01*
X109899979Y-81782754D01*
X109908265Y-81756442D01*
X109915453Y-81748869D01*
X109917542Y-81744297D01*
X109918429Y-81743427D01*
X114200000Y-81743427D01*
X114200000Y-81750000D01*
X115450000Y-81750000D01*
X115950000Y-81750000D01*
X117199999Y-81750000D01*
X117199999Y-81743417D01*
X117193591Y-81672897D01*
X117193590Y-81672892D01*
X117143018Y-81510603D01*
X117055072Y-81365122D01*
X116934877Y-81244927D01*
X116789395Y-81156980D01*
X116789396Y-81156980D01*
X116627105Y-81106409D01*
X116627106Y-81106409D01*
X116556572Y-81100000D01*
X115950000Y-81100000D01*
X115950000Y-81750000D01*
X115450000Y-81750000D01*
X115450000Y-81100000D01*
X114843417Y-81100000D01*
X114772897Y-81106408D01*
X114772892Y-81106409D01*
X114610603Y-81156981D01*
X114465122Y-81244927D01*
X114344927Y-81365122D01*
X114256980Y-81510604D01*
X114206409Y-81672893D01*
X114200000Y-81743427D01*
X109918429Y-81743427D01*
X109931893Y-81730223D01*
X110022619Y-81654650D01*
X110096100Y-81556493D01*
X110096104Y-81556486D01*
X110146346Y-81421779D01*
X110146348Y-81421772D01*
X110152749Y-81362244D01*
X110152750Y-81362227D01*
X110152750Y-81294400D01*
X109381700Y-81294400D01*
X109314661Y-81274715D01*
X109268906Y-81221911D01*
X109257700Y-81170400D01*
X109257700Y-80918400D01*
X109277385Y-80851361D01*
X109330189Y-80805606D01*
X109381700Y-80794400D01*
X110152750Y-80794400D01*
X110152750Y-80726572D01*
X110152749Y-80726558D01*
X110148577Y-80687757D01*
X110160981Y-80618997D01*
X110208591Y-80567859D01*
X110271866Y-80550500D01*
X118200500Y-80550500D01*
X118267539Y-80570185D01*
G37*
%TD.AperFunction*%
%TA.AperFunction,Conductor*%
G36*
X93113962Y-106270878D02*
G01*
X93136577Y-106294037D01*
X93172812Y-106342440D01*
X93287906Y-106428600D01*
X93287913Y-106428604D01*
X93382735Y-106463970D01*
X93438668Y-106505841D01*
X93463086Y-106571305D01*
X93448235Y-106639578D01*
X93427083Y-106667833D01*
X92934736Y-107160181D01*
X92873413Y-107193666D01*
X92803722Y-107188682D01*
X92747789Y-107146811D01*
X92707290Y-107092712D01*
X92707287Y-107092709D01*
X92592193Y-107006549D01*
X92592186Y-107006545D01*
X92457479Y-106956303D01*
X92457472Y-106956301D01*
X92397944Y-106949900D01*
X92349433Y-106949900D01*
X92328187Y-106943661D01*
X92306099Y-106942082D01*
X92295315Y-106934009D01*
X92282394Y-106930215D01*
X92267894Y-106913481D01*
X92250166Y-106900210D01*
X92245458Y-106887589D01*
X92236639Y-106877411D01*
X92233487Y-106855493D01*
X92225749Y-106834746D01*
X92228611Y-106821585D01*
X92226695Y-106808253D01*
X92235894Y-106788109D01*
X92240601Y-106766473D01*
X92253869Y-106748747D01*
X92255720Y-106744697D01*
X92261752Y-106738219D01*
X92413152Y-106586819D01*
X92474475Y-106553334D01*
X92500833Y-106550500D01*
X92565890Y-106550500D01*
X92565892Y-106550500D01*
X92693186Y-106516392D01*
X92807314Y-106450500D01*
X92900500Y-106357314D01*
X92929925Y-106306347D01*
X92980490Y-106258134D01*
X93049097Y-106244910D01*
X93113962Y-106270878D01*
G37*
%TD.AperFunction*%
%TA.AperFunction,Conductor*%
G36*
X93013345Y-104870185D02*
G01*
X93059100Y-104922989D01*
X93069044Y-104992147D01*
X93062488Y-105017833D01*
X93036403Y-105087770D01*
X93036401Y-105087777D01*
X93030000Y-105147305D01*
X93030000Y-105340200D01*
X93676000Y-105340200D01*
X93743039Y-105359885D01*
X93788794Y-105412689D01*
X93800000Y-105464200D01*
X93800000Y-105716200D01*
X93780315Y-105783239D01*
X93727511Y-105828994D01*
X93676000Y-105840200D01*
X93028391Y-105840200D01*
X92961352Y-105820515D01*
X92921004Y-105778200D01*
X92908605Y-105756725D01*
X92900500Y-105742686D01*
X92807314Y-105649500D01*
X92731960Y-105605994D01*
X92693187Y-105583608D01*
X92629539Y-105566554D01*
X92565892Y-105549500D01*
X92434108Y-105549500D01*
X92306812Y-105583608D01*
X92192686Y-105649500D01*
X92192683Y-105649502D01*
X92099502Y-105742683D01*
X92099500Y-105742686D01*
X92081887Y-105773193D01*
X92031319Y-105821408D01*
X91962712Y-105834630D01*
X91897848Y-105808662D01*
X91857320Y-105751748D01*
X91850500Y-105711192D01*
X91850500Y-104974500D01*
X91870185Y-104907461D01*
X91922989Y-104861706D01*
X91974500Y-104850500D01*
X92946306Y-104850500D01*
X93013345Y-104870185D01*
G37*
%TD.AperFunction*%
%TA.AperFunction,Conductor*%
G36*
X96051872Y-97604797D02*
G01*
X96075220Y-97606248D01*
X96098835Y-97611153D01*
X96134883Y-97635240D01*
X96211599Y-97650500D01*
X96288244Y-97650499D01*
X96300720Y-97653091D01*
X96362355Y-97685999D01*
X96396414Y-97747005D01*
X96399500Y-97774497D01*
X96399500Y-97838398D01*
X96414760Y-97915119D01*
X96425446Y-97931111D01*
X96446323Y-97997788D01*
X96427837Y-98065168D01*
X96425446Y-98068889D01*
X96414759Y-98084882D01*
X96399500Y-98161596D01*
X96399500Y-98338398D01*
X96414760Y-98415119D01*
X96425446Y-98431111D01*
X96446323Y-98497788D01*
X96427837Y-98565168D01*
X96425446Y-98568889D01*
X96414759Y-98584882D01*
X96399500Y-98661596D01*
X96399500Y-98838398D01*
X96414760Y-98915119D01*
X96425446Y-98931111D01*
X96446323Y-98997788D01*
X96427837Y-99065168D01*
X96425446Y-99068889D01*
X96414759Y-99084882D01*
X96399500Y-99161596D01*
X96399500Y-99338398D01*
X96414760Y-99415119D01*
X96425446Y-99431111D01*
X96446323Y-99497788D01*
X96427837Y-99565168D01*
X96425446Y-99568889D01*
X96414759Y-99584882D01*
X96399500Y-99661596D01*
X96399500Y-99838398D01*
X96414760Y-99915119D01*
X96425446Y-99931111D01*
X96446323Y-99997788D01*
X96427837Y-100065168D01*
X96425446Y-100068889D01*
X96414759Y-100084882D01*
X96399500Y-100161596D01*
X96399500Y-100338398D01*
X96414760Y-100415119D01*
X96425446Y-100431111D01*
X96446323Y-100497788D01*
X96427837Y-100565168D01*
X96425446Y-100568889D01*
X96414759Y-100584882D01*
X96399500Y-100661596D01*
X96399500Y-100838398D01*
X96414760Y-100915119D01*
X96425446Y-100931111D01*
X96446323Y-100997788D01*
X96443751Y-101025220D01*
X96438845Y-101048836D01*
X96414760Y-101084883D01*
X96399500Y-101161599D01*
X96399500Y-101238240D01*
X96396908Y-101250720D01*
X96386212Y-101270752D01*
X96379815Y-101292539D01*
X96370073Y-101300980D01*
X96364000Y-101312355D01*
X96344169Y-101323426D01*
X96327011Y-101338294D01*
X96311490Y-101341670D01*
X96302994Y-101346414D01*
X96292642Y-101345771D01*
X96275502Y-101349500D01*
X96211601Y-101349500D01*
X96134880Y-101364760D01*
X96118889Y-101375446D01*
X96052212Y-101396323D01*
X95984832Y-101377837D01*
X95981111Y-101375446D01*
X95965117Y-101364759D01*
X95888403Y-101349500D01*
X95711601Y-101349500D01*
X95634880Y-101364760D01*
X95618889Y-101375446D01*
X95552212Y-101396323D01*
X95484832Y-101377837D01*
X95481111Y-101375446D01*
X95465117Y-101364759D01*
X95388403Y-101349500D01*
X95211601Y-101349500D01*
X95134880Y-101364760D01*
X95118889Y-101375446D01*
X95052212Y-101396323D01*
X94984832Y-101377837D01*
X94981111Y-101375446D01*
X94965117Y-101364759D01*
X94888403Y-101349500D01*
X94711601Y-101349500D01*
X94634880Y-101364760D01*
X94618889Y-101375446D01*
X94552212Y-101396323D01*
X94484832Y-101377837D01*
X94481111Y-101375446D01*
X94465117Y-101364759D01*
X94388403Y-101349500D01*
X94211601Y-101349500D01*
X94134880Y-101364760D01*
X94118889Y-101375446D01*
X94052212Y-101396323D01*
X93984832Y-101377837D01*
X93981111Y-101375446D01*
X93965117Y-101364759D01*
X93888403Y-101349500D01*
X93711601Y-101349500D01*
X93634880Y-101364760D01*
X93618889Y-101375446D01*
X93552212Y-101396323D01*
X93484832Y-101377837D01*
X93481111Y-101375446D01*
X93465117Y-101364759D01*
X93388403Y-101349500D01*
X93211601Y-101349500D01*
X93134880Y-101364760D01*
X93118889Y-101375446D01*
X93052212Y-101396323D01*
X93024780Y-101393751D01*
X93001163Y-101388845D01*
X92965117Y-101364760D01*
X92888401Y-101349500D01*
X92811758Y-101349500D01*
X92799279Y-101346908D01*
X92779246Y-101336212D01*
X92757460Y-101329815D01*
X92749018Y-101320073D01*
X92737644Y-101314000D01*
X92726572Y-101294169D01*
X92711705Y-101277011D01*
X92708328Y-101261490D01*
X92703585Y-101252994D01*
X92704227Y-101242641D01*
X92700499Y-101225500D01*
X92700499Y-101161601D01*
X92698805Y-101153084D01*
X92685240Y-101084883D01*
X92685239Y-101084881D01*
X92685238Y-101084878D01*
X92674555Y-101068891D01*
X92653676Y-101002214D01*
X92672160Y-100934833D01*
X92674517Y-100931164D01*
X92685240Y-100915117D01*
X92700500Y-100838401D01*
X92700499Y-100661600D01*
X92685240Y-100584883D01*
X92685239Y-100584881D01*
X92685238Y-100584878D01*
X92674555Y-100568891D01*
X92653676Y-100502214D01*
X92672160Y-100434833D01*
X92674517Y-100431164D01*
X92685240Y-100415117D01*
X92700500Y-100338401D01*
X92700499Y-100161600D01*
X92685240Y-100084883D01*
X92685239Y-100084881D01*
X92685238Y-100084878D01*
X92674555Y-100068891D01*
X92653676Y-100002214D01*
X92672160Y-99934833D01*
X92674517Y-99931164D01*
X92685240Y-99915117D01*
X92700500Y-99838401D01*
X92700499Y-99661600D01*
X92685240Y-99584883D01*
X92685239Y-99584881D01*
X92685238Y-99584878D01*
X92674555Y-99568891D01*
X92653676Y-99502214D01*
X92672160Y-99434833D01*
X92674517Y-99431164D01*
X92685240Y-99415117D01*
X92700500Y-99338401D01*
X92700499Y-99161600D01*
X92685240Y-99084883D01*
X92685239Y-99084881D01*
X92685238Y-99084878D01*
X92674555Y-99068891D01*
X92653676Y-99002214D01*
X92672160Y-98934833D01*
X92674517Y-98931164D01*
X92685240Y-98915117D01*
X92700500Y-98838401D01*
X92700499Y-98661600D01*
X92685240Y-98584883D01*
X92685239Y-98584881D01*
X92685238Y-98584878D01*
X92674555Y-98568891D01*
X92653676Y-98502214D01*
X92672160Y-98434833D01*
X92674517Y-98431164D01*
X92685240Y-98415117D01*
X92700500Y-98338401D01*
X92700499Y-98161600D01*
X92685240Y-98084883D01*
X92685239Y-98084881D01*
X92685238Y-98084878D01*
X92674555Y-98068891D01*
X92653676Y-98002214D01*
X92656248Y-97974779D01*
X92661153Y-97951165D01*
X92685240Y-97915117D01*
X92700500Y-97838401D01*
X92700499Y-97761754D01*
X92703091Y-97749279D01*
X92713786Y-97729247D01*
X92720183Y-97707461D01*
X92729926Y-97699018D01*
X92735999Y-97687644D01*
X92755826Y-97676574D01*
X92772986Y-97661705D01*
X92788509Y-97658328D01*
X92797005Y-97653585D01*
X92807357Y-97654227D01*
X92824497Y-97650499D01*
X92888400Y-97650499D01*
X92965117Y-97635240D01*
X92981107Y-97624555D01*
X93047783Y-97603676D01*
X93115164Y-97622159D01*
X93118871Y-97624541D01*
X93134880Y-97635238D01*
X93134883Y-97635240D01*
X93134887Y-97635241D01*
X93173241Y-97642870D01*
X93211599Y-97650500D01*
X93388400Y-97650499D01*
X93465117Y-97635240D01*
X93481107Y-97624555D01*
X93547783Y-97603676D01*
X93615164Y-97622159D01*
X93618871Y-97624541D01*
X93634880Y-97635238D01*
X93634883Y-97635240D01*
X93634887Y-97635241D01*
X93673241Y-97642870D01*
X93711599Y-97650500D01*
X93888400Y-97650499D01*
X93965117Y-97635240D01*
X93981107Y-97624555D01*
X94047783Y-97603676D01*
X94115164Y-97622159D01*
X94118871Y-97624541D01*
X94134880Y-97635238D01*
X94134883Y-97635240D01*
X94134887Y-97635241D01*
X94173241Y-97642870D01*
X94211599Y-97650500D01*
X94388400Y-97650499D01*
X94465117Y-97635240D01*
X94481107Y-97624555D01*
X94547783Y-97603676D01*
X94615164Y-97622159D01*
X94618871Y-97624541D01*
X94634880Y-97635238D01*
X94634883Y-97635240D01*
X94634887Y-97635241D01*
X94673241Y-97642870D01*
X94711599Y-97650500D01*
X94888400Y-97650499D01*
X94965117Y-97635240D01*
X94981107Y-97624555D01*
X95047783Y-97603676D01*
X95115164Y-97622159D01*
X95118871Y-97624541D01*
X95134880Y-97635238D01*
X95134883Y-97635240D01*
X95134887Y-97635241D01*
X95173241Y-97642870D01*
X95211599Y-97650500D01*
X95388400Y-97650499D01*
X95465117Y-97635240D01*
X95481107Y-97624555D01*
X95547783Y-97603676D01*
X95615164Y-97622159D01*
X95618871Y-97624541D01*
X95634880Y-97635238D01*
X95634883Y-97635240D01*
X95634887Y-97635241D01*
X95673241Y-97642870D01*
X95711599Y-97650500D01*
X95888400Y-97650499D01*
X95965117Y-97635240D01*
X95981107Y-97624555D01*
X96010863Y-97615237D01*
X96039994Y-97604060D01*
X96045470Y-97604400D01*
X96047783Y-97603676D01*
X96051872Y-97604797D01*
G37*
%TD.AperFunction*%
%TA.AperFunction,Conductor*%
G36*
X112718539Y-97094685D02*
G01*
X112764294Y-97147489D01*
X112775500Y-97199000D01*
X112775500Y-97250500D01*
X112755815Y-97317539D01*
X112703011Y-97363294D01*
X112651500Y-97374500D01*
X112249000Y-97374500D01*
X112181961Y-97354815D01*
X112136206Y-97302011D01*
X112125000Y-97250500D01*
X112125000Y-97199000D01*
X112144685Y-97131961D01*
X112197489Y-97086206D01*
X112249000Y-97075000D01*
X112651500Y-97075000D01*
X112718539Y-97094685D01*
G37*
%TD.AperFunction*%
%TA.AperFunction,Conductor*%
G36*
X112718539Y-96595185D02*
G01*
X112764294Y-96647989D01*
X112775500Y-96699500D01*
X112775500Y-96751000D01*
X112755815Y-96818039D01*
X112703011Y-96863794D01*
X112651500Y-96875000D01*
X112249000Y-96875000D01*
X112240314Y-96872449D01*
X112231353Y-96873738D01*
X112207312Y-96862759D01*
X112181961Y-96855315D01*
X112176033Y-96848474D01*
X112167797Y-96844713D01*
X112153507Y-96822478D01*
X112136206Y-96802511D01*
X112133918Y-96791996D01*
X112130023Y-96785935D01*
X112125000Y-96751000D01*
X112125000Y-96699500D01*
X112144685Y-96632461D01*
X112197489Y-96586706D01*
X112249000Y-96575500D01*
X112651500Y-96575500D01*
X112718539Y-96595185D01*
G37*
%TD.AperFunction*%
%TA.AperFunction,Conductor*%
G36*
X107456635Y-81203050D02*
G01*
X107465597Y-81201762D01*
X107489637Y-81212740D01*
X107514989Y-81220185D01*
X107520916Y-81227025D01*
X107529153Y-81230787D01*
X107543442Y-81253021D01*
X107560744Y-81272989D01*
X107563031Y-81283503D01*
X107566927Y-81289565D01*
X107571950Y-81324500D01*
X107571950Y-81334152D01*
X107583581Y-81392629D01*
X107583582Y-81392630D01*
X107627897Y-81458952D01*
X107694219Y-81503267D01*
X107694220Y-81503268D01*
X107752697Y-81514899D01*
X107752700Y-81514900D01*
X108326094Y-81514900D01*
X108393133Y-81534585D01*
X108425360Y-81564589D01*
X108505459Y-81671587D01*
X108505462Y-81671590D01*
X108620556Y-81757750D01*
X108620563Y-81757754D01*
X108723744Y-81796238D01*
X108779678Y-81838109D01*
X108804095Y-81903573D01*
X108789244Y-81971846D01*
X108762154Y-82002408D01*
X108763282Y-82003536D01*
X108673303Y-82093514D01*
X108621926Y-82198608D01*
X108612000Y-82266739D01*
X108612000Y-82633260D01*
X108621926Y-82701391D01*
X108673303Y-82806485D01*
X108756014Y-82889196D01*
X108756015Y-82889196D01*
X108756017Y-82889198D01*
X108861107Y-82940573D01*
X108895173Y-82945536D01*
X108929239Y-82950500D01*
X108929240Y-82950500D01*
X109000500Y-82950500D01*
X109067539Y-82970185D01*
X109113294Y-83022989D01*
X109124500Y-83074500D01*
X109124500Y-83725500D01*
X109104815Y-83792539D01*
X109052011Y-83838294D01*
X109000500Y-83849500D01*
X108929239Y-83849500D01*
X108861108Y-83859426D01*
X108756014Y-83910803D01*
X108673303Y-83993514D01*
X108621926Y-84098608D01*
X108612000Y-84166739D01*
X108612000Y-84533260D01*
X108621926Y-84601391D01*
X108673303Y-84706485D01*
X108756014Y-84789196D01*
X108756015Y-84789196D01*
X108756017Y-84789198D01*
X108822070Y-84821489D01*
X108861107Y-84840573D01*
X108862104Y-84840881D01*
X108863134Y-84841564D01*
X108869758Y-84844802D01*
X108869332Y-84845671D01*
X108920345Y-84879478D01*
X108948474Y-84943435D01*
X108949500Y-84959355D01*
X108949500Y-86934108D01*
X108949500Y-87065892D01*
X108972448Y-87151536D01*
X108983608Y-87193186D01*
X108995336Y-87213499D01*
X109011809Y-87281399D01*
X108988957Y-87347426D01*
X108934036Y-87390617D01*
X108887949Y-87399500D01*
X108853856Y-87399500D01*
X108764712Y-87423386D01*
X108764709Y-87423387D01*
X108684791Y-87469527D01*
X108684786Y-87469531D01*
X102044529Y-94109788D01*
X102029744Y-94135398D01*
X101998618Y-94189311D01*
X101998386Y-94189712D01*
X101974500Y-94278856D01*
X101974500Y-94361722D01*
X101972481Y-94372775D01*
X101961620Y-94394353D01*
X101954815Y-94417531D01*
X101946197Y-94424998D01*
X101941070Y-94435186D01*
X101920264Y-94447469D01*
X101902011Y-94463286D01*
X101890725Y-94464908D01*
X101880904Y-94470707D01*
X101856762Y-94469792D01*
X101832853Y-94473230D01*
X101818407Y-94470267D01*
X101818090Y-94470182D01*
X101740892Y-94449497D01*
X101609108Y-94449497D01*
X101481812Y-94483605D01*
X101367686Y-94549497D01*
X101367683Y-94549499D01*
X101304005Y-94613178D01*
X101242682Y-94646663D01*
X101216324Y-94649497D01*
X96349500Y-94649497D01*
X96282461Y-94629812D01*
X96236706Y-94577008D01*
X96225500Y-94525497D01*
X96225500Y-93549504D01*
X96245185Y-93482465D01*
X96297989Y-93436710D01*
X96367147Y-93426766D01*
X96381571Y-93429724D01*
X96459108Y-93450500D01*
X96459111Y-93450500D01*
X96590890Y-93450500D01*
X96590892Y-93450500D01*
X96718186Y-93416392D01*
X96832314Y-93350500D01*
X96925500Y-93257314D01*
X96991392Y-93143186D01*
X97025500Y-93015892D01*
X97025500Y-92925832D01*
X97045185Y-92858793D01*
X97061819Y-92838151D01*
X97192270Y-92707700D01*
X97366460Y-92533511D01*
X97376387Y-92516317D01*
X97406021Y-92464989D01*
X97426500Y-92388562D01*
X97426500Y-90809438D01*
X97406021Y-90733011D01*
X97374303Y-90678073D01*
X97366464Y-90664495D01*
X97366458Y-90664487D01*
X96764062Y-90062091D01*
X96730577Y-90000768D01*
X96735561Y-89931076D01*
X96777433Y-89875143D01*
X96839603Y-89851006D01*
X96844746Y-89850500D01*
X96844748Y-89850500D01*
X96844750Y-89850499D01*
X96844756Y-89850499D01*
X96903229Y-89838868D01*
X96903229Y-89838867D01*
X96903231Y-89838867D01*
X96969552Y-89794552D01*
X97013867Y-89728231D01*
X97013867Y-89728229D01*
X97013868Y-89728229D01*
X97022552Y-89684568D01*
X97025500Y-89669748D01*
X97025500Y-88630252D01*
X97025500Y-88630249D01*
X97025499Y-88630247D01*
X97013868Y-88571770D01*
X97013867Y-88571769D01*
X96969552Y-88505447D01*
X96903230Y-88461132D01*
X96903229Y-88461131D01*
X96844752Y-88449500D01*
X96844748Y-88449500D01*
X95005252Y-88449500D01*
X95005247Y-88449500D01*
X94946770Y-88461131D01*
X94946769Y-88461132D01*
X94880447Y-88505447D01*
X94836132Y-88571769D01*
X94831458Y-88583054D01*
X94828616Y-88581876D01*
X94805110Y-88626808D01*
X94744392Y-88661378D01*
X94715883Y-88664700D01*
X93355000Y-88664700D01*
X93355000Y-88794139D01*
X93335315Y-88861178D01*
X93282511Y-88906933D01*
X93217744Y-88917428D01*
X93192844Y-88914750D01*
X93125000Y-88914750D01*
X93125000Y-89685800D01*
X93105315Y-89752839D01*
X93052511Y-89798594D01*
X93001000Y-89809800D01*
X92875000Y-89809800D01*
X92875000Y-89935800D01*
X92855315Y-90002839D01*
X92802511Y-90048594D01*
X92751000Y-90059800D01*
X92105000Y-90059800D01*
X92105000Y-90252694D01*
X92111401Y-90312222D01*
X92111403Y-90312229D01*
X92137488Y-90382167D01*
X92142472Y-90451859D01*
X92108987Y-90513182D01*
X92047663Y-90546666D01*
X92021306Y-90549500D01*
X91854499Y-90549500D01*
X91787460Y-90529815D01*
X91741705Y-90477011D01*
X91730499Y-90425500D01*
X91730499Y-89878049D01*
X91722707Y-89824565D01*
X91720220Y-89807491D01*
X91667012Y-89698653D01*
X91667010Y-89698651D01*
X91667010Y-89698650D01*
X91581348Y-89612988D01*
X91472511Y-89559780D01*
X91454869Y-89557210D01*
X91401949Y-89549500D01*
X91401943Y-89549500D01*
X91008049Y-89549500D01*
X90937493Y-89559779D01*
X90879736Y-89588015D01*
X90879732Y-89588017D01*
X90875082Y-89590290D01*
X90875080Y-89590290D01*
X90828652Y-89612988D01*
X90828651Y-89612988D01*
X90742988Y-89698651D01*
X90689780Y-89807488D01*
X90688473Y-89811721D01*
X90685571Y-89816098D01*
X90685550Y-89816143D01*
X90685544Y-89816140D01*
X90649873Y-89869961D01*
X90585914Y-89898087D01*
X90516903Y-89887169D01*
X90464750Y-89840674D01*
X90451528Y-89811724D01*
X90450220Y-89807494D01*
X90450220Y-89807493D01*
X90450220Y-89807491D01*
X90397012Y-89698653D01*
X90397010Y-89698651D01*
X90397010Y-89698650D01*
X90311348Y-89612988D01*
X90202511Y-89559780D01*
X90184869Y-89557210D01*
X90131949Y-89549500D01*
X90131943Y-89549500D01*
X89738049Y-89549500D01*
X89667493Y-89559779D01*
X89558650Y-89612989D01*
X89472988Y-89698651D01*
X89419780Y-89807488D01*
X89418473Y-89811721D01*
X89415571Y-89816098D01*
X89415550Y-89816143D01*
X89415544Y-89816140D01*
X89379873Y-89869961D01*
X89315914Y-89898087D01*
X89246903Y-89887169D01*
X89194750Y-89840674D01*
X89181528Y-89811724D01*
X89180220Y-89807494D01*
X89180220Y-89807493D01*
X89180220Y-89807491D01*
X89127012Y-89698653D01*
X89127010Y-89698651D01*
X89127010Y-89698650D01*
X89041348Y-89612988D01*
X88932511Y-89559780D01*
X88914869Y-89557210D01*
X88861949Y-89549500D01*
X88861943Y-89549500D01*
X88468049Y-89549500D01*
X88397493Y-89559779D01*
X88288650Y-89612989D01*
X88202988Y-89698651D01*
X88149780Y-89807488D01*
X88148473Y-89811721D01*
X88145571Y-89816098D01*
X88145550Y-89816143D01*
X88145544Y-89816140D01*
X88109873Y-89869961D01*
X88045914Y-89898087D01*
X87976903Y-89887169D01*
X87924750Y-89840674D01*
X87911528Y-89811724D01*
X87910220Y-89807494D01*
X87910220Y-89807493D01*
X87910220Y-89807491D01*
X87857012Y-89698653D01*
X87857010Y-89698651D01*
X87857010Y-89698650D01*
X87771348Y-89612988D01*
X87662511Y-89559780D01*
X87644869Y-89557210D01*
X87591949Y-89549500D01*
X87591943Y-89549500D01*
X87198049Y-89549500D01*
X87127493Y-89559779D01*
X87018650Y-89612989D01*
X86932988Y-89698651D01*
X86879780Y-89807488D01*
X86878526Y-89816098D01*
X86869500Y-89878051D01*
X86869500Y-89878055D01*
X86869500Y-89878056D01*
X86869500Y-91246950D01*
X86879779Y-91317506D01*
X86879779Y-91317507D01*
X86879780Y-91317509D01*
X86882459Y-91322989D01*
X86926250Y-91412565D01*
X86938008Y-91481438D01*
X86910665Y-91545735D01*
X86902530Y-91554706D01*
X86411847Y-92045390D01*
X86350524Y-92078875D01*
X86324166Y-92081709D01*
X86234108Y-92081709D01*
X86106812Y-92115817D01*
X85992686Y-92181709D01*
X85992683Y-92181711D01*
X85899502Y-92274892D01*
X85899498Y-92274898D01*
X85859374Y-92344393D01*
X85808806Y-92392607D01*
X85740199Y-92405829D01*
X85675335Y-92379860D01*
X85664307Y-92370072D01*
X83232590Y-89938355D01*
X83232588Y-89938352D01*
X83113717Y-89819481D01*
X83113716Y-89819480D01*
X83009146Y-89759107D01*
X83009145Y-89759106D01*
X82976783Y-89740422D01*
X82920881Y-89725443D01*
X82824057Y-89699499D01*
X82665943Y-89699499D01*
X82658347Y-89699499D01*
X82658331Y-89699500D01*
X80625097Y-89699500D01*
X80558058Y-89679815D01*
X80537416Y-89663181D01*
X79732329Y-88858094D01*
X80430000Y-88858094D01*
X80436401Y-88917622D01*
X80436403Y-88917629D01*
X80486645Y-89052336D01*
X80486649Y-89052343D01*
X80572809Y-89167437D01*
X80572812Y-89167440D01*
X80687906Y-89253600D01*
X80687913Y-89253604D01*
X80822620Y-89303846D01*
X80822627Y-89303848D01*
X80882155Y-89310249D01*
X80882172Y-89310250D01*
X80950000Y-89310250D01*
X81450000Y-89310250D01*
X81517828Y-89310250D01*
X81517844Y-89310249D01*
X81577372Y-89303848D01*
X81577379Y-89303846D01*
X81712086Y-89253604D01*
X81712093Y-89253600D01*
X81827187Y-89167440D01*
X81827190Y-89167437D01*
X81913350Y-89052343D01*
X81913354Y-89052336D01*
X81963596Y-88917629D01*
X81963598Y-88917622D01*
X81969999Y-88858094D01*
X81970000Y-88858077D01*
X81970000Y-88665200D01*
X81450000Y-88665200D01*
X81450000Y-89310250D01*
X80950000Y-89310250D01*
X80950000Y-88665200D01*
X80430000Y-88665200D01*
X80430000Y-88858094D01*
X79732329Y-88858094D01*
X79074090Y-88199855D01*
X79074088Y-88199852D01*
X78955217Y-88080981D01*
X78955209Y-88080975D01*
X78867729Y-88030469D01*
X78867728Y-88030469D01*
X78818285Y-88001923D01*
X78665557Y-87960999D01*
X78507443Y-87960999D01*
X78499847Y-87960999D01*
X78499831Y-87961000D01*
X75900169Y-87961000D01*
X75900153Y-87960999D01*
X75892557Y-87960999D01*
X75734443Y-87960999D01*
X75581715Y-88001923D01*
X75532272Y-88030469D01*
X75532271Y-88030469D01*
X75444790Y-88080975D01*
X75444782Y-88080981D01*
X75375264Y-88150500D01*
X75332980Y-88192784D01*
X75332978Y-88192786D01*
X74953029Y-88572736D01*
X74600084Y-88925681D01*
X74573534Y-88940178D01*
X74548190Y-88956724D01*
X74541399Y-88957725D01*
X74538761Y-88959166D01*
X74513292Y-88961997D01*
X74512874Y-88962000D01*
X74366740Y-88962000D01*
X74359177Y-88963101D01*
X74350638Y-88963163D01*
X74340577Y-88960287D01*
X74317657Y-88958941D01*
X74225693Y-88934300D01*
X74225692Y-88934300D01*
X71480016Y-88934300D01*
X71412977Y-88914615D01*
X71392331Y-88897977D01*
X71389551Y-88895197D01*
X71323230Y-88850882D01*
X71323229Y-88850881D01*
X71264752Y-88839250D01*
X71264748Y-88839250D01*
X70685252Y-88839250D01*
X70685247Y-88839250D01*
X70626770Y-88850881D01*
X70626769Y-88850882D01*
X70550293Y-88901983D01*
X70549300Y-88900497D01*
X70500858Y-88926949D01*
X70431166Y-88921965D01*
X70375233Y-88880093D01*
X70350816Y-88814629D01*
X70350500Y-88805783D01*
X70350500Y-86674000D01*
X70370185Y-86606961D01*
X70422989Y-86561206D01*
X70474500Y-86550000D01*
X73573667Y-86550000D01*
X73640706Y-86569685D01*
X73661347Y-86586318D01*
X74584540Y-87509511D01*
X74640489Y-87565460D01*
X74640491Y-87565461D01*
X74640495Y-87565464D01*
X74709004Y-87605017D01*
X74709011Y-87605021D01*
X74785438Y-87625500D01*
X80364955Y-87625500D01*
X80431994Y-87645185D01*
X80477749Y-87697989D01*
X80487693Y-87767147D01*
X80481137Y-87792833D01*
X80436403Y-87912770D01*
X80436401Y-87912777D01*
X80430000Y-87972305D01*
X80430000Y-88165200D01*
X81970000Y-88165200D01*
X81970000Y-87972322D01*
X81969999Y-87972305D01*
X81963598Y-87912777D01*
X81963596Y-87912770D01*
X81913354Y-87778063D01*
X81913350Y-87778056D01*
X81827190Y-87662962D01*
X81720188Y-87582859D01*
X81717451Y-87579203D01*
X81713297Y-87577306D01*
X81696705Y-87551488D01*
X81678318Y-87526925D01*
X81677302Y-87521297D01*
X81675523Y-87518528D01*
X81670500Y-87483593D01*
X81670500Y-87374500D01*
X81690185Y-87307461D01*
X81742989Y-87261706D01*
X81794500Y-87250500D01*
X81878983Y-87250500D01*
X81946022Y-87270185D01*
X81947850Y-87271382D01*
X81967505Y-87284515D01*
X81967507Y-87284515D01*
X81967507Y-87284516D01*
X82015634Y-87294088D01*
X82047867Y-87300500D01*
X82352132Y-87300499D01*
X82425813Y-87285844D01*
X82474189Y-87285845D01*
X82513817Y-87293727D01*
X82547867Y-87300500D01*
X82852132Y-87300499D01*
X82932495Y-87284515D01*
X82932496Y-87284513D01*
X82932499Y-87284513D01*
X82952125Y-87271399D01*
X82970171Y-87265747D01*
X82986082Y-87255523D01*
X83017039Y-87251071D01*
X83018802Y-87250520D01*
X83021017Y-87250500D01*
X83140250Y-87250500D01*
X83207289Y-87270185D01*
X83253044Y-87322989D01*
X83264250Y-87374500D01*
X83264250Y-87464752D01*
X83275881Y-87523229D01*
X83275882Y-87523230D01*
X83320197Y-87589552D01*
X83386519Y-87633867D01*
X83386520Y-87633868D01*
X83444997Y-87645499D01*
X83445000Y-87645500D01*
X83445002Y-87645500D01*
X83853967Y-87645500D01*
X83921006Y-87665185D01*
X83941648Y-87681819D01*
X85044340Y-88784511D01*
X85100289Y-88840460D01*
X85100291Y-88840461D01*
X85100295Y-88840464D01*
X85168804Y-88880017D01*
X85168811Y-88880021D01*
X85245238Y-88900500D01*
X89961830Y-88900500D01*
X90028869Y-88920185D01*
X90074624Y-88972989D01*
X90081605Y-88992407D01*
X90108608Y-89093187D01*
X90109893Y-89095412D01*
X90174500Y-89207314D01*
X90267686Y-89300500D01*
X90356114Y-89351554D01*
X90381810Y-89366390D01*
X90381814Y-89366392D01*
X90509108Y-89400500D01*
X90509110Y-89400500D01*
X90640890Y-89400500D01*
X90640892Y-89400500D01*
X90766271Y-89366905D01*
X92105000Y-89366905D01*
X92105000Y-89559800D01*
X92625000Y-89559800D01*
X92625000Y-88914750D01*
X92557155Y-88914750D01*
X92497627Y-88921151D01*
X92497620Y-88921153D01*
X92362913Y-88971395D01*
X92362906Y-88971399D01*
X92247812Y-89057559D01*
X92247809Y-89057562D01*
X92161649Y-89172656D01*
X92161645Y-89172663D01*
X92111403Y-89307370D01*
X92111401Y-89307377D01*
X92105000Y-89366905D01*
X90766271Y-89366905D01*
X90768186Y-89366392D01*
X90882314Y-89300500D01*
X90975500Y-89207314D01*
X91041392Y-89093186D01*
X91075500Y-88965892D01*
X91075500Y-88834108D01*
X91041392Y-88706814D01*
X90975500Y-88592686D01*
X90882314Y-88499500D01*
X90815857Y-88461131D01*
X90768187Y-88433608D01*
X90697097Y-88414560D01*
X90640892Y-88399500D01*
X90550833Y-88399500D01*
X90483794Y-88379815D01*
X90463152Y-88363181D01*
X90459512Y-88359541D01*
X90459504Y-88359535D01*
X90390995Y-88319982D01*
X90390990Y-88319979D01*
X90361887Y-88312181D01*
X90314562Y-88299500D01*
X90314560Y-88299500D01*
X89713808Y-88299500D01*
X89646769Y-88279815D01*
X89601014Y-88227011D01*
X89591070Y-88157853D01*
X89620095Y-88094297D01*
X89651807Y-88068113D01*
X89682314Y-88050500D01*
X89761009Y-87971805D01*
X93355000Y-87971805D01*
X93355000Y-88164700D01*
X93875000Y-88164700D01*
X94375000Y-88164700D01*
X94895000Y-88164700D01*
X94895000Y-87971822D01*
X94894999Y-87971805D01*
X94888598Y-87912277D01*
X94888596Y-87912270D01*
X94838354Y-87777563D01*
X94838350Y-87777556D01*
X94752190Y-87662462D01*
X94752187Y-87662459D01*
X94637093Y-87576299D01*
X94637086Y-87576295D01*
X94502379Y-87526053D01*
X94502372Y-87526051D01*
X94442844Y-87519650D01*
X94375000Y-87519650D01*
X94375000Y-88164700D01*
X93875000Y-88164700D01*
X93875000Y-87519650D01*
X93807155Y-87519650D01*
X93747627Y-87526051D01*
X93747620Y-87526053D01*
X93612913Y-87576295D01*
X93612906Y-87576299D01*
X93497812Y-87662459D01*
X93497809Y-87662462D01*
X93411649Y-87777556D01*
X93411645Y-87777563D01*
X93361403Y-87912270D01*
X93361401Y-87912277D01*
X93355000Y-87971805D01*
X89761009Y-87971805D01*
X89775500Y-87957314D01*
X89841392Y-87843186D01*
X89875500Y-87715892D01*
X89875500Y-87625832D01*
X89895185Y-87558793D01*
X89911819Y-87538151D01*
X90652351Y-86797619D01*
X91445460Y-86004511D01*
X91485021Y-85935989D01*
X91505500Y-85859562D01*
X91505500Y-84451496D01*
X91525185Y-84384457D01*
X91575039Y-84340095D01*
X91581347Y-84337012D01*
X91667012Y-84251347D01*
X91720220Y-84142509D01*
X91730500Y-84071949D01*
X91730499Y-82962674D01*
X91750184Y-82895636D01*
X91802987Y-82849881D01*
X91872146Y-82839937D01*
X91935702Y-82868962D01*
X91942180Y-82874994D01*
X91967686Y-82900500D01*
X92081814Y-82966392D01*
X92209108Y-83000500D01*
X92340892Y-83000500D01*
X92341324Y-83000500D01*
X92408363Y-83020185D01*
X92429005Y-83036819D01*
X92888181Y-83495994D01*
X92921666Y-83557317D01*
X92924500Y-83583675D01*
X92924500Y-83924166D01*
X92904815Y-83991205D01*
X92888181Y-84011847D01*
X92615489Y-84284540D01*
X92559541Y-84340487D01*
X92559535Y-84340495D01*
X92519982Y-84409004D01*
X92519979Y-84409009D01*
X92511782Y-84439602D01*
X92499500Y-84485438D01*
X92499500Y-85514562D01*
X92519979Y-85590989D01*
X92525681Y-85600865D01*
X92533469Y-85614355D01*
X92559537Y-85659507D01*
X92559539Y-85659510D01*
X92559540Y-85659511D01*
X93244540Y-86344511D01*
X93300489Y-86400460D01*
X93300491Y-86400461D01*
X93300495Y-86400464D01*
X93369004Y-86440017D01*
X93369011Y-86440021D01*
X93445438Y-86460500D01*
X93524562Y-86460500D01*
X95557003Y-86460500D01*
X95624042Y-86480185D01*
X95657923Y-86512450D01*
X95660805Y-86516487D01*
X95743514Y-86599196D01*
X95743515Y-86599196D01*
X95743517Y-86599198D01*
X95848607Y-86650573D01*
X95882673Y-86655536D01*
X95916739Y-86660500D01*
X95916740Y-86660500D01*
X97633261Y-86660500D01*
X97655971Y-86657191D01*
X97701393Y-86650573D01*
X97806483Y-86599198D01*
X97889198Y-86516483D01*
X97940573Y-86411393D01*
X97950500Y-86343260D01*
X97950500Y-86188432D01*
X97970185Y-86121393D01*
X98022989Y-86075638D01*
X98092147Y-86065694D01*
X98143391Y-86085330D01*
X98194735Y-86119637D01*
X98194745Y-86119642D01*
X98331232Y-86176177D01*
X98331240Y-86176179D01*
X98476126Y-86204999D01*
X98476129Y-86205000D01*
X98623871Y-86205000D01*
X98623873Y-86204999D01*
X98768760Y-86176179D01*
X98768775Y-86176175D01*
X98874024Y-86132578D01*
X98874024Y-86132577D01*
X98373223Y-85631777D01*
X98176555Y-85435109D01*
X98450000Y-85435109D01*
X98450000Y-85474891D01*
X98465224Y-85511645D01*
X98493355Y-85539776D01*
X98530109Y-85555000D01*
X98569891Y-85555000D01*
X98606645Y-85539776D01*
X98634776Y-85511645D01*
X98650000Y-85474891D01*
X98650000Y-85454999D01*
X98903554Y-85454999D01*
X98903554Y-85455001D01*
X99227929Y-85779376D01*
X99272069Y-85779376D01*
X99596446Y-85455000D01*
X99576555Y-85435109D01*
X99850000Y-85435109D01*
X99850000Y-85474891D01*
X99865224Y-85511645D01*
X99893355Y-85539776D01*
X99930109Y-85555000D01*
X99969891Y-85555000D01*
X100006645Y-85539776D01*
X100034776Y-85511645D01*
X100050000Y-85474891D01*
X100050000Y-85435109D01*
X100034776Y-85398355D01*
X100006645Y-85370224D01*
X99969891Y-85355000D01*
X99930109Y-85355000D01*
X99893355Y-85370224D01*
X99865224Y-85398355D01*
X99850000Y-85435109D01*
X99576555Y-85435109D01*
X99272068Y-85130622D01*
X99227930Y-85130622D01*
X98903554Y-85454999D01*
X98650000Y-85454999D01*
X98650000Y-85435109D01*
X98634776Y-85398355D01*
X98606645Y-85370224D01*
X98569891Y-85355000D01*
X98530109Y-85355000D01*
X98493355Y-85370224D01*
X98465224Y-85398355D01*
X98450000Y-85435109D01*
X98176555Y-85435109D01*
X97838650Y-85097204D01*
X97805165Y-85035881D01*
X97810149Y-84966189D01*
X97838650Y-84921842D01*
X97905492Y-84855000D01*
X98303554Y-84855000D01*
X98550000Y-85101446D01*
X98796446Y-84855000D01*
X99703554Y-84855000D01*
X99950000Y-85101446D01*
X100196446Y-84855000D01*
X99950000Y-84608554D01*
X99703554Y-84855000D01*
X98796446Y-84855000D01*
X98550000Y-84608554D01*
X98303554Y-84855000D01*
X97905492Y-84855000D01*
X97838650Y-84788158D01*
X97805165Y-84726835D01*
X97810149Y-84657143D01*
X97838650Y-84612796D01*
X98196446Y-84255000D01*
X98176555Y-84235109D01*
X98450000Y-84235109D01*
X98450000Y-84274891D01*
X98465224Y-84311645D01*
X98493355Y-84339776D01*
X98530109Y-84355000D01*
X98569891Y-84355000D01*
X98606645Y-84339776D01*
X98634776Y-84311645D01*
X98650000Y-84274891D01*
X98650000Y-84254999D01*
X98903554Y-84254999D01*
X98903554Y-84255001D01*
X99227929Y-84579376D01*
X99272069Y-84579376D01*
X99596446Y-84255000D01*
X99576555Y-84235109D01*
X99850000Y-84235109D01*
X99850000Y-84274891D01*
X99865224Y-84311645D01*
X99893355Y-84339776D01*
X99930109Y-84355000D01*
X99969891Y-84355000D01*
X100006645Y-84339776D01*
X100034776Y-84311645D01*
X100050000Y-84274891D01*
X100050000Y-84235109D01*
X100034776Y-84198355D01*
X100006645Y-84170224D01*
X99969891Y-84155000D01*
X99930109Y-84155000D01*
X99893355Y-84170224D01*
X99865224Y-84198355D01*
X99850000Y-84235109D01*
X99576555Y-84235109D01*
X99272068Y-83930622D01*
X99227930Y-83930622D01*
X98903554Y-84254999D01*
X98650000Y-84254999D01*
X98650000Y-84235109D01*
X98634776Y-84198355D01*
X98606645Y-84170224D01*
X98569891Y-84155000D01*
X98530109Y-84155000D01*
X98493355Y-84170224D01*
X98465224Y-84198355D01*
X98450000Y-84235109D01*
X98176555Y-84235109D01*
X97961235Y-84019789D01*
X97927750Y-83958466D01*
X97932734Y-83888774D01*
X97937517Y-83877645D01*
X97940572Y-83871395D01*
X97940571Y-83871395D01*
X97940573Y-83871393D01*
X97950500Y-83803260D01*
X97950500Y-83655000D01*
X98303554Y-83655000D01*
X98550000Y-83901446D01*
X98796446Y-83655000D01*
X99703554Y-83655000D01*
X99950000Y-83901446D01*
X100196446Y-83655000D01*
X99950000Y-83408554D01*
X99703554Y-83655000D01*
X98796446Y-83655000D01*
X98550000Y-83408554D01*
X98303554Y-83655000D01*
X97950500Y-83655000D01*
X97950500Y-83436740D01*
X97949075Y-83426961D01*
X97942201Y-83379779D01*
X97952014Y-83310602D01*
X97977224Y-83274220D01*
X98216336Y-83035109D01*
X98450000Y-83035109D01*
X98450000Y-83074891D01*
X98465224Y-83111645D01*
X98493355Y-83139776D01*
X98530109Y-83155000D01*
X98569891Y-83155000D01*
X98606645Y-83139776D01*
X98634776Y-83111645D01*
X98650000Y-83074891D01*
X98650000Y-83054999D01*
X98903554Y-83054999D01*
X98903554Y-83055001D01*
X99227929Y-83379376D01*
X99272069Y-83379376D01*
X99596446Y-83055000D01*
X99576555Y-83035109D01*
X99850000Y-83035109D01*
X99850000Y-83074891D01*
X99865224Y-83111645D01*
X99893355Y-83139776D01*
X99930109Y-83155000D01*
X99969891Y-83155000D01*
X100006645Y-83139776D01*
X100034776Y-83111645D01*
X100050000Y-83074891D01*
X100050000Y-83035109D01*
X100034776Y-82998355D01*
X100006645Y-82970224D01*
X99969891Y-82955000D01*
X99930109Y-82955000D01*
X99893355Y-82970224D01*
X99865224Y-82998355D01*
X99850000Y-83035109D01*
X99576555Y-83035109D01*
X99272068Y-82730622D01*
X99227930Y-82730622D01*
X98903554Y-83054999D01*
X98650000Y-83054999D01*
X98650000Y-83035109D01*
X98634776Y-82998355D01*
X98606645Y-82970224D01*
X98569891Y-82955000D01*
X98530109Y-82955000D01*
X98493355Y-82970224D01*
X98465224Y-82998355D01*
X98450000Y-83035109D01*
X98216336Y-83035109D01*
X98335489Y-82915957D01*
X98373223Y-82878223D01*
X98874024Y-82377421D01*
X98768767Y-82333822D01*
X98768759Y-82333820D01*
X98623872Y-82305000D01*
X98476131Y-82305000D01*
X98398190Y-82320503D01*
X98328599Y-82314275D01*
X98273422Y-82271411D01*
X98250178Y-82205521D01*
X98250000Y-82198885D01*
X98250000Y-82173500D01*
X98269685Y-82106461D01*
X98322489Y-82060706D01*
X98374000Y-82049500D01*
X100425500Y-82049500D01*
X100492539Y-82069185D01*
X100538294Y-82121989D01*
X100549500Y-82173500D01*
X100549500Y-82321567D01*
X100529815Y-82388606D01*
X100477011Y-82434361D01*
X100407853Y-82444305D01*
X100356611Y-82424670D01*
X100305267Y-82390364D01*
X100305254Y-82390357D01*
X100168767Y-82333822D01*
X100168759Y-82333820D01*
X100023872Y-82305000D01*
X99876128Y-82305000D01*
X99731240Y-82333820D01*
X99731228Y-82333823D01*
X99625974Y-82377420D01*
X99625974Y-82377421D01*
X100126777Y-82878223D01*
X100661350Y-83412796D01*
X100694835Y-83474119D01*
X100689851Y-83543811D01*
X100661350Y-83588158D01*
X100594508Y-83655000D01*
X100661350Y-83721842D01*
X100694835Y-83783165D01*
X100689851Y-83852857D01*
X100661350Y-83897204D01*
X100303554Y-84255000D01*
X100661350Y-84612796D01*
X100694835Y-84674119D01*
X100689851Y-84743811D01*
X100661350Y-84788158D01*
X100594508Y-84855000D01*
X100661350Y-84921842D01*
X100694835Y-84983165D01*
X100689851Y-85052857D01*
X100661350Y-85097204D01*
X100126777Y-85631777D01*
X99625975Y-86132577D01*
X99731236Y-86176178D01*
X99731240Y-86176179D01*
X99876126Y-86204999D01*
X99876129Y-86205000D01*
X100023871Y-86205000D01*
X100023873Y-86204999D01*
X100168759Y-86176179D01*
X100168767Y-86176177D01*
X100305254Y-86119642D01*
X100305264Y-86119637D01*
X100356609Y-86085330D01*
X100423287Y-86064452D01*
X100490667Y-86082937D01*
X100537357Y-86134915D01*
X100549500Y-86188432D01*
X100549500Y-86343260D01*
X100559426Y-86411391D01*
X100610803Y-86516485D01*
X100693514Y-86599196D01*
X100693515Y-86599196D01*
X100693517Y-86599198D01*
X100798607Y-86650573D01*
X100832673Y-86655536D01*
X100866739Y-86660500D01*
X100866740Y-86660500D01*
X102800890Y-86660500D01*
X102800892Y-86660500D01*
X102928186Y-86626392D01*
X103042314Y-86560500D01*
X103135500Y-86467314D01*
X103201392Y-86353186D01*
X103235500Y-86225892D01*
X103235500Y-86171543D01*
X103255185Y-86104504D01*
X103271819Y-86083862D01*
X103505587Y-85850094D01*
X104822500Y-85850094D01*
X104828901Y-85909622D01*
X104828903Y-85909629D01*
X104879145Y-86044336D01*
X104879149Y-86044343D01*
X104965309Y-86159437D01*
X104965312Y-86159440D01*
X105080406Y-86245600D01*
X105080413Y-86245604D01*
X105215120Y-86295846D01*
X105215127Y-86295848D01*
X105274655Y-86302249D01*
X105274672Y-86302250D01*
X105342500Y-86302250D01*
X105842500Y-86302250D01*
X105910328Y-86302250D01*
X105910344Y-86302249D01*
X105969872Y-86295848D01*
X105969879Y-86295846D01*
X106104586Y-86245604D01*
X106104593Y-86245600D01*
X106219687Y-86159440D01*
X106219690Y-86159437D01*
X106305850Y-86044343D01*
X106305854Y-86044336D01*
X106356096Y-85909629D01*
X106356098Y-85909622D01*
X106362499Y-85850094D01*
X106362500Y-85850077D01*
X106362500Y-85769400D01*
X105842500Y-85769400D01*
X105842500Y-86302250D01*
X105342500Y-86302250D01*
X105342500Y-85769400D01*
X104822500Y-85769400D01*
X104822500Y-85850094D01*
X103505587Y-85850094D01*
X103725324Y-85630357D01*
X104274479Y-85081202D01*
X104830470Y-84525211D01*
X104876614Y-84445287D01*
X104886442Y-84408608D01*
X104900500Y-84356143D01*
X104900500Y-83705946D01*
X104920185Y-83638907D01*
X104972989Y-83593152D01*
X105042147Y-83583208D01*
X105105703Y-83612233D01*
X105127602Y-83637055D01*
X105177947Y-83712402D01*
X105244269Y-83756717D01*
X105244270Y-83756718D01*
X105302747Y-83768349D01*
X105302750Y-83768350D01*
X105302752Y-83768350D01*
X105599517Y-83768350D01*
X105602020Y-83769085D01*
X105604553Y-83768452D01*
X105635366Y-83778876D01*
X105666556Y-83788035D01*
X105669025Y-83790263D01*
X105670737Y-83790843D01*
X105687198Y-83804669D01*
X105775211Y-83892682D01*
X105808696Y-83954005D01*
X105803712Y-84023697D01*
X105761840Y-84079630D01*
X105749536Y-84087746D01*
X105737344Y-84094786D01*
X105730726Y-84098607D01*
X105711789Y-84109539D01*
X105711787Y-84109541D01*
X105687198Y-84134131D01*
X105625875Y-84167616D01*
X105599517Y-84170450D01*
X105302747Y-84170450D01*
X105244270Y-84182081D01*
X105244269Y-84182082D01*
X105177948Y-84226396D01*
X105144402Y-84276601D01*
X105144401Y-84276602D01*
X105133633Y-84292719D01*
X105122000Y-84351202D01*
X105122000Y-84478236D01*
X105122000Y-84699993D01*
X105102315Y-84767032D01*
X105072312Y-84799259D01*
X104965309Y-84879362D01*
X104879149Y-84994456D01*
X104879145Y-84994463D01*
X104828903Y-85129170D01*
X104828901Y-85129177D01*
X104822500Y-85188705D01*
X104822500Y-85269400D01*
X106362500Y-85269400D01*
X106362500Y-85188722D01*
X106362499Y-85188705D01*
X106356098Y-85129177D01*
X106356096Y-85129170D01*
X106305854Y-84994463D01*
X106305850Y-84994456D01*
X106219690Y-84879362D01*
X106219688Y-84879360D01*
X106212214Y-84873765D01*
X106193820Y-84849193D01*
X106173733Y-84826011D01*
X106173082Y-84821489D01*
X106170344Y-84817831D01*
X106168155Y-84787219D01*
X106163789Y-84756853D01*
X106165686Y-84752697D01*
X106165361Y-84748139D01*
X106180066Y-84721209D01*
X106192814Y-84693297D01*
X106196658Y-84690826D01*
X106198848Y-84686817D01*
X106225775Y-84672114D01*
X106251592Y-84655523D01*
X106257794Y-84654631D01*
X106260172Y-84653333D01*
X106286527Y-84650500D01*
X106294503Y-84650500D01*
X106361542Y-84670185D01*
X106395423Y-84702450D01*
X106398305Y-84706487D01*
X106481014Y-84789196D01*
X106481015Y-84789196D01*
X106481017Y-84789198D01*
X106586107Y-84840573D01*
X106592909Y-84841564D01*
X106654239Y-84850500D01*
X106654240Y-84850500D01*
X107745761Y-84850500D01*
X107781628Y-84845274D01*
X107813893Y-84840573D01*
X107918983Y-84789198D01*
X108001698Y-84706483D01*
X108053073Y-84601393D01*
X108063000Y-84533260D01*
X108063000Y-84168032D01*
X108082685Y-84100993D01*
X108111010Y-84070045D01*
X108114061Y-84067678D01*
X108230178Y-83951561D01*
X108230185Y-83951552D01*
X108313781Y-83810198D01*
X108359600Y-83652486D01*
X108359795Y-83650001D01*
X108359795Y-83650000D01*
X107324000Y-83650000D01*
X107256961Y-83630315D01*
X107211206Y-83577511D01*
X107200000Y-83526000D01*
X107200000Y-83274000D01*
X107219685Y-83206961D01*
X107272489Y-83161206D01*
X107324000Y-83150000D01*
X108359795Y-83150000D01*
X108359795Y-83149998D01*
X108359600Y-83147513D01*
X108313781Y-82989801D01*
X108230185Y-82848447D01*
X108230178Y-82848438D01*
X108114059Y-82732319D01*
X108110996Y-82729943D01*
X108109210Y-82727470D01*
X108108540Y-82726800D01*
X108108648Y-82726691D01*
X108070091Y-82673299D01*
X108063000Y-82631966D01*
X108063000Y-82266739D01*
X108054080Y-82205521D01*
X108053073Y-82198607D01*
X108001698Y-82093517D01*
X108001696Y-82093515D01*
X108001696Y-82093514D01*
X107918985Y-82010803D01*
X107906701Y-82004798D01*
X107813893Y-81959427D01*
X107813891Y-81959426D01*
X107745761Y-81949500D01*
X107745760Y-81949500D01*
X106898933Y-81949500D01*
X106831894Y-81929815D01*
X106811252Y-81913181D01*
X106310252Y-81412181D01*
X106276767Y-81350858D01*
X106281751Y-81281166D01*
X106323623Y-81225233D01*
X106389087Y-81200816D01*
X106397933Y-81200500D01*
X107447950Y-81200500D01*
X107456635Y-81203050D01*
G37*
%TD.AperFunction*%
%TA.AperFunction,Conductor*%
G36*
X93257665Y-91486793D02*
G01*
X93291465Y-91489211D01*
X93292386Y-91489900D01*
X93293530Y-91490003D01*
X93320277Y-91510780D01*
X93347398Y-91531083D01*
X93348122Y-91532410D01*
X93348708Y-91532865D01*
X93364313Y-91562060D01*
X93386645Y-91621936D01*
X93386649Y-91621943D01*
X93472809Y-91737037D01*
X93472812Y-91737040D01*
X93579811Y-91817140D01*
X93621682Y-91873073D01*
X93629500Y-91916406D01*
X93629500Y-92489802D01*
X93639795Y-92541559D01*
X93633568Y-92611151D01*
X93590704Y-92666328D01*
X93564002Y-92675747D01*
X93550000Y-92689750D01*
X93550000Y-93460800D01*
X93530315Y-93527839D01*
X93477511Y-93573594D01*
X93426000Y-93584800D01*
X93174000Y-93584800D01*
X93106961Y-93565115D01*
X93061206Y-93512311D01*
X93050000Y-93460800D01*
X93050000Y-92689750D01*
X92982155Y-92689750D01*
X92922627Y-92696151D01*
X92922616Y-92696153D01*
X92867832Y-92716587D01*
X92798141Y-92721571D01*
X92736818Y-92688085D01*
X92703333Y-92626762D01*
X92700500Y-92600405D01*
X92700500Y-91621544D01*
X92709144Y-91592103D01*
X92715668Y-91562117D01*
X92719422Y-91557101D01*
X92720185Y-91554505D01*
X92736819Y-91533863D01*
X92738813Y-91531869D01*
X92800136Y-91498384D01*
X92826494Y-91495550D01*
X93164749Y-91495550D01*
X93212221Y-91486107D01*
X93223231Y-91483917D01*
X93223231Y-91483916D01*
X93223939Y-91483776D01*
X93257665Y-91486793D01*
G37*
%TD.AperFunction*%
%TA.AperFunction,Conductor*%
G36*
X105292206Y-80570185D02*
G01*
X105337961Y-80622989D01*
X105347905Y-80692147D01*
X105318880Y-80755703D01*
X105312848Y-80762181D01*
X105127041Y-80947987D01*
X105127035Y-80947995D01*
X105087482Y-81016504D01*
X105087477Y-81016515D01*
X105073873Y-81067285D01*
X105058474Y-81102136D01*
X105048500Y-81117685D01*
X105043876Y-81120776D01*
X104982985Y-81211905D01*
X104980699Y-81223393D01*
X104968033Y-81243142D01*
X104958563Y-81251361D01*
X104952729Y-81262466D01*
X104951339Y-81263877D01*
X104269531Y-81945686D01*
X104269529Y-81945689D01*
X104260988Y-81960483D01*
X104242793Y-81991998D01*
X104223386Y-82025612D01*
X104216986Y-82049494D01*
X104212612Y-82059023D01*
X104196279Y-82077795D01*
X104183328Y-82099042D01*
X104173744Y-82103696D01*
X104166751Y-82111735D01*
X104142860Y-82118697D01*
X104120480Y-82129568D01*
X104109901Y-82128302D01*
X104099672Y-82131284D01*
X104075809Y-82124225D01*
X104051104Y-82121270D01*
X104042888Y-82114486D01*
X104032672Y-82111464D01*
X104016414Y-82092625D01*
X103997228Y-82076782D01*
X103996819Y-82076174D01*
X103989552Y-82065298D01*
X103979108Y-82058319D01*
X103923230Y-82020982D01*
X103923229Y-82020981D01*
X103864752Y-82009350D01*
X103864748Y-82009350D01*
X103285252Y-82009350D01*
X103285247Y-82009350D01*
X103226770Y-82020981D01*
X103226769Y-82020982D01*
X103215366Y-82028602D01*
X103197319Y-82034252D01*
X103181410Y-82044477D01*
X103150450Y-82048928D01*
X103148689Y-82049480D01*
X103146475Y-82049500D01*
X102942997Y-82049500D01*
X102875958Y-82029815D01*
X102842077Y-81997550D01*
X102839194Y-81993512D01*
X102756485Y-81910803D01*
X102651391Y-81859426D01*
X102583261Y-81849500D01*
X102583260Y-81849500D01*
X101700833Y-81849500D01*
X101633794Y-81829815D01*
X101613152Y-81813181D01*
X101308512Y-81508541D01*
X101308511Y-81508540D01*
X101287712Y-81496532D01*
X101287712Y-81496530D01*
X101287709Y-81496530D01*
X101239994Y-81468981D01*
X101239991Y-81468979D01*
X101201775Y-81458739D01*
X101163562Y-81448500D01*
X95536438Y-81448500D01*
X95505867Y-81456691D01*
X95460008Y-81468979D01*
X95460007Y-81468980D01*
X95412289Y-81496531D01*
X95412288Y-81496532D01*
X95391490Y-81508539D01*
X95391487Y-81508541D01*
X93941602Y-82958425D01*
X93933658Y-82962762D01*
X93928234Y-82970009D01*
X93903472Y-82979245D01*
X93880279Y-82991910D01*
X93871251Y-82991264D01*
X93862770Y-82994428D01*
X93836946Y-82988811D01*
X93810587Y-82986926D01*
X93801535Y-82981108D01*
X93794497Y-82979578D01*
X93766256Y-82958437D01*
X93766242Y-82958428D01*
X93758314Y-82950500D01*
X93732314Y-82924500D01*
X93732311Y-82924498D01*
X92907314Y-82099500D01*
X92820679Y-82049481D01*
X92793187Y-82033608D01*
X92729539Y-82016554D01*
X92665892Y-81999500D01*
X92340892Y-81999500D01*
X92209108Y-81999500D01*
X92081812Y-82033608D01*
X91967686Y-82099500D01*
X91967683Y-82099502D01*
X91874502Y-82192683D01*
X91874500Y-82192686D01*
X91809031Y-82306082D01*
X91808608Y-82306814D01*
X91788450Y-82382047D01*
X91752085Y-82441707D01*
X91689238Y-82472236D01*
X91619862Y-82463941D01*
X91589915Y-82443672D01*
X91589711Y-82443959D01*
X91581348Y-82437988D01*
X91472511Y-82384780D01*
X91453750Y-82382047D01*
X91401949Y-82374500D01*
X91401943Y-82374500D01*
X91008049Y-82374500D01*
X90937493Y-82384779D01*
X90828650Y-82437989D01*
X90742988Y-82523651D01*
X90689780Y-82632488D01*
X90688473Y-82636721D01*
X90685571Y-82641098D01*
X90685550Y-82641143D01*
X90685544Y-82641140D01*
X90649873Y-82694961D01*
X90585914Y-82723087D01*
X90516903Y-82712169D01*
X90464750Y-82665674D01*
X90451528Y-82636724D01*
X90450220Y-82632494D01*
X90450220Y-82632491D01*
X90397012Y-82523653D01*
X90397010Y-82523651D01*
X90397010Y-82523650D01*
X90311348Y-82437988D01*
X90202511Y-82384780D01*
X90183750Y-82382047D01*
X90131949Y-82374500D01*
X90131943Y-82374500D01*
X89738049Y-82374500D01*
X89667493Y-82384779D01*
X89558650Y-82437989D01*
X89472988Y-82523651D01*
X89419780Y-82632488D01*
X89418473Y-82636721D01*
X89415571Y-82641098D01*
X89415550Y-82641143D01*
X89415544Y-82641140D01*
X89379873Y-82694961D01*
X89315914Y-82723087D01*
X89246903Y-82712169D01*
X89194750Y-82665674D01*
X89181528Y-82636724D01*
X89180220Y-82632494D01*
X89180220Y-82632491D01*
X89127012Y-82523653D01*
X89127010Y-82523651D01*
X89127010Y-82523650D01*
X89041348Y-82437988D01*
X88932511Y-82384780D01*
X88913750Y-82382047D01*
X88861949Y-82374500D01*
X88861943Y-82374500D01*
X88468049Y-82374500D01*
X88397493Y-82384779D01*
X88283978Y-82440273D01*
X88215105Y-82452031D01*
X88150808Y-82424688D01*
X88123401Y-82393022D01*
X88082836Y-82325919D01*
X87969080Y-82212163D01*
X87831396Y-82128929D01*
X87677794Y-82081066D01*
X87645000Y-82078085D01*
X87645000Y-84696914D01*
X87677792Y-84693935D01*
X87677802Y-84693932D01*
X87831392Y-84646072D01*
X87969080Y-84562836D01*
X88082835Y-84449081D01*
X88082838Y-84449077D01*
X88123401Y-84381978D01*
X88124577Y-84380900D01*
X88125024Y-84379366D01*
X88150261Y-84357378D01*
X88174928Y-84334790D01*
X88176501Y-84334519D01*
X88177706Y-84333470D01*
X88210814Y-84328620D01*
X88243787Y-84322951D01*
X88245766Y-84323499D01*
X88246838Y-84323343D01*
X88262400Y-84328112D01*
X88280729Y-84333196D01*
X88288245Y-84336604D01*
X88288653Y-84337012D01*
X88397491Y-84390220D01*
X88410735Y-84392149D01*
X88426711Y-84399394D01*
X88440422Y-84411211D01*
X88456877Y-84418763D01*
X88466340Y-84433549D01*
X88479636Y-84445008D01*
X88484782Y-84462363D01*
X88494542Y-84477612D01*
X88499408Y-84511686D01*
X88499500Y-84511994D01*
X88499468Y-84512103D01*
X88499500Y-84512325D01*
X88499500Y-84566323D01*
X88479815Y-84633362D01*
X88463182Y-84654004D01*
X88399500Y-84717686D01*
X88333608Y-84831812D01*
X88300226Y-84956398D01*
X88299500Y-84959108D01*
X88299500Y-85090892D01*
X88309758Y-85129177D01*
X88333608Y-85218187D01*
X88363176Y-85269400D01*
X88399500Y-85332314D01*
X88492686Y-85425500D01*
X88606814Y-85491392D01*
X88734108Y-85525500D01*
X88734110Y-85525500D01*
X88865890Y-85525500D01*
X88865892Y-85525500D01*
X88993186Y-85491392D01*
X89107314Y-85425500D01*
X89200500Y-85332314D01*
X89266392Y-85218186D01*
X89269368Y-85207076D01*
X89305732Y-85147417D01*
X89368578Y-85116887D01*
X89437954Y-85125181D01*
X89491832Y-85169665D01*
X89496523Y-85177159D01*
X89499500Y-85182314D01*
X89592686Y-85275500D01*
X89706814Y-85341392D01*
X89834108Y-85375500D01*
X89834110Y-85375500D01*
X89965890Y-85375500D01*
X89965892Y-85375500D01*
X90093186Y-85341392D01*
X90207314Y-85275500D01*
X90300500Y-85182314D01*
X90366392Y-85068186D01*
X90400500Y-84940892D01*
X90400500Y-84809108D01*
X90366392Y-84681814D01*
X90300500Y-84567686D01*
X90271934Y-84539120D01*
X90238449Y-84477797D01*
X90243433Y-84408105D01*
X90285305Y-84352172D01*
X90305154Y-84340039D01*
X90311347Y-84337012D01*
X90397012Y-84251347D01*
X90450220Y-84142509D01*
X90450221Y-84142501D01*
X90451523Y-84138288D01*
X90454424Y-84133909D01*
X90454450Y-84133857D01*
X90454456Y-84133860D01*
X90490117Y-84080045D01*
X90554074Y-84051914D01*
X90623086Y-84062826D01*
X90675244Y-84109316D01*
X90688469Y-84138270D01*
X90689776Y-84142500D01*
X90689779Y-84142507D01*
X90689780Y-84142509D01*
X90718042Y-84200319D01*
X90742989Y-84251349D01*
X90828650Y-84337010D01*
X90828651Y-84337010D01*
X90828653Y-84337012D01*
X90834960Y-84340095D01*
X90886542Y-84387223D01*
X90904500Y-84451496D01*
X90904500Y-85644166D01*
X90884815Y-85711205D01*
X90868181Y-85731847D01*
X89486847Y-87113181D01*
X89425524Y-87146666D01*
X89399166Y-87149500D01*
X89309108Y-87149500D01*
X89181812Y-87183608D01*
X89067686Y-87249500D01*
X89067683Y-87249502D01*
X88974502Y-87342683D01*
X88974500Y-87342686D01*
X88908608Y-87456812D01*
X88874500Y-87584108D01*
X88874500Y-87715891D01*
X88908608Y-87843187D01*
X88934686Y-87888354D01*
X88974500Y-87957314D01*
X89067686Y-88050500D01*
X89098193Y-88068113D01*
X89146408Y-88118681D01*
X89159630Y-88187288D01*
X89133662Y-88252152D01*
X89076748Y-88292680D01*
X89036192Y-88299500D01*
X85460633Y-88299500D01*
X85431192Y-88290855D01*
X85401206Y-88284332D01*
X85396190Y-88280577D01*
X85393594Y-88279815D01*
X85372952Y-88263181D01*
X85266452Y-88156681D01*
X85232967Y-88095358D01*
X85237951Y-88025666D01*
X85279823Y-87969733D01*
X85345287Y-87945316D01*
X85354133Y-87945000D01*
X85392878Y-87945000D01*
X85392894Y-87944999D01*
X85452422Y-87938598D01*
X85452429Y-87938596D01*
X85587136Y-87888354D01*
X85587143Y-87888350D01*
X85702237Y-87802190D01*
X85702240Y-87802187D01*
X85788400Y-87687093D01*
X85788404Y-87687086D01*
X85838646Y-87552379D01*
X85838648Y-87552372D01*
X85845049Y-87492844D01*
X85845050Y-87492827D01*
X85845050Y-87425000D01*
X85074000Y-87425000D01*
X85006961Y-87405315D01*
X84961206Y-87352511D01*
X84950000Y-87301000D01*
X84950000Y-87049000D01*
X84969685Y-86981961D01*
X85022489Y-86936206D01*
X85074000Y-86925000D01*
X85845050Y-86925000D01*
X85845050Y-86857172D01*
X85845049Y-86857155D01*
X85838648Y-86797627D01*
X85838646Y-86797619D01*
X85808702Y-86717333D01*
X85803718Y-86647641D01*
X85837203Y-86586318D01*
X85898527Y-86552834D01*
X85924884Y-86550000D01*
X86250000Y-86550000D01*
X86250000Y-84091043D01*
X86570000Y-84091043D01*
X86576065Y-84157792D01*
X86623929Y-84311396D01*
X86707163Y-84449080D01*
X86820919Y-84562836D01*
X86958607Y-84646072D01*
X86958606Y-84646072D01*
X87112197Y-84693932D01*
X87112207Y-84693935D01*
X87144999Y-84696914D01*
X87145000Y-84696914D01*
X87145000Y-83637500D01*
X86570000Y-83637500D01*
X86570000Y-84091043D01*
X86250000Y-84091043D01*
X86250000Y-82683956D01*
X86570000Y-82683956D01*
X86570000Y-83137500D01*
X87145000Y-83137500D01*
X87145000Y-82078085D01*
X87144999Y-82078085D01*
X87112205Y-82081066D01*
X86958603Y-82128929D01*
X86820919Y-82212163D01*
X86707163Y-82325919D01*
X86623929Y-82463603D01*
X86576065Y-82617207D01*
X86570000Y-82683956D01*
X86250000Y-82683956D01*
X86250000Y-80674500D01*
X86269685Y-80607461D01*
X86322489Y-80561706D01*
X86374000Y-80550500D01*
X105225167Y-80550500D01*
X105292206Y-80570185D01*
G37*
%TD.AperFunction*%
%TA.AperFunction,Conductor*%
G36*
X95718039Y-84435285D02*
G01*
X95763794Y-84488089D01*
X95775000Y-84539600D01*
X95775000Y-84640000D01*
X96651000Y-84640000D01*
X96718039Y-84659685D01*
X96763794Y-84712489D01*
X96775000Y-84764000D01*
X96775000Y-85016000D01*
X96755315Y-85083039D01*
X96702511Y-85128794D01*
X96651000Y-85140000D01*
X95294000Y-85140000D01*
X95226961Y-85120315D01*
X95181206Y-85067511D01*
X95170000Y-85016000D01*
X95170000Y-84915600D01*
X95125000Y-84915600D01*
X95125000Y-85448450D01*
X95192828Y-85448450D01*
X95192844Y-85448449D01*
X95252372Y-85442048D01*
X95252380Y-85442046D01*
X95309125Y-85420881D01*
X95378816Y-85415895D01*
X95440140Y-85449379D01*
X95440141Y-85449381D01*
X95548438Y-85557678D01*
X95548446Y-85557684D01*
X95635925Y-85609419D01*
X95648420Y-85622801D01*
X95664106Y-85632247D01*
X95671769Y-85647809D01*
X95683608Y-85660488D01*
X95686884Y-85678501D01*
X95694974Y-85694928D01*
X95693007Y-85712163D01*
X95696112Y-85729230D01*
X95689129Y-85746155D01*
X95687054Y-85764348D01*
X95673020Y-85785205D01*
X95669467Y-85793819D01*
X95668848Y-85794583D01*
X95664893Y-85799425D01*
X95660802Y-85803517D01*
X95659683Y-85805805D01*
X95653047Y-85813932D01*
X95627404Y-85831489D01*
X95602949Y-85850674D01*
X95597998Y-85851624D01*
X95595396Y-85853407D01*
X95587525Y-85853636D01*
X95557003Y-85859500D01*
X94212280Y-85859500D01*
X94145241Y-85839815D01*
X94099486Y-85787011D01*
X94089542Y-85717853D01*
X94113013Y-85661189D01*
X94138352Y-85627339D01*
X94138354Y-85627336D01*
X94188596Y-85492629D01*
X94188676Y-85491893D01*
X94188896Y-85491359D01*
X94190380Y-85485082D01*
X94191397Y-85485322D01*
X94215413Y-85427341D01*
X94272805Y-85387492D01*
X94342630Y-85384997D01*
X94355299Y-85388964D01*
X94497620Y-85442046D01*
X94497627Y-85442048D01*
X94557155Y-85448449D01*
X94557172Y-85448450D01*
X94625000Y-85448450D01*
X94625000Y-84789600D01*
X94644685Y-84722561D01*
X94697489Y-84676806D01*
X94749000Y-84665600D01*
X94875000Y-84665600D01*
X94875000Y-84539600D01*
X94894685Y-84472561D01*
X94947489Y-84426806D01*
X94999000Y-84415600D01*
X95651000Y-84415600D01*
X95718039Y-84435285D01*
G37*
%TD.AperFunction*%
%TA.AperFunction,Conductor*%
G36*
X103273039Y-83389685D02*
G01*
X103291486Y-83410975D01*
X103293681Y-83408781D01*
X103330000Y-83445100D01*
X103451000Y-83445100D01*
X103518039Y-83464785D01*
X103563794Y-83517589D01*
X103575000Y-83569100D01*
X103575000Y-83695100D01*
X103701000Y-83695100D01*
X103768039Y-83714785D01*
X103813794Y-83767589D01*
X103825000Y-83819100D01*
X103825000Y-84487954D01*
X103805315Y-84554993D01*
X103788681Y-84575635D01*
X103260635Y-85103681D01*
X103199312Y-85137166D01*
X103172954Y-85140000D01*
X101849000Y-85140000D01*
X101781961Y-85120315D01*
X101736206Y-85067511D01*
X101725000Y-85016000D01*
X101725000Y-84890000D01*
X101599000Y-84890000D01*
X101531961Y-84870315D01*
X101486206Y-84817511D01*
X101475000Y-84766000D01*
X101475000Y-84640000D01*
X101975000Y-84640000D01*
X103197296Y-84640000D01*
X103206559Y-84629979D01*
X103266520Y-84594112D01*
X103297615Y-84590150D01*
X103325000Y-84590150D01*
X103325000Y-83945100D01*
X102799000Y-83945100D01*
X102731961Y-83925415D01*
X102713513Y-83904124D01*
X102711319Y-83906319D01*
X102675000Y-83870000D01*
X101975000Y-83870000D01*
X101975000Y-84640000D01*
X101475000Y-84640000D01*
X101475000Y-83744000D01*
X101494685Y-83676961D01*
X101547489Y-83631206D01*
X101599000Y-83620000D01*
X101725000Y-83620000D01*
X101725000Y-83494000D01*
X101744685Y-83426961D01*
X101797489Y-83381206D01*
X101849000Y-83370000D01*
X103206000Y-83370000D01*
X103273039Y-83389685D01*
G37*
%TD.AperFunction*%
%TA.AperFunction,Conductor*%
G36*
X96968039Y-82069185D02*
G01*
X97013794Y-82121989D01*
X97025000Y-82173500D01*
X97025000Y-82226000D01*
X97005315Y-82293039D01*
X96952511Y-82338794D01*
X96901000Y-82350000D01*
X96649000Y-82350000D01*
X96640314Y-82347449D01*
X96631353Y-82348738D01*
X96607312Y-82337759D01*
X96581961Y-82330315D01*
X96576033Y-82323474D01*
X96567797Y-82319713D01*
X96553507Y-82297478D01*
X96536206Y-82277511D01*
X96533918Y-82266996D01*
X96530023Y-82260935D01*
X96525000Y-82226000D01*
X96525000Y-82173500D01*
X96544685Y-82106461D01*
X96597489Y-82060706D01*
X96649000Y-82049500D01*
X96901000Y-82049500D01*
X96968039Y-82069185D01*
G37*
%TD.AperFunction*%
%TD*%
M02*
