%TF.GenerationSoftware,KiCad,Pcbnew,9.0.2*%
%TF.CreationDate,2025-12-06T23:29:51-05:00*%
%TF.ProjectId,taskmonitor,7461736b-6d6f-46e6-9974-6f722e6b6963,rev?*%
%TF.SameCoordinates,Original*%
%TF.FileFunction,Soldermask,Top*%
%TF.FilePolarity,Negative*%
%FSLAX46Y46*%
G04 Gerber Fmt 4.6, Leading zero omitted, Abs format (unit mm)*
G04 Created by KiCad (PCBNEW 9.0.2) date 2025-12-06 23:29:51*
%MOMM*%
%LPD*%
G01*
G04 APERTURE LIST*
G04 Aperture macros list*
%AMRoundRect*
0 Rectangle with rounded corners*
0 $1 Rounding radius*
0 $2 $3 $4 $5 $6 $7 $8 $9 X,Y pos of 4 corners*
0 Add a 4 corners polygon primitive as box body*
4,1,4,$2,$3,$4,$5,$6,$7,$8,$9,$2,$3,0*
0 Add four circle primitives for the rounded corners*
1,1,$1+$1,$2,$3*
1,1,$1+$1,$4,$5*
1,1,$1+$1,$6,$7*
1,1,$1+$1,$8,$9*
0 Add four rect primitives between the rounded corners*
20,1,$1+$1,$2,$3,$4,$5,0*
20,1,$1+$1,$4,$5,$6,$7,0*
20,1,$1+$1,$6,$7,$8,$9,0*
20,1,$1+$1,$8,$9,$2,$3,0*%
G04 Aperture macros list end*
%ADD10RoundRect,0.200000X0.200000X0.800000X-0.200000X0.800000X-0.200000X-0.800000X0.200000X-0.800000X0*%
%ADD11R,1.800000X1.000000*%
%ADD12RoundRect,0.050800X0.270000X-0.395050X0.270000X0.395050X-0.270000X0.395050X-0.270000X-0.395050X0*%
%ADD13RoundRect,0.050800X-0.270000X0.282850X-0.270000X-0.282850X0.270000X-0.282850X0.270000X0.282850X0*%
%ADD14RoundRect,0.050800X-0.270000X0.395050X-0.270000X-0.395050X0.270000X-0.395050X0.270000X0.395050X0*%
%ADD15RoundRect,0.050800X0.270000X-0.282850X0.270000X0.282850X-0.270000X0.282850X-0.270000X-0.282850X0*%
%ADD16RoundRect,0.050800X0.395050X0.270000X-0.395050X0.270000X-0.395050X-0.270000X0.395050X-0.270000X0*%
%ADD17RoundRect,0.200000X0.800000X-0.200000X0.800000X0.200000X-0.800000X0.200000X-0.800000X-0.200000X0*%
%ADD18RoundRect,0.150000X-0.825000X-0.150000X0.825000X-0.150000X0.825000X0.150000X-0.825000X0.150000X0*%
%ADD19R,2.410000X3.300000*%
%ADD20RoundRect,0.150000X0.150000X-0.512500X0.150000X0.512500X-0.150000X0.512500X-0.150000X-0.512500X0*%
%ADD21RoundRect,0.062500X-0.337500X-0.062500X0.337500X-0.062500X0.337500X0.062500X-0.337500X0.062500X0*%
%ADD22RoundRect,0.062500X-0.062500X-0.337500X0.062500X-0.337500X0.062500X0.337500X-0.062500X0.337500X0*%
%ADD23R,3.700000X3.700000*%
%ADD24RoundRect,0.075000X-0.387500X-0.075000X0.387500X-0.075000X0.387500X0.075000X-0.387500X0.075000X0*%
%ADD25RoundRect,0.075000X-0.075000X-0.325000X0.075000X-0.325000X0.075000X0.325000X-0.075000X0.325000X0*%
%ADD26RoundRect,0.075000X0.125000X0.075000X-0.125000X0.075000X-0.125000X-0.075000X0.125000X-0.075000X0*%
%ADD27RoundRect,0.162500X-0.162500X0.650000X-0.162500X-0.650000X0.162500X-0.650000X0.162500X0.650000X0*%
%ADD28RoundRect,0.102000X0.650000X-0.150000X0.650000X0.150000X-0.650000X0.150000X-0.650000X-0.150000X0*%
%ADD29RoundRect,0.102000X1.100000X-0.900000X1.100000X0.900000X-1.100000X0.900000X-1.100000X-0.900000X0*%
%ADD30RoundRect,0.050800X-0.282850X-0.270000X0.282850X-0.270000X0.282850X0.270000X-0.282850X0.270000X0*%
%ADD31RoundRect,0.050800X-0.300000X-0.875000X0.300000X-0.875000X0.300000X0.875000X-0.300000X0.875000X0*%
%ADD32RoundRect,0.050800X-0.725000X-0.500000X0.725000X-0.500000X0.725000X0.500000X-0.725000X0.500000X0*%
%ADD33RoundRect,0.050800X-0.500000X-0.775000X0.500000X-0.775000X0.500000X0.775000X-0.500000X0.775000X0*%
%ADD34RoundRect,0.050800X-0.400000X-0.750000X0.400000X-0.750000X0.400000X0.750000X-0.400000X0.750000X0*%
%ADD35RoundRect,0.050800X-0.400000X-0.700000X0.400000X-0.700000X0.400000X0.700000X-0.400000X0.700000X0*%
%ADD36RoundRect,0.050800X-0.750000X-0.750000X0.750000X-0.750000X0.750000X0.750000X-0.750000X0.750000X0*%
%ADD37RoundRect,0.050800X-0.650000X-0.750000X0.650000X-0.750000X0.650000X0.750000X-0.650000X0.750000X0*%
%ADD38RoundRect,0.050800X0.282850X0.270000X-0.282850X0.270000X-0.282850X-0.270000X0.282850X-0.270000X0*%
%ADD39R,2.500000X2.500000*%
%ADD40C,4.000000*%
%ADD41RoundRect,0.150000X-0.512500X-0.150000X0.512500X-0.150000X0.512500X0.150000X-0.512500X0.150000X0*%
%ADD42RoundRect,0.250000X-0.625000X0.375000X-0.625000X-0.375000X0.625000X-0.375000X0.625000X0.375000X0*%
%ADD43C,0.650000*%
%ADD44O,1.600000X1.000000*%
%ADD45O,2.100000X1.000000*%
G04 APERTURE END LIST*
D10*
%TO.C,BOOT1*%
X75625000Y-106850000D03*
X71425000Y-106850000D03*
%TD*%
D11*
%TO.C,Y1*%
X95925000Y-91650000D03*
X95925000Y-89150000D03*
%TD*%
D12*
%TO.C,C2*%
X70975000Y-93300000D03*
X70975000Y-92209800D03*
%TD*%
D13*
%TO.C,R9*%
X94575000Y-93909400D03*
X94575000Y-94775000D03*
%TD*%
D14*
%TO.C,C18*%
X110575000Y-96900000D03*
X110575000Y-97990200D03*
%TD*%
D15*
%TO.C,R2*%
X94875000Y-84665600D03*
X94875000Y-83800000D03*
%TD*%
D16*
%TO.C,C20*%
X115220100Y-110275000D03*
X114129900Y-110275000D03*
%TD*%
D17*
%TO.C,SW1*%
X115700000Y-86200000D03*
X115700000Y-82000000D03*
%TD*%
D15*
%TO.C,R5*%
X96650000Y-105315600D03*
X96650000Y-104450000D03*
%TD*%
D14*
%TO.C,C6*%
X70975000Y-89434800D03*
X70975000Y-90525000D03*
%TD*%
D18*
%TO.C,U2*%
X96775000Y-82350000D03*
X96775000Y-83620000D03*
X96775000Y-84890000D03*
X96775000Y-86160000D03*
X101725000Y-86160000D03*
X101725000Y-84890000D03*
X101725000Y-83620000D03*
X101725000Y-82350000D03*
D19*
X99250000Y-84255000D03*
%TD*%
D12*
%TO.C,C4*%
X103575000Y-83695100D03*
X103575000Y-82604900D03*
%TD*%
D20*
%TO.C,U7*%
X74550000Y-92100000D03*
X75500000Y-92100000D03*
X76450000Y-92100000D03*
X76450000Y-89825000D03*
X74550000Y-89825000D03*
%TD*%
D21*
%TO.C,U3*%
X92100000Y-97750000D03*
X92100000Y-98250000D03*
X92100000Y-98750000D03*
X92100000Y-99250000D03*
X92100000Y-99750000D03*
X92100000Y-100250000D03*
X92100000Y-100750000D03*
X92100000Y-101250000D03*
D22*
X92800000Y-101950000D03*
X93300000Y-101950000D03*
X93800000Y-101950000D03*
X94300000Y-101950000D03*
X94800000Y-101950000D03*
X95300000Y-101950000D03*
X95800000Y-101950000D03*
X96300000Y-101950000D03*
D21*
X97000000Y-101250000D03*
X97000000Y-100750000D03*
X97000000Y-100250000D03*
X97000000Y-99750000D03*
X97000000Y-99250000D03*
X97000000Y-98750000D03*
X97000000Y-98250000D03*
X97000000Y-97750000D03*
D22*
X96300000Y-97050000D03*
X95800000Y-97050000D03*
X95300000Y-97050000D03*
X94800000Y-97050000D03*
X94300000Y-97050000D03*
X93800000Y-97050000D03*
X93300000Y-97050000D03*
X92800000Y-97050000D03*
D23*
X94550000Y-99500000D03*
%TD*%
D24*
%TO.C,U6*%
X112850000Y-111825000D03*
X112850000Y-112325000D03*
X112850000Y-112825000D03*
X112850000Y-113325000D03*
X112850000Y-113825000D03*
D25*
X113637500Y-114100000D03*
X114137500Y-114100000D03*
X114637500Y-114100000D03*
D24*
X115425000Y-113825000D03*
X115425000Y-113325000D03*
X115425000Y-112825000D03*
X115425000Y-112325000D03*
X115425000Y-111825000D03*
D25*
X114637500Y-111550000D03*
X114137500Y-111550000D03*
X113637500Y-111550000D03*
%TD*%
D26*
%TO.C,L1*%
X82700000Y-86950000D03*
X82200000Y-86950000D03*
%TD*%
D12*
%TO.C,C13*%
X81200000Y-88415200D03*
X81200000Y-87325000D03*
%TD*%
D15*
%TO.C,R3*%
X79725000Y-95682800D03*
X79725000Y-94817200D03*
%TD*%
D26*
%TO.C,L2*%
X105867500Y-81394400D03*
X105367500Y-81394400D03*
%TD*%
D14*
%TO.C,C14*%
X93025000Y-113375000D03*
X93025000Y-114465200D03*
%TD*%
D27*
%TO.C,U4*%
X91205000Y-83387500D03*
X89935000Y-83387500D03*
X88665000Y-83387500D03*
X87395000Y-83387500D03*
X87395000Y-90562500D03*
X88665000Y-90562500D03*
X89935000Y-90562500D03*
X91205000Y-90562500D03*
%TD*%
D28*
%TO.C,J4*%
X112125000Y-105225000D03*
X112125000Y-104725000D03*
X112125000Y-104225000D03*
X112125000Y-103725000D03*
X112125000Y-103225000D03*
X112125000Y-102725000D03*
X112125000Y-102225000D03*
X112125000Y-101725000D03*
X112125000Y-101225000D03*
X112125000Y-100725000D03*
X112125000Y-100225000D03*
X112125000Y-99725000D03*
X112125000Y-99225000D03*
X112125000Y-98725000D03*
X112125000Y-98225000D03*
X112125000Y-97725000D03*
X112125000Y-97225000D03*
X112125000Y-96725000D03*
X112125000Y-96225000D03*
X112125000Y-95725000D03*
X112125000Y-95225000D03*
X112125000Y-94725000D03*
X112125000Y-94225000D03*
X112125000Y-93725000D03*
D29*
X115375000Y-91825000D03*
X115375000Y-107125000D03*
%TD*%
D10*
%TO.C,EN1*%
X75625000Y-110600000D03*
X71425000Y-110600000D03*
%TD*%
D16*
%TO.C,C7*%
X89625000Y-98250000D03*
X88534800Y-98250000D03*
%TD*%
D15*
%TO.C,R12*%
X105592500Y-85519400D03*
X105592500Y-84653800D03*
%TD*%
D14*
%TO.C,C19*%
X110575000Y-94309800D03*
X110575000Y-95400000D03*
%TD*%
D30*
%TO.C,R6*%
X88867200Y-101525000D03*
X89732800Y-101525000D03*
%TD*%
D12*
%TO.C,C16*%
X111092500Y-83634600D03*
X111092500Y-82544400D03*
%TD*%
D31*
%TO.C,Card1*%
X89150000Y-116525000D03*
X88049900Y-116525000D03*
X86950100Y-116525000D03*
X85850000Y-116525000D03*
X84750000Y-116525000D03*
X83649900Y-116525000D03*
X82550100Y-116525000D03*
X81450000Y-116525000D03*
D32*
X80325000Y-107300000D03*
D33*
X91150000Y-105725000D03*
D34*
X79999900Y-108799900D03*
D35*
X91950100Y-108149900D03*
D36*
X91600100Y-116399800D03*
D37*
X80250100Y-116399800D03*
%TD*%
D38*
%TO.C,R8*%
X89725000Y-100250000D03*
X88859400Y-100250000D03*
%TD*%
D39*
%TO.C,J2*%
X99750000Y-115575000D03*
%TD*%
D14*
%TO.C,C3*%
X94100000Y-90984800D03*
X94100000Y-92075000D03*
%TD*%
D39*
%TO.C,J3*%
X105750000Y-115575000D03*
%TD*%
D12*
%TO.C,C15*%
X110575000Y-104220100D03*
X110575000Y-103129900D03*
%TD*%
D14*
%TO.C,C12*%
X92875000Y-89809800D03*
X92875000Y-90900000D03*
%TD*%
D40*
%TO.C,H1*%
X73825000Y-115775000D03*
%TD*%
D12*
%TO.C,C10*%
X93300000Y-94675000D03*
X93300000Y-93584800D03*
%TD*%
D38*
%TO.C,R1*%
X82325000Y-96750000D03*
X81459400Y-96750000D03*
%TD*%
D30*
%TO.C,R10*%
X114009400Y-87750000D03*
X114875000Y-87750000D03*
%TD*%
D41*
%TO.C,U5*%
X107200000Y-82450000D03*
X107200000Y-83400000D03*
X107200000Y-84350000D03*
X109475000Y-84350000D03*
X109475000Y-82450000D03*
%TD*%
D13*
%TO.C,R4*%
X78500000Y-105667200D03*
X78500000Y-106532800D03*
%TD*%
D16*
%TO.C,C11*%
X84950000Y-87175000D03*
X83859800Y-87175000D03*
%TD*%
%TO.C,C17*%
X109257700Y-81044400D03*
X108167500Y-81044400D03*
%TD*%
D13*
%TO.C,R13*%
X105592500Y-82419400D03*
X105592500Y-83285000D03*
%TD*%
D12*
%TO.C,C5*%
X94125000Y-89504900D03*
X94125000Y-88414700D03*
%TD*%
D14*
%TO.C,C9*%
X96675000Y-106734800D03*
X96675000Y-107825000D03*
%TD*%
D42*
%TO.C,D1*%
X81892200Y-92250000D03*
X81892200Y-95050000D03*
%TD*%
D12*
%TO.C,C8*%
X93800000Y-105590200D03*
X93800000Y-104500000D03*
%TD*%
D14*
%TO.C,C1*%
X93425000Y-83900000D03*
X93425000Y-84990200D03*
%TD*%
D13*
%TO.C,R7*%
X95275000Y-104450000D03*
X95275000Y-105315600D03*
%TD*%
D43*
%TO.C,J1*%
X76725000Y-102450000D03*
X76725000Y-96670000D03*
D44*
X73045000Y-103880000D03*
D45*
X77225000Y-103880000D03*
D44*
X73045000Y-95240000D03*
D45*
X77225000Y-95240000D03*
%TD*%
M02*
