M48
; DRILL file {KiCad 9.0.2} date 2025-12-06T23:29:53-0500
; FORMAT={-:-/ absolute / metric / decimal}
; #@! TF.CreationDate,2025-12-06T23:29:53-05:00
; #@! TF.GenerationSoftware,Kicad,Pcbnew,9.0.2
; #@! TF.FileFunction,Plated,1,2,PTH
FMAT,2
METRIC
; #@! TA.AperFunction,Plated,PTH,ComponentDrill
T1C0.200
; #@! TA.AperFunction,Plated,PTH,ViaDrill
T2C0.300
; #@! TA.AperFunction,Plated,PTH,ComponentDrill
T3C0.300
; #@! TA.AperFunction,Plated,PTH,ComponentDrill
T4C0.600
%
G90
G05
T1
X98.55Y-83.055
X98.55Y-84.255
X98.55Y-85.455
X99.95Y-83.055
X99.95Y-84.255
X99.95Y-85.455
T2
X72.95Y-87.95
X75.625Y-110.6
X75.65Y-106.9
X76.746Y-97.545
X76.746Y-101.575
X78.675Y-108.975
X79.025Y-107.475
X79.075Y-103.875
X79.65Y-97.075
X84.15Y-114.425
X84.75Y-109.05
X85.479Y-103.821
X86.3Y-92.582
X86.35Y-114.825
X86.95Y-109.075
X86.975Y-98.15
X87.534Y-93.816
X88.0Y-101.801
X88.775Y-103.9
X88.775Y-109.8
X88.8Y-85.025
X89.3Y-95.582
X89.375Y-87.65
X89.5Y-104.85
X89.733Y-101.525
X89.9Y-84.875
X89.9Y-96.15
X90.274Y-102.401
X90.375Y-113.375
X90.575Y-88.9
X90.8Y-99.6
X90.876Y-101.4
X91.2Y-98.9
X91.535Y-102.815
X92.085Y-95.86
X92.275Y-82.5
X92.5Y-106.05
X93.742Y-107.925
X93.875Y-103.385
X94.6Y-99.45
X94.65Y-103.6
X95.075Y-92.95
X95.235Y-106.275
X96.525Y-92.95
X97.27Y-103.83
X97.288Y-96.637
X97.35Y-102.625
X98.424Y-96.926
X99.275Y-103.625
X99.688Y-100.289
X99.75Y-115.575
X100.095Y-99.6
X100.5Y-101.55
X100.661Y-99.035
X101.227Y-98.469
X101.625Y-97.775
X101.675Y-94.95
X101.675Y-95.75
X102.6Y-81.15
X104.321Y-96.464
X105.12Y-96.414
X105.67Y-108.523
X106.236Y-107.958
X106.394Y-101.072
X106.401Y-101.872
X106.42Y-97.775
X106.42Y-98.575
X106.42Y-99.424
X106.42Y-100.272
X106.802Y-107.392
X109.45Y-87.0
X110.625Y-89.025
X112.505Y-89.03
X117.775Y-84.8
T3
X71.1Y-85.7
T4
X72.745Y-95.24G85X73.345Y-95.24
G05
X72.745Y-103.88G85X73.345Y-103.88
G05
X76.675Y-95.24G85X77.775Y-95.24
G05
X76.675Y-103.88G85X77.775Y-103.88
G05
M30
