%TF.GenerationSoftware,KiCad,Pcbnew,9.0.2*%
%TF.CreationDate,2025-12-06T23:29:51-05:00*%
%TF.ProjectId,taskmonitor,7461736b-6d6f-46e6-9974-6f722e6b6963,rev?*%
%TF.SameCoordinates,Original*%
%TF.FileFunction,Paste,Top*%
%TF.FilePolarity,Positive*%
%FSLAX46Y46*%
G04 Gerber Fmt 4.6, Leading zero omitted, Abs format (unit mm)*
G04 Created by KiCad (PCBNEW 9.0.2) date 2025-12-06 23:29:51*
%MOMM*%
%LPD*%
G01*
G04 APERTURE LIST*
G04 Aperture macros list*
%AMRoundRect*
0 Rectangle with rounded corners*
0 $1 Rounding radius*
0 $2 $3 $4 $5 $6 $7 $8 $9 X,Y pos of 4 corners*
0 Add a 4 corners polygon primitive as box body*
4,1,4,$2,$3,$4,$5,$6,$7,$8,$9,$2,$3,0*
0 Add four circle primitives for the rounded corners*
1,1,$1+$1,$2,$3*
1,1,$1+$1,$4,$5*
1,1,$1+$1,$6,$7*
1,1,$1+$1,$8,$9*
0 Add four rect primitives between the rounded corners*
20,1,$1+$1,$2,$3,$4,$5,0*
20,1,$1+$1,$4,$5,$6,$7,0*
20,1,$1+$1,$6,$7,$8,$9,0*
20,1,$1+$1,$8,$9,$2,$3,0*%
G04 Aperture macros list end*
%ADD10C,0.010000*%
%ADD11RoundRect,0.200000X0.200000X0.800000X-0.200000X0.800000X-0.200000X-0.800000X0.200000X-0.800000X0*%
%ADD12R,1.800000X1.000000*%
%ADD13RoundRect,0.200000X0.800000X-0.200000X0.800000X0.200000X-0.800000X0.200000X-0.800000X-0.200000X0*%
%ADD14RoundRect,0.250000X-0.255000X-0.440000X0.255000X-0.440000X0.255000X0.440000X-0.255000X0.440000X0*%
%ADD15RoundRect,0.150000X-0.825000X-0.150000X0.825000X-0.150000X0.825000X0.150000X-0.825000X0.150000X0*%
%ADD16RoundRect,0.150000X0.150000X-0.512500X0.150000X0.512500X-0.150000X0.512500X-0.150000X-0.512500X0*%
%ADD17RoundRect,0.250000X-0.495000X-0.495000X0.495000X-0.495000X0.495000X0.495000X-0.495000X0.495000X0*%
%ADD18RoundRect,0.062500X-0.337500X-0.062500X0.337500X-0.062500X0.337500X0.062500X-0.337500X0.062500X0*%
%ADD19RoundRect,0.062500X-0.062500X-0.337500X0.062500X-0.337500X0.062500X0.337500X-0.062500X0.337500X0*%
%ADD20RoundRect,0.075000X-0.387500X-0.075000X0.387500X-0.075000X0.387500X0.075000X-0.387500X0.075000X0*%
%ADD21RoundRect,0.075000X-0.075000X-0.325000X0.075000X-0.325000X0.075000X0.325000X-0.075000X0.325000X0*%
%ADD22RoundRect,0.067500X0.067500X0.067500X-0.067500X0.067500X-0.067500X-0.067500X0.067500X-0.067500X0*%
%ADD23RoundRect,0.162500X-0.162500X0.650000X-0.162500X-0.650000X0.162500X-0.650000X0.162500X0.650000X0*%
%ADD24R,2.200000X1.800000*%
%ADD25R,0.600000X1.750000*%
%ADD26R,1.450000X1.000000*%
%ADD27R,1.000000X1.550000*%
%ADD28R,0.800000X1.500000*%
%ADD29R,0.800000X1.400000*%
%ADD30R,1.500000X1.500000*%
%ADD31R,1.300000X1.500000*%
%ADD32RoundRect,0.150000X-0.512500X-0.150000X0.512500X-0.150000X0.512500X0.150000X-0.512500X0.150000X0*%
%ADD33RoundRect,0.250000X-0.625000X0.375000X-0.625000X-0.375000X0.625000X-0.375000X0.625000X0.375000X0*%
G04 APERTURE END LIST*
D10*
%TO.C,J4*%
X112775000Y-93850000D02*
X111475000Y-93850000D01*
X111475000Y-93600000D01*
X112775000Y-93600000D01*
X112775000Y-93850000D01*
G36*
X112775000Y-93850000D02*
G01*
X111475000Y-93850000D01*
X111475000Y-93600000D01*
X112775000Y-93600000D01*
X112775000Y-93850000D01*
G37*
X112775000Y-94350000D02*
X111475000Y-94350000D01*
X111475000Y-94100000D01*
X112775000Y-94100000D01*
X112775000Y-94350000D01*
G36*
X112775000Y-94350000D02*
G01*
X111475000Y-94350000D01*
X111475000Y-94100000D01*
X112775000Y-94100000D01*
X112775000Y-94350000D01*
G37*
X112775000Y-94850000D02*
X111475000Y-94850000D01*
X111475000Y-94600000D01*
X112775000Y-94600000D01*
X112775000Y-94850000D01*
G36*
X112775000Y-94850000D02*
G01*
X111475000Y-94850000D01*
X111475000Y-94600000D01*
X112775000Y-94600000D01*
X112775000Y-94850000D01*
G37*
X112775000Y-95350000D02*
X111475000Y-95350000D01*
X111475000Y-95100000D01*
X112775000Y-95100000D01*
X112775000Y-95350000D01*
G36*
X112775000Y-95350000D02*
G01*
X111475000Y-95350000D01*
X111475000Y-95100000D01*
X112775000Y-95100000D01*
X112775000Y-95350000D01*
G37*
X112775000Y-95850000D02*
X111475000Y-95850000D01*
X111475000Y-95600000D01*
X112775000Y-95600000D01*
X112775000Y-95850000D01*
G36*
X112775000Y-95850000D02*
G01*
X111475000Y-95850000D01*
X111475000Y-95600000D01*
X112775000Y-95600000D01*
X112775000Y-95850000D01*
G37*
X112775000Y-96350000D02*
X111475000Y-96350000D01*
X111475000Y-96100000D01*
X112775000Y-96100000D01*
X112775000Y-96350000D01*
G36*
X112775000Y-96350000D02*
G01*
X111475000Y-96350000D01*
X111475000Y-96100000D01*
X112775000Y-96100000D01*
X112775000Y-96350000D01*
G37*
X112775000Y-96850000D02*
X111475000Y-96850000D01*
X111475000Y-96600000D01*
X112775000Y-96600000D01*
X112775000Y-96850000D01*
G36*
X112775000Y-96850000D02*
G01*
X111475000Y-96850000D01*
X111475000Y-96600000D01*
X112775000Y-96600000D01*
X112775000Y-96850000D01*
G37*
X112775000Y-97350000D02*
X111475000Y-97350000D01*
X111475000Y-97100000D01*
X112775000Y-97100000D01*
X112775000Y-97350000D01*
G36*
X112775000Y-97350000D02*
G01*
X111475000Y-97350000D01*
X111475000Y-97100000D01*
X112775000Y-97100000D01*
X112775000Y-97350000D01*
G37*
X112775000Y-97850000D02*
X111475000Y-97850000D01*
X111475000Y-97600000D01*
X112775000Y-97600000D01*
X112775000Y-97850000D01*
G36*
X112775000Y-97850000D02*
G01*
X111475000Y-97850000D01*
X111475000Y-97600000D01*
X112775000Y-97600000D01*
X112775000Y-97850000D01*
G37*
X112775000Y-98350000D02*
X111475000Y-98350000D01*
X111475000Y-98100000D01*
X112775000Y-98100000D01*
X112775000Y-98350000D01*
G36*
X112775000Y-98350000D02*
G01*
X111475000Y-98350000D01*
X111475000Y-98100000D01*
X112775000Y-98100000D01*
X112775000Y-98350000D01*
G37*
X112775000Y-98850000D02*
X111475000Y-98850000D01*
X111475000Y-98600000D01*
X112775000Y-98600000D01*
X112775000Y-98850000D01*
G36*
X112775000Y-98850000D02*
G01*
X111475000Y-98850000D01*
X111475000Y-98600000D01*
X112775000Y-98600000D01*
X112775000Y-98850000D01*
G37*
X112775000Y-99350000D02*
X111475000Y-99350000D01*
X111475000Y-99100000D01*
X112775000Y-99100000D01*
X112775000Y-99350000D01*
G36*
X112775000Y-99350000D02*
G01*
X111475000Y-99350000D01*
X111475000Y-99100000D01*
X112775000Y-99100000D01*
X112775000Y-99350000D01*
G37*
X112775000Y-99850000D02*
X111475000Y-99850000D01*
X111475000Y-99600000D01*
X112775000Y-99600000D01*
X112775000Y-99850000D01*
G36*
X112775000Y-99850000D02*
G01*
X111475000Y-99850000D01*
X111475000Y-99600000D01*
X112775000Y-99600000D01*
X112775000Y-99850000D01*
G37*
X112775000Y-100350000D02*
X111475000Y-100350000D01*
X111475000Y-100100000D01*
X112775000Y-100100000D01*
X112775000Y-100350000D01*
G36*
X112775000Y-100350000D02*
G01*
X111475000Y-100350000D01*
X111475000Y-100100000D01*
X112775000Y-100100000D01*
X112775000Y-100350000D01*
G37*
X112775000Y-100850000D02*
X111475000Y-100850000D01*
X111475000Y-100600000D01*
X112775000Y-100600000D01*
X112775000Y-100850000D01*
G36*
X112775000Y-100850000D02*
G01*
X111475000Y-100850000D01*
X111475000Y-100600000D01*
X112775000Y-100600000D01*
X112775000Y-100850000D01*
G37*
X112775000Y-101350000D02*
X111475000Y-101350000D01*
X111475000Y-101100000D01*
X112775000Y-101100000D01*
X112775000Y-101350000D01*
G36*
X112775000Y-101350000D02*
G01*
X111475000Y-101350000D01*
X111475000Y-101100000D01*
X112775000Y-101100000D01*
X112775000Y-101350000D01*
G37*
X112775000Y-101850000D02*
X111475000Y-101850000D01*
X111475000Y-101600000D01*
X112775000Y-101600000D01*
X112775000Y-101850000D01*
G36*
X112775000Y-101850000D02*
G01*
X111475000Y-101850000D01*
X111475000Y-101600000D01*
X112775000Y-101600000D01*
X112775000Y-101850000D01*
G37*
X112775000Y-102350000D02*
X111475000Y-102350000D01*
X111475000Y-102100000D01*
X112775000Y-102100000D01*
X112775000Y-102350000D01*
G36*
X112775000Y-102350000D02*
G01*
X111475000Y-102350000D01*
X111475000Y-102100000D01*
X112775000Y-102100000D01*
X112775000Y-102350000D01*
G37*
X112775000Y-102850000D02*
X111475000Y-102850000D01*
X111475000Y-102600000D01*
X112775000Y-102600000D01*
X112775000Y-102850000D01*
G36*
X112775000Y-102850000D02*
G01*
X111475000Y-102850000D01*
X111475000Y-102600000D01*
X112775000Y-102600000D01*
X112775000Y-102850000D01*
G37*
X112775000Y-103350000D02*
X111475000Y-103350000D01*
X111475000Y-103100000D01*
X112775000Y-103100000D01*
X112775000Y-103350000D01*
G36*
X112775000Y-103350000D02*
G01*
X111475000Y-103350000D01*
X111475000Y-103100000D01*
X112775000Y-103100000D01*
X112775000Y-103350000D01*
G37*
X112775000Y-103850000D02*
X111475000Y-103850000D01*
X111475000Y-103600000D01*
X112775000Y-103600000D01*
X112775000Y-103850000D01*
G36*
X112775000Y-103850000D02*
G01*
X111475000Y-103850000D01*
X111475000Y-103600000D01*
X112775000Y-103600000D01*
X112775000Y-103850000D01*
G37*
X112775000Y-104350000D02*
X111475000Y-104350000D01*
X111475000Y-104100000D01*
X112775000Y-104100000D01*
X112775000Y-104350000D01*
G36*
X112775000Y-104350000D02*
G01*
X111475000Y-104350000D01*
X111475000Y-104100000D01*
X112775000Y-104100000D01*
X112775000Y-104350000D01*
G37*
X112775000Y-104850000D02*
X111475000Y-104850000D01*
X111475000Y-104600000D01*
X112775000Y-104600000D01*
X112775000Y-104850000D01*
G36*
X112775000Y-104850000D02*
G01*
X111475000Y-104850000D01*
X111475000Y-104600000D01*
X112775000Y-104600000D01*
X112775000Y-104850000D01*
G37*
X112775000Y-105350000D02*
X111475000Y-105350000D01*
X111475000Y-105100000D01*
X112775000Y-105100000D01*
X112775000Y-105350000D01*
G36*
X112775000Y-105350000D02*
G01*
X111475000Y-105350000D01*
X111475000Y-105100000D01*
X112775000Y-105100000D01*
X112775000Y-105350000D01*
G37*
%TD*%
D11*
%TO.C,BOOT1*%
X75625000Y-106850000D03*
X71425000Y-106850000D03*
%TD*%
D12*
%TO.C,Y1*%
X95925000Y-91650000D03*
X95925000Y-89150000D03*
%TD*%
D13*
%TO.C,SW1*%
X115700000Y-86200000D03*
X115700000Y-82000000D03*
%TD*%
D14*
%TO.C,U2*%
X98650000Y-83430000D03*
X98650000Y-85080000D03*
X99850000Y-83430000D03*
X99850000Y-85080000D03*
D15*
X96775000Y-82350000D03*
X96775000Y-83620000D03*
X96775000Y-84890000D03*
X96775000Y-86160000D03*
X101725000Y-86160000D03*
X101725000Y-84890000D03*
X101725000Y-83620000D03*
X101725000Y-82350000D03*
%TD*%
D16*
%TO.C,U7*%
X74550000Y-92100000D03*
X75500000Y-92100000D03*
X76450000Y-92100000D03*
X76450000Y-89825000D03*
X74550000Y-89825000D03*
%TD*%
D17*
%TO.C,U3*%
X93625000Y-98575000D03*
X93625000Y-100425000D03*
X95475000Y-98575000D03*
X95475000Y-100425000D03*
D18*
X92100000Y-97750000D03*
X92100000Y-98250000D03*
X92100000Y-98750000D03*
X92100000Y-99250000D03*
X92100000Y-99750000D03*
X92100000Y-100250000D03*
X92100000Y-100750000D03*
X92100000Y-101250000D03*
D19*
X92800000Y-101950000D03*
X93300000Y-101950000D03*
X93800000Y-101950000D03*
X94300000Y-101950000D03*
X94800000Y-101950000D03*
X95300000Y-101950000D03*
X95800000Y-101950000D03*
X96300000Y-101950000D03*
D18*
X97000000Y-101250000D03*
X97000000Y-100750000D03*
X97000000Y-100250000D03*
X97000000Y-99750000D03*
X97000000Y-99250000D03*
X97000000Y-98750000D03*
X97000000Y-98250000D03*
X97000000Y-97750000D03*
D19*
X96300000Y-97050000D03*
X95800000Y-97050000D03*
X95300000Y-97050000D03*
X94800000Y-97050000D03*
X94300000Y-97050000D03*
X93800000Y-97050000D03*
X93300000Y-97050000D03*
X92800000Y-97050000D03*
%TD*%
D20*
%TO.C,U6*%
X112850000Y-111825000D03*
X112850000Y-112325000D03*
X112850000Y-112825000D03*
X112850000Y-113325000D03*
X112850000Y-113825000D03*
D21*
X113637500Y-114100000D03*
X114137500Y-114100000D03*
X114637500Y-114100000D03*
D20*
X115425000Y-113825000D03*
X115425000Y-113325000D03*
X115425000Y-112825000D03*
X115425000Y-112325000D03*
X115425000Y-111825000D03*
D21*
X114637500Y-111550000D03*
X114137500Y-111550000D03*
X113637500Y-111550000D03*
%TD*%
D22*
%TO.C,L1*%
X82725000Y-86950000D03*
X82175000Y-86950000D03*
%TD*%
%TO.C,L2*%
X105892500Y-81394400D03*
X105342500Y-81394400D03*
%TD*%
D23*
%TO.C,U4*%
X91205000Y-83387500D03*
X89935000Y-83387500D03*
X88665000Y-83387500D03*
X87395000Y-83387500D03*
X87395000Y-90562500D03*
X88665000Y-90562500D03*
X89935000Y-90562500D03*
X91205000Y-90562500D03*
%TD*%
D24*
%TO.C,J4*%
X115375000Y-91825000D03*
X115375000Y-107125000D03*
%TD*%
D11*
%TO.C,EN1*%
X75625000Y-110600000D03*
X71425000Y-110600000D03*
%TD*%
D25*
%TO.C,Card1*%
X89150000Y-116525000D03*
X88049900Y-116525000D03*
X86950100Y-116525000D03*
X85850000Y-116525000D03*
X84750000Y-116525000D03*
X83649900Y-116525000D03*
X82550100Y-116525000D03*
X81450000Y-116525000D03*
D26*
X80325000Y-107300000D03*
D27*
X91150000Y-105725000D03*
D28*
X79999900Y-108799900D03*
D29*
X91950100Y-108149900D03*
D30*
X91600100Y-116399800D03*
D31*
X80250100Y-116399800D03*
%TD*%
D32*
%TO.C,U5*%
X107200000Y-82450000D03*
X107200000Y-83400000D03*
X107200000Y-84350000D03*
X109475000Y-84350000D03*
X109475000Y-82450000D03*
%TD*%
D33*
%TO.C,D1*%
X81892200Y-92250000D03*
X81892200Y-95050000D03*
%TD*%
M02*
